<svg width="46" height="46" viewBox="0 0 46 46" fill="none" xmlns="http://www.w3.org/2000/svg">
<g id="Icon" clip-path="url(#clip0_675_469)">
<path id="Vector" d="M38.4454 7.5379C42.8538 11.7745 45.1153 16.9701 45.2298 23.1247C45.3443 29.2793 43.2546 34.5608 38.9607 38.9692C34.6668 43.1486 29.5141 45.2383 23.5027 45.2383C17.4912 45.2383 12.3386 43.1486 8.04467 38.9692C3.63628 34.7326 1.37482 29.5369 1.26032 23.3824C1.14582 17.2278 3.23551 11.9463 7.5294 7.5379C11.8233 3.35851 16.976 1.26881 22.9874 1.26881C28.9989 1.26881 34.1515 3.35851 38.4454 7.5379ZM23.2451 44.036C23.2451 44.036 24.6764 44.036 27.5389 44.036C30.4015 44.036 33.8653 42.0035 37.9302 37.9387C41.9951 33.8738 44.0275 28.9787 44.0275 23.2535C44.0275 17.5284 41.9951 12.6333 37.9302 8.56843C33.8653 4.50355 28.9702 2.4711 23.2451 2.4711C17.5199 2.4711 12.6248 4.50355 8.55994 8.56843C4.49505 12.6333 2.46261 17.5284 2.46261 23.2535C2.46261 28.9787 4.49505 33.8738 8.55994 37.9387C12.6248 42.0035 17.5199 44.036 23.2451 44.036ZM35.7832 29.6085C36.2412 30.0665 36.4702 30.6247 36.4702 31.2831C36.4702 31.9415 36.2412 32.5284 35.7832 33.0436L34.5809 34.16C33.1496 35.6486 31.4035 36.3929 29.3424 36.3929C28.7699 36.3929 28.1973 36.307 27.6248 36.1352C25.392 35.5627 23.3309 34.6467 21.4416 33.3871C19.7241 32.2993 18.121 31.0398 16.6325 29.6085C15.3157 28.2345 14.142 26.7745 13.1115 25.2287C11.9664 23.5112 11.0504 21.6791 10.3634 19.7326C9.96261 18.4158 9.91967 17.0703 10.2346 15.6963C10.5494 14.3223 11.2222 13.1486 12.2527 12.1753L13.5409 10.8871C13.9989 10.4291 14.5714 10.2001 15.2584 10.2001C15.9454 10.2001 16.518 10.4291 16.976 10.8871L21.184 15.0093C21.642 15.4673 21.871 16.0398 21.871 16.7268C21.871 17.4139 21.642 17.9864 21.184 18.4444L18.6935 20.9348C18.4645 21.1066 18.4359 21.307 18.6076 21.536C19.4664 22.7383 20.4111 23.8261 21.4416 24.7993C22.5294 25.9444 23.7317 26.9749 25.0485 27.891C25.3347 28.0627 25.5638 28.0341 25.7355 27.8051L28.1401 25.4005C28.5981 24.9425 29.1706 24.7135 29.8576 24.7135C30.5447 24.7135 31.1172 24.9425 31.5752 25.4005L35.7832 29.6085ZM34.6668 32.0131C35.1248 31.5551 35.1248 31.0971 34.6668 30.639L30.5447 26.5169C30.0867 26.0589 29.6286 26.0589 29.1706 26.5169L26.8519 28.9215C26.0504 29.6658 25.1916 29.723 24.2756 29.0932C22.9015 28.12 21.6134 27.0322 20.4111 25.8299C19.3233 24.7993 18.35 23.6829 17.4912 22.4806C16.8042 21.5646 16.8615 20.6772 17.663 19.8184L20.1535 17.4139C20.5542 16.9558 20.5542 16.4978 20.1535 16.0398L15.9454 11.9177C15.4874 11.4597 15.0294 11.4597 14.5714 11.9177L13.2832 13.2058C11.5657 14.9234 11.079 16.9558 11.8233 19.3032C12.3958 21.1352 13.226 22.8528 14.3138 24.4558C15.3443 25.8871 16.4893 27.2326 17.7489 28.4921C19.1229 29.8661 20.6115 31.0971 22.2145 32.1848C23.9893 33.3299 25.9073 34.1887 27.9683 34.7612C30.1439 35.2764 32.0046 34.7326 33.5504 33.1295L34.6668 32.0131Z" fill="#242424"/>
</g>
<defs>
<clipPath id="clip0_675_469">
<rect width="45" height="45" fill="white" transform="matrix(1 0 0 -1 0.740234 45.41)"/>
</clipPath>
</defs>
</svg>
