<svg width="45" height="46" viewBox="0 0 45 46" fill="none" xmlns="http://www.w3.org/2000/svg">
<g id="Icon">
<path id="Vector" d="M14.6853 31.3261C12.9105 28.8642 11.3074 26.2879 9.8761 23.5971C8.3303 20.62 7.5574 18.1868 7.5574 16.2974C7.5574 14.3509 7.95816 12.4616 8.75969 10.6295C10.3055 6.85088 12.9534 4.20298 16.7034 2.68581C20.4534 1.16863 24.1891 1.21157 27.9105 2.81462C28.1967 2.92913 28.3542 3.11519 28.3828 3.37283C28.4114 3.63046 28.3112 3.84515 28.0822 4.01691C27.8532 4.18867 27.6242 4.21729 27.3952 4.10279C23.9601 2.67149 20.525 2.67149 17.0898 4.10279C14.6853 5.19057 12.7387 6.83657 11.2501 9.04077C9.7616 11.245 9.01733 13.6639 9.01733 16.2974C9.01733 17.9578 9.73297 20.1619 11.1643 22.91C12.5383 25.5436 14.1127 28.0913 15.8876 30.5532C17.3189 32.557 18.8933 34.6181 20.6108 36.7364C20.9543 37.1944 21.3265 37.6238 21.7272 38.0245C21.8418 38.1963 22.0135 38.2822 22.2425 38.2822C22.4715 38.2822 22.6719 38.1963 22.8437 38.0245C23.1872 37.5665 23.5307 37.1371 23.8742 36.7364C25.5918 34.6181 27.1662 32.557 28.5975 30.5532C30.3723 28.0913 31.9467 25.5436 33.3208 22.91C34.7521 20.1619 35.4677 17.9578 35.4677 16.2974C35.4677 12.6333 34.1795 9.5131 31.6032 6.93676C31.3742 6.765 31.3026 6.536 31.3885 6.24974C31.4744 5.96348 31.6461 5.79172 31.9038 5.73447C32.1614 5.67722 32.4047 5.73447 32.6337 5.90622C35.4963 8.76882 36.9276 12.2326 36.9276 16.2974C36.9276 18.1868 36.1547 20.62 34.6089 23.5971C33.1776 26.2879 31.5746 28.8642 29.7998 31.3261C28.3112 33.4444 26.7082 35.5627 24.9906 37.681C24.8189 37.91 24.6471 38.1104 24.4753 38.2822H28.0822C28.5975 38.2822 28.8551 38.5255 28.8551 39.0121C28.8551 39.4988 28.5975 39.7421 28.0822 39.7421H16.4028C15.8876 39.7421 15.6299 39.4988 15.6299 39.0121C15.6299 38.5255 15.8876 38.2822 16.4028 38.2822H20.0097C19.8379 38.0532 19.6662 37.8528 19.4944 37.681C17.7196 35.5055 16.1166 33.3871 14.6853 31.3261ZM22.2425 9.68485C20.8685 9.68485 19.6376 10.1286 18.5498 11.016C17.462 11.9034 16.775 13.0341 16.4887 14.4081C16.2024 15.7822 16.3885 17.0847 17.0469 18.3156C17.7053 19.5465 18.6786 20.4339 19.9668 20.9778C21.2549 21.5217 22.5717 21.5932 23.9171 21.1925C25.2626 20.7917 26.3217 20.0045 27.0946 18.8308C27.8675 17.6572 28.1967 16.369 28.0822 14.9663C27.9677 13.5637 27.3952 12.3757 26.3647 11.4024C26.1929 11.2307 26.1356 11.0016 26.1929 10.7154C26.2502 10.4291 26.4219 10.2431 26.7082 10.1572C26.9944 10.0713 27.2234 10.1429 27.3952 10.3719C28.6547 11.6314 29.3704 13.12 29.5421 14.8375C29.7139 16.5551 29.3131 18.1438 28.3398 19.6037C27.3666 21.0637 26.0498 22.0513 24.3895 22.5665C22.7292 23.0818 21.0689 22.9959 19.4085 22.3089C18.607 21.9654 17.8914 21.5074 17.2616 20.9349C16.6318 20.3623 16.1309 19.7182 15.7587 19.0026C15.3866 18.2869 15.129 17.514 14.9858 16.6839C14.8427 15.8537 14.857 15.0093 15.0288 14.1505C15.3723 12.4329 16.2168 11.016 17.5622 9.89954C18.9076 8.78313 20.4677 8.22493 22.2425 8.22493C22.7578 8.22493 23.0154 8.46825 23.0154 8.95489C23.0154 9.44153 22.7578 9.68485 22.2425 9.68485ZM43.9696 41.6314C44.3704 42.3184 44.3704 43.0341 43.9696 43.7784C43.5116 44.5226 42.8532 44.8948 41.9944 44.8948H2.49061C1.63183 44.8948 0.973432 44.5226 0.515416 43.7784C0.114653 43.0341 0.114653 42.3184 0.515416 41.6314L5.06694 33.5589C5.46771 32.8146 6.1261 32.4425 7.04213 32.4425H12.2807C12.7387 32.4425 12.9677 32.6858 12.9677 33.1724C12.9677 33.6591 12.7387 33.9024 12.2807 33.9024H7.04213C6.69862 33.9024 6.46961 34.0169 6.35511 34.2459L1.80358 42.3184C1.68908 42.5474 1.68908 42.7765 1.80358 43.0055C1.97534 43.2917 2.20435 43.4349 2.49061 43.4349H41.9944C42.2807 43.4349 42.5097 43.2917 42.6814 43.0055C42.796 42.7765 42.796 42.5474 42.6814 42.3184L38.1299 34.2459C38.0154 34.0169 37.7864 33.9024 37.4429 33.9024H32.2043C31.7463 33.9024 31.5173 33.6591 31.5173 33.1724C31.5173 32.6858 31.7463 32.4425 32.2043 32.4425H37.4429C38.3589 32.4425 39.0173 32.8146 39.4181 33.5589L43.9696 41.6314ZM36.1547 36.0494C36.67 36.0494 36.9276 36.2927 36.9276 36.7793C36.9276 37.266 36.67 37.5093 36.1547 37.5093H33.4925L31.4314 38.8833C31.0307 39.1696 30.7015 39.1123 30.4439 38.7116C30.1862 38.3108 30.2578 37.9673 30.6585 37.681L32.8055 36.2211C32.92 36.1066 33.0631 36.0494 33.2349 36.0494H36.1547ZM32.462 41.9749C32.004 41.9749 31.775 41.7316 31.775 41.245C31.775 40.7583 32.004 40.515 32.462 40.515H38.3876C38.8456 40.515 39.0746 40.7583 39.0746 41.245C39.0746 41.7316 38.8456 41.9749 38.3876 41.9749H32.462ZM13.483 38.9692C13.3112 38.9692 13.1681 38.9406 13.0536 38.8833L10.9925 37.5093H8.3303C7.81503 37.5093 7.5574 37.266 7.5574 36.7793C7.5574 36.2927 7.81503 36.0494 8.3303 36.0494H11.2501C11.4219 36.0494 11.565 36.1066 11.6795 36.2211L13.8265 37.681C14.17 37.8528 14.2845 38.1104 14.17 38.4539C14.0555 38.7974 13.8265 38.9692 13.483 38.9692ZM6.09748 40.515H12.0231C12.4811 40.515 12.7101 40.7583 12.7101 41.245C12.7101 41.7316 12.4811 41.9749 12.0231 41.9749H6.09748C5.63946 41.9749 5.41045 41.7316 5.41045 41.245C5.41045 40.7583 5.63946 40.515 6.09748 40.515Z" fill="#242424"/>
</g>
</svg>
