<svg width="21" height="21" viewBox="0 0 21 21" fill="none" xmlns="http://www.w3.org/2000/svg">
<g id="Button" clip-path="url(#clip0_675_488)">
<path id="Vector" d="M8.1748 16.3583C7.05501 16.3583 6.00033 16.1434 5.01074 15.7137C4.02116 15.2841 3.16178 14.7046 2.43262 13.9755C1.70345 13.2463 1.12402 12.3869 0.694336 11.3973C0.264648 10.4078 0.0498047 9.35307 0.0498047 8.23328C0.0498047 7.11348 0.264648 6.0588 0.694336 5.06921C1.12402 4.07963 1.70345 3.22025 2.43262 2.49109C3.16178 1.76192 4.02116 1.1825 5.01074 0.752808C6.00033 0.32312 7.05501 0.108276 8.1748 0.108276C9.2946 0.108276 10.3493 0.32312 11.3389 0.752808C12.3285 1.1825 13.1878 1.76192 13.917 2.49109C14.6462 3.22025 15.2256 4.07963 15.6553 5.06921C16.085 6.0588 16.2998 7.11348 16.2998 8.23328C16.2998 9.35307 16.085 10.4078 15.6553 11.3973C15.2256 12.3869 14.6462 13.2463 13.917 13.9755C13.1878 14.7046 12.3285 15.2841 11.3389 15.7137C10.3493 16.1434 9.2946 16.3583 8.1748 16.3583ZM8.1748 1.35828C7.2373 1.35828 6.35189 1.54057 5.51855 1.90515C4.68522 2.26974 3.95605 2.76453 3.33105 3.38953C2.70605 4.01453 2.21126 4.74369 1.84668 5.57703C1.4821 6.41036 1.2998 7.29578 1.2998 8.23328C1.2998 9.17078 1.4821 10.0562 1.84668 10.8895C2.21126 11.7229 2.70605 12.452 3.33105 13.077C3.95605 13.702 4.68522 14.1968 5.51855 14.5614C6.35189 14.926 7.2373 15.1083 8.1748 15.1083C9.1123 15.1083 9.99772 14.926 10.8311 14.5614C11.6644 14.1968 12.3936 13.702 13.0186 13.077C13.6436 12.452 14.1383 11.7229 14.5029 10.8895C14.8675 10.0562 15.0498 9.17078 15.0498 8.23328C15.0498 7.29578 14.8675 6.41036 14.5029 5.57703C14.1383 4.74369 13.6436 4.01453 13.0186 3.38953C12.3936 2.76453 11.6644 2.26974 10.8311 1.90515C9.99772 1.54057 9.1123 1.35828 8.1748 1.35828ZM18.1748 20.1083C18.0446 20.1083 17.9209 20.0953 17.8037 20.0692C17.6865 20.0432 17.5758 20.0106 17.4717 19.9716C17.3675 19.9325 17.2633 19.8739 17.1592 19.7958C17.055 19.7177 16.9508 19.6395 16.8467 19.5614L13.3701 16.163L14.2295 15.3036L17.7451 18.663C17.7972 18.7411 17.8623 18.7932 17.9404 18.8192C18.0186 18.8453 18.0967 18.8583 18.1748 18.8583C18.2529 18.8583 18.3311 18.8453 18.4092 18.8192C18.4873 18.7932 18.5524 18.7411 18.6045 18.663C18.6305 18.6369 18.6566 18.6109 18.6826 18.5848C18.7087 18.5588 18.7282 18.5262 18.7412 18.4872C18.7542 18.4481 18.7673 18.4091 18.7803 18.37C18.7933 18.3309 18.7998 18.2854 18.7998 18.2333C18.7998 18.1812 18.7933 18.1356 18.7803 18.0966C18.7673 18.0575 18.7542 18.0184 18.7412 17.9794C18.7282 17.9403 18.7087 17.9078 18.6826 17.8817C18.6566 17.8557 18.6305 17.8296 18.6045 17.8036L15.2451 14.288L16.1045 13.4286L19.5029 16.9052C19.5811 17.0093 19.6592 17.107 19.7373 17.1981C19.8154 17.2893 19.874 17.3934 19.9131 17.5106C19.9521 17.6278 19.9847 17.745 20.0107 17.8622C20.0368 17.9794 20.0498 18.1031 20.0498 18.2333C20.0498 18.3635 20.0368 18.4872 20.0107 18.6044C19.9847 18.7216 19.9521 18.8387 19.9131 18.9559C19.874 19.0731 19.8154 19.1838 19.7373 19.288C19.6592 19.3921 19.5811 19.4833 19.5029 19.5614C19.3988 19.6395 19.2946 19.7177 19.1904 19.7958C19.0863 19.8739 18.9821 19.9325 18.8779 19.9716C18.7738 20.0106 18.6631 20.0432 18.5459 20.0692C18.4287 20.0953 18.305 20.1083 18.1748 20.1083ZM4.65918 11.7489C4.16439 11.2802 3.79329 10.7398 3.5459 10.1278C3.2985 9.51583 3.1748 8.88432 3.1748 8.23328C3.1748 7.58223 3.2985 6.95072 3.5459 6.33875C3.79329 5.72677 4.16439 5.17338 4.65918 4.67859L5.51855 5.57703C5.15397 5.94161 4.88053 6.35828 4.69824 6.82703C4.51595 7.29578 4.4248 7.76453 4.4248 8.23328C4.4248 8.70203 4.51595 9.17078 4.69824 9.63953C4.88053 10.1083 5.15397 10.5249 5.51855 10.8895L4.65918 11.7489Z" fill="white"/>
</g>
<defs>
<clipPath id="clip0_675_488">
<rect width="20" height="20" fill="white" transform="matrix(1 0 0 -1 0.0498047 20.1083)"/>
</clipPath>
</defs>
</svg>
