<svg width="60" height="60" viewBox="0 0 60 60" fill="none" xmlns="http://www.w3.org/2000/svg">
<g id="IqXGua.tif">
<path id="Vector" d="M0 27.5516C0.264218 26.9199 0.227815 26.2352 0.322934 25.5753C2.07499 13.4635 11.3332 3.39856 23.317 0.77047C31.8823 -1.10842 39.8418 0.455757 47.1166 5.39018C47.2141 5.45594 47.3092 5.52405 47.409 5.58394C47.4527 5.59754 47.4983 5.60427 47.544 5.6039C47.4853 4.97917 47.4325 4.36032 47.3702 3.74263C47.2622 2.67519 47.9668 1.77802 48.9884 1.68643C49.9384 1.6007 50.7604 2.3276 50.8614 3.37155C51.0525 5.37257 51.2357 7.37397 51.411 9.37577C51.519 10.637 50.9108 11.358 49.6496 11.52L43.6724 12.2904C42.6284 12.4243 41.7242 11.762 41.5962 10.7744C41.4682 9.78677 42.1575 8.93658 43.2261 8.79919C43.9119 8.71111 44.5977 8.61952 45.4009 8.51265C44.696 7.96789 43.95 7.47832 43.1698 7.0483C38.0506 4.15168 32.5705 3.05214 26.7295 3.74968C15.4397 5.12009 6.15922 13.7395 4.00672 24.8531C1.6863 36.831 7.65881 48.6915 18.6644 53.9523C29.2836 59.0347 42.2479 56.3139 49.9467 47.4044C53.6003 43.1769 55.727 38.2906 56.3267 32.7456C56.4171 31.913 56.4347 31.071 56.4593 30.2326C56.4946 29.0383 57.1862 28.2515 58.2302 28.255C59.2742 28.2586 59.9823 29.0665 59.9799 30.2455C59.9552 42.315 52.3739 53.4309 41.1241 57.8804C38.3521 58.989 35.4267 59.6666 32.4495 59.8896C32.3568 59.8967 32.2511 59.872 32.2147 60H27.5292C27.4634 59.8168 27.3014 59.8908 27.1769 59.8826C25.8757 59.7571 24.5835 59.5516 23.3076 59.2672C11.3062 56.5405 2.08909 46.5765 0.321759 34.4425C0.234861 33.8201 0.28653 33.1754 0 32.5894V27.5516Z" fill="#F6AE2E"/>
<path id="Vector_2" d="M31.9415 38.27C27.1139 38.0281 23.611 34.2175 23.9304 29.3864C24.137 26.2428 25.7717 23.9047 28.6088 22.5367C31.406 21.1886 34.1691 21.4399 36.7819 23.1156C36.9771 23.238 37.1457 23.3984 37.2776 23.5872C37.4095 23.7761 37.5021 23.9895 37.5499 24.2149C37.5976 24.4402 37.5996 24.6729 37.5556 24.899C37.5117 25.1251 37.4227 25.3401 37.2939 25.5312C36.7643 26.3532 35.738 26.5563 34.8279 26.0232C32.7881 24.836 30.665 24.9792 29.0268 26.4131C28.2159 27.128 27.6719 28.0973 27.4842 29.162C27.2964 30.2267 27.476 31.3236 27.9935 32.2728C29.0398 34.1823 31.3332 35.1828 33.3095 34.6003C34.5907 34.2234 35.2906 33.2921 35.7286 32.1026C35.846 31.7972 35.7039 31.742 35.4291 31.7503C34.9418 31.7667 34.4533 31.7644 33.966 31.7503C32.9361 31.7256 32.1493 30.9611 32.1458 29.9947C32.1423 29.0282 32.9208 28.2532 33.9554 28.2415C35.2236 28.2258 36.4923 28.2258 37.7613 28.2415C38.736 28.252 39.4312 28.8709 39.5662 29.8138C39.9984 32.8259 37.914 36.4968 35.0862 37.7052C34.0904 38.1162 33.0181 38.3088 31.9415 38.27Z" fill="#F6AE2E"/>
<path id="Vector_3" d="M9.85818 38.32C8.60285 38.3388 7.76674 37.0893 8.23177 35.8469C8.94574 33.9351 9.6879 32.0339 10.4148 30.1269C11.2799 27.8565 12.1438 25.5862 13.0065 23.3159C13.4022 22.2766 14.0939 21.7435 15.0275 21.7506C15.961 21.7576 16.6363 22.2837 17.0332 23.3347C18.5958 27.4612 20.1545 31.5881 21.7093 35.7154C21.8654 36.1264 21.9699 36.5303 21.856 36.9672C21.7673 37.3292 21.5671 37.6542 21.2837 37.8963C21.0003 38.1384 20.648 38.2854 20.2766 38.3165C19.9139 38.342 19.5522 38.2539 19.2418 38.0645C18.9315 37.8751 18.6877 37.5938 18.5445 37.2596C18.2991 36.6889 18.0912 36.1005 17.8857 35.5134C17.7918 35.2468 17.6743 35.1047 17.3526 35.1083C15.7731 35.1259 14.1925 35.1212 12.6131 35.1083C12.3618 35.1083 12.2326 35.1846 12.1434 35.4335C11.9414 36.0207 11.7148 36.6078 11.4775 37.1762C11.3536 37.5074 11.1329 37.7936 10.8441 37.9976C10.5552 38.2015 10.2117 38.3139 9.85818 38.32ZM15.0122 27.9239C14.5425 29.1498 14.1174 30.2631 13.7005 31.3822C13.5995 31.6535 13.8308 31.603 13.9706 31.603C14.6517 31.603 15.334 31.5936 16.0151 31.6112C16.3133 31.6182 16.3955 31.5454 16.2816 31.253C15.8683 30.1903 15.469 29.1228 15.0122 27.9239Z" fill="#F6AE2E"/>
<path id="Vector_4" d="M42.9242 30.062C42.9242 28.0116 42.9242 25.9613 42.9242 23.911C42.9242 22.4607 43.5818 21.8137 45.0379 21.8125C46.6819 21.8125 48.3177 21.8125 49.9582 21.8125C51.1008 21.8125 51.8865 22.5312 51.8912 23.5575C51.8959 24.5839 51.1044 25.319 49.9759 25.326C48.9613 25.326 47.9455 25.3472 46.9309 25.3166C46.5117 25.3037 46.4083 25.4341 46.4295 25.838C46.4635 26.5203 46.453 27.2049 46.4295 27.8872C46.4201 28.1972 46.5199 28.2853 46.8252 28.2794C47.7423 28.2618 48.6595 28.2688 49.5778 28.2794C50.6957 28.2864 51.5025 29.0427 51.4895 30.0585C51.4766 31.0742 50.6957 31.7823 49.5989 31.7917C48.7006 31.8 47.8022 31.807 46.9051 31.7917C46.5657 31.7835 46.4119 31.8504 46.4271 32.2344C46.4576 32.939 46.4541 33.6436 46.4271 34.3423C46.4142 34.6946 46.5563 34.7604 46.8698 34.7557C47.9431 34.7416 49.0176 34.731 50.0909 34.7557C51.0492 34.7792 51.7585 35.4145 51.8782 36.2928C51.9252 36.6929 51.8344 37.0969 51.6209 37.4384C51.4075 37.78 51.0841 38.0386 50.7039 38.1717C50.441 38.2482 50.1671 38.2796 49.8937 38.2645C48.2344 38.2645 46.5751 38.2645 44.9158 38.2645C43.6111 38.2645 42.93 37.581 42.9253 36.2776C42.9183 34.1944 42.9242 32.1252 42.9242 30.062Z" fill="#F6AE2E"/>
</g>
</svg>
