<svg width="63" height="60" viewBox="0 0 63 60" fill="none" xmlns="http://www.w3.org/2000/svg">
<g id="wQxais.tif">
<path id="Vector" d="M33.5762 60H32.3929C32.2312 59.7752 31.9985 59.8685 31.7895 59.8685C24.2782 59.8685 16.7673 59.8685 9.25681 59.8685C9.05435 59.8685 8.81507 59.762 8.65599 60H8.26158C8.16824 59.7725 7.93291 59.8159 7.76463 59.7633C4.11633 58.6248 2.94888 54.21 5.57433 51.4426C6.05956 50.9098 6.57165 50.4021 7.10859 49.9215C7.52798 49.5612 7.47671 49.3417 7.13225 48.9473C3.67722 44.9834 1.47904 40.4017 0.487754 35.2402C0.318158 34.3593 0.356284 33.4391 0 32.5937V27.3454C0.211667 27.2797 0.13147 27.0943 0.144617 26.9602C0.933438 20.2237 3.65487 14.3719 8.43775 9.5838C15.8093 2.20832 24.7926 -0.866763 35.1314 0.208663C43.3299 1.06059 50.2623 4.60108 55.6605 10.8354C61.8659 18.0031 64.214 26.3581 62.3537 35.6833C59.7887 48.5515 48.8609 57.8176 36.2424 59.6279C35.3549 59.7554 34.4478 59.7226 33.5762 60ZM21.147 55.7863C24.5126 55.7863 27.8769 55.7929 31.2426 55.7863C37.1127 55.7719 42.5569 54.2626 47.3897 50.897C54.2196 46.1417 58.2137 39.6392 58.6962 31.2659C59.1195 23.9272 56.5703 17.5575 51.3785 12.3841C44.9654 5.99203 37.114 3.37446 28.1491 4.40125C19.7547 5.36229 13.0432 9.34321 8.32206 16.3926C4.73555 21.7461 3.49579 27.6833 4.56859 34.0609C5.4639 39.392 7.89084 43.9356 11.7179 47.743C12.9169 48.9341 12.9012 50.0424 11.6969 51.2493C10.6925 52.2555 9.68672 53.2595 8.67966 54.2613C8.38385 54.5532 8.28525 54.8937 8.43381 55.2723C8.58237 55.6312 8.90053 55.7745 9.27916 55.785C9.45402 55.785 9.62887 55.785 9.80504 55.785L21.147 55.7863Z" fill="#F6AE2E"/>
<path id="Vector_2" d="M8.65918 60C8.81826 59.766 9.05359 59.8686 9.26 59.8686C16.7713 59.8633 24.2822 59.8633 31.7927 59.8686C31.9978 59.8686 32.2344 59.7739 32.3961 60H8.65918Z" fill="#F6AE2E"/>
<path id="Vector_3" d="M28.3299 25.7746C28.3299 23.7434 28.3299 21.7109 28.3299 19.6784C28.3299 17.7405 29.6893 16.3206 31.5088 16.3351C33.2981 16.3495 34.6207 17.7602 34.6234 19.677C34.6234 23.7421 34.6234 27.8067 34.6234 31.8709C34.6234 33.8114 33.264 35.23 31.4444 35.2155C29.659 35.1997 28.3351 33.7838 28.3299 31.8722C28.3259 29.8436 28.3299 27.8072 28.3299 25.7746Z" fill="#F6AE2E"/>
<path id="Vector_4" d="M31.4925 37.3149C32.1163 37.3168 32.7255 37.5041 33.2426 37.853C33.7597 38.2019 34.1614 38.6966 34.3967 39.2743C34.632 39.852 34.6902 40.4866 34.564 41.0975C34.4378 41.7084 34.1328 42.268 33.6879 42.7052C33.2429 43.1423 32.678 43.4374 32.065 43.5528C31.452 43.6682 30.8185 43.5987 30.245 43.3533C29.6716 43.1078 29.184 42.6974 28.8443 42.1743C28.5046 41.6511 28.3281 41.0387 28.3373 40.415C28.3517 39.5878 28.6905 38.7993 29.2807 38.2195C29.8709 37.6397 30.6652 37.3148 31.4925 37.3149Z" fill="#F6AE2E"/>
</g>
</svg>
