<svg width="60" height="60" viewBox="0 0 60 60" fill="none" xmlns="http://www.w3.org/2000/svg">
<g id="Layer_1" clip-path="url(#clip0_780_541)">
<g id="eXVNC3.tif">
<path id="Vector" d="M33.3388 60.0001C32.8018 59.694 32.1963 59.7383 31.6244 59.6175C27.3638 58.7168 23.5649 56.3241 20.9123 52.8704C18.2596 49.4168 16.9275 45.1294 17.1561 40.7806C17.6353 31.8891 24.6339 24.5549 33.4784 23.6795C38.1771 23.1966 42.8797 24.5567 46.5952 27.4731C50.3108 30.3894 52.749 34.6344 53.3961 39.3132C54.7682 49.2264 47.7454 58.4791 37.8228 59.8457C37.5785 59.8793 37.2858 59.7491 37.0885 60.0001H33.3388ZM19.2813 41.7526C19.2625 50.6132 26.4705 57.8521 35.3258 57.8628C44.1569 57.8628 51.3756 50.6884 51.4186 41.8573C51.4575 32.9966 44.2643 25.747 35.409 25.7162C26.5537 25.6853 19.3014 32.8919 19.2813 41.7526Z" fill="#F6AE2E"/>
<path id="Vector_2" d="M-0.000244643 12.1876C0.285713 11.75 0.254835 11.2264 0.368949 10.7404C1.89137 4.27882 7.67898 -0.148822 14.4278 0.00691086C20.833 0.154588 26.426 4.9917 27.606 11.4036C29.2466 20.3166 22.0453 28.4335 13.0222 27.8361C6.53515 27.4064 1.38792 22.7009 0.148775 16.0688C0.123267 15.9346 0.205161 15.7426 -0.00292969 15.6661L-0.000244643 12.1876ZM13.9123 2.14823C11.5814 2.15009 9.30342 2.84314 7.36642 4.13972C5.42941 5.4363 3.92042 7.27817 3.03026 9.4324C2.1401 11.5866 1.90878 13.9565 2.36553 16.2422C2.82228 18.5279 3.94661 20.6268 5.5963 22.2735C7.246 23.9202 9.34697 25.0407 11.6335 25.4933C13.92 25.9459 16.2894 25.7102 18.442 24.8161C20.5947 23.922 22.4338 22.4097 23.7268 20.4703C25.0199 18.531 25.7088 16.2517 25.7064 13.9208C25.6989 10.7971 24.4532 7.80378 22.2424 5.597C20.0316 3.39021 17.036 2.15 13.9123 2.14823Z" fill="#F6AE2E"/>
<path id="Vector_3" d="M48.2228 7.1527e-07C51.3486 0.00587569 54.3441 1.25325 56.5503 3.4677C58.7564 5.68216 59.9925 8.68231 59.9866 11.8082C59.9808 14.934 58.7334 17.9295 56.5189 20.1356C54.3045 22.3418 51.3043 23.5779 48.1785 23.572C41.6914 23.5639 36.4099 18.261 36.418 11.7578C36.4293 8.6348 37.6782 5.64365 39.8909 3.43974C42.1036 1.23584 45.0998 -0.00108586 48.2228 7.1527e-07ZM38.5566 11.7659C38.5566 14.3241 39.5708 16.7781 41.3768 18.59C43.1829 20.4018 45.6336 21.4238 48.1919 21.432C53.4814 21.432 57.8151 17.1225 57.8352 11.8424C57.84 10.5765 57.5954 9.32214 57.1154 8.15082C56.6353 6.97951 55.9293 5.91421 55.0376 5.01575C53.2367 3.20123 50.7887 2.17644 48.2322 2.16683C46.9663 2.16207 45.7119 2.40669 44.5406 2.88671C43.3693 3.36673 42.304 4.07276 41.4055 4.96449C39.591 6.76541 38.5662 9.21339 38.5566 11.7699V11.7659Z" fill="#F6AE2E"/>
<path id="Vector_4" d="M34.2758 37.6334C33.1213 39.2512 32.0889 40.7038 31.0471 42.151C30.3919 43.0612 29.6039 43.0693 28.9541 42.1698C27.9029 40.7132 26.8638 39.2498 25.7079 37.6321V39.6459C25.7079 42.0561 25.7079 44.466 25.7079 46.8753C25.7079 47.744 25.3387 48.1964 24.6473 48.2018C23.9559 48.2071 23.5732 47.752 23.5732 46.8941C23.5732 42.7659 23.5732 38.6376 23.5732 34.5094C23.5732 33.9079 23.7505 33.4448 24.3519 33.2608C24.9305 33.0823 25.3225 33.3723 25.6488 33.8327C26.9497 35.6693 28.2774 37.4884 29.5649 39.3371C29.8925 39.807 30.0402 39.9452 30.4349 39.3653C31.6915 37.526 33.0179 35.7338 34.304 33.9133C34.6531 33.4206 35.0451 33.0581 35.6922 33.2756C36.3393 33.4931 36.44 34.01 36.4386 34.6181C36.4279 38.7021 36.4279 42.7856 36.4386 46.8686C36.4386 47.4499 36.3299 47.9427 35.7096 48.1467C34.9377 48.4072 34.296 47.8876 34.2933 46.976C34.2866 44.142 34.2933 41.3079 34.2933 38.4738L34.2758 37.6334Z" fill="#F6AE2E"/>
<path id="Vector_5" d="M46.0589 45.4552C46.0589 46.9051 46.0723 48.3564 46.0589 49.8063C46.0374 51.8066 44.5352 53.4311 42.6006 53.5653C41.6562 53.6338 40.7206 53.3441 39.98 52.754C39.2395 52.164 38.7482 51.3167 38.6039 50.3809C38.5166 49.8439 38.4871 49.2934 39.0295 48.9377C39.7289 48.4772 40.619 48.9055 40.6969 49.77C40.7694 50.5675 41.1211 51.122 41.8931 51.3623C42.1079 51.4247 42.3336 51.4405 42.555 51.4087C42.7765 51.3768 42.9886 51.2981 43.1772 51.1778C43.3657 51.0574 43.5265 50.8982 43.6486 50.7108C43.7707 50.5234 43.8515 50.312 43.8854 50.0909C43.9606 49.5646 43.9042 49.0169 43.923 48.4866C43.9351 48.151 43.7055 48.2261 43.5202 48.2181C42.8315 48.1859 42.1414 48.2785 41.4554 48.108C40.6459 47.919 39.9227 47.4649 39.4007 46.8179C38.8788 46.1709 38.5879 45.3681 38.5744 44.5369C38.5636 43.8495 38.5113 43.1581 38.6871 42.4734C38.8122 41.9697 39.0417 41.498 39.3608 41.0886C39.6799 40.6793 40.0814 40.3417 40.5394 40.0975C40.9973 39.8533 41.5015 39.7081 42.0192 39.6713C42.5368 39.6345 43.0565 39.7068 43.5444 39.8837C43.8881 40.0086 44.1391 40.0569 44.4962 39.8099C45.1876 39.3333 46.0468 39.8743 46.0589 40.7711C46.0737 42.3298 46.0589 43.8925 46.0589 45.4552ZM43.9109 44.5154C43.9109 44.0925 43.9418 43.6656 43.9042 43.2454C43.8672 42.8474 43.6823 42.4777 43.3861 42.2093C43.0898 41.9409 42.7037 41.7933 42.304 41.7957C41.9043 41.798 41.5199 41.9502 41.2269 42.222C40.9338 42.4939 40.7534 42.8657 40.7211 43.2642C40.6865 43.711 40.6865 44.1599 40.7211 44.6067C40.7524 44.976 40.9101 45.3232 41.1676 45.5898C41.4252 45.8564 41.7667 46.026 42.1347 46.07C43.9163 46.2969 43.9163 46.2969 43.9069 44.51L43.9109 44.5154Z" fill="#F6AE2E"/>
<path id="Vector_6" d="M5.36083 13.8832C5.36083 12.9434 5.33264 12.0036 5.36083 11.0719C5.40469 10.1251 5.8056 9.23012 6.48286 8.56704C7.16011 7.90397 8.06341 7.52208 9.01092 7.49826C9.95843 7.47443 10.8798 7.81044 11.5895 8.43864C12.2992 9.06684 12.7446 9.94059 12.836 10.884C12.8443 10.9732 12.8479 11.0629 12.8467 11.1525C12.8467 11.8237 12.4225 12.2977 11.8157 12.3205C11.2371 12.342 10.8021 11.9379 10.7094 11.2934C10.5524 10.2033 9.90393 9.58307 8.98296 9.65289C8.06199 9.7227 7.49813 10.4356 7.49544 11.5324C7.49544 13.1613 7.49544 14.7907 7.49544 16.4205C7.49544 17.4476 8.10495 18.1537 9.00309 18.2101C9.90124 18.2665 10.5671 17.6382 10.7054 16.6125C10.798 15.9198 11.2344 15.5076 11.8358 15.5385C12.4628 15.5748 12.8628 16.0755 12.844 16.7938C12.793 18.6988 11.127 20.3192 9.18299 20.3541C7.16921 20.3904 5.44675 18.8196 5.36352 16.8287C5.32727 15.8486 5.36083 14.8659 5.36083 13.8832Z" fill="#F6AE2E"/>
<path id="Vector_7" d="M21.4225 15.3611C21.4225 15.9639 21.4225 16.5693 21.4225 17.1668C21.4225 17.6877 21.2762 18.2233 22.0522 18.4448C22.463 18.5616 22.561 19.0987 22.4549 19.5457C22.417 19.757 22.3103 19.9498 22.1516 20.0942C21.9928 20.2386 21.7908 20.3266 21.5769 20.3445C21.3323 20.3792 21.0831 20.3611 20.846 20.2917C20.609 20.2222 20.3894 20.1029 20.2022 19.9418C19.9042 19.6826 19.7095 19.7498 19.3967 19.9109C18.8341 20.2079 18.2049 20.356 17.569 20.3412C16.933 20.3263 16.3114 20.149 15.7633 19.826C15.2153 19.5031 14.759 19.0453 14.4378 18.4961C14.1167 17.947 13.9414 17.3248 13.9286 16.6888C13.9138 16.0176 13.8628 15.357 14.0239 14.6925C14.5609 12.476 16.8137 11.2489 18.9416 12.0437C19.2745 12.1686 19.4974 12.1941 19.8303 11.9605C20.5204 11.4772 21.3836 12.0007 21.4118 12.8881C21.4427 13.7111 21.4225 14.5368 21.4225 15.3611ZM19.2745 16.0968C19.2745 15.9397 19.2745 15.784 19.2745 15.6282C19.2463 14.6415 18.5818 13.938 17.6756 13.9326C16.7694 13.9273 16.0914 14.6334 16.0645 15.6121C16.0551 15.9236 16.0538 16.2364 16.0645 16.5519C16.0954 17.5266 16.7895 18.2314 17.693 18.2153C18.5737 18.2018 19.2342 17.5131 19.2732 16.5693C19.2839 16.4082 19.2785 16.2525 19.2799 16.0968H19.2745Z" fill="#F6AE2E"/>
<path id="Vector_8" d="M45.3928 8.57215C44.5282 8.57215 43.771 8.57215 43.0138 8.57215C42.2177 8.56409 41.772 8.16939 41.7814 7.48739C41.7895 6.83358 42.2231 6.43888 42.9762 6.43351C44.3188 6.42277 45.6505 6.4174 46.9877 6.43351C48.0053 6.44559 48.4645 7.1974 48.0134 8.12106C46.9931 10.1953 45.9486 12.2587 44.9135 14.3262C44.8168 14.5209 44.7255 14.7182 44.59 14.9975C45.429 14.9975 46.201 14.9975 46.9649 14.9975C47.7556 15.0069 48.2054 15.4123 48.1933 16.0876C48.1812 16.7414 47.7502 17.1321 46.9931 17.1374C45.6783 17.1464 44.3635 17.1464 43.0487 17.1374C41.9465 17.128 41.4995 16.3883 41.9949 15.3841C43.0367 13.271 44.0932 11.1672 45.1444 9.05814C45.2115 8.92791 45.28 8.79366 45.3928 8.57215Z" fill="#F6AE2E"/>
<path id="Vector_9" d="M55.698 14.3128C55.698 14.8914 55.7127 15.4714 55.698 16.05C55.6738 16.732 55.2348 17.1522 54.6038 17.1347C53.997 17.12 53.5808 16.7145 53.5674 16.0607C53.5472 15.0592 53.5674 14.0563 53.5593 13.0535C53.5526 12.2681 53.1405 11.7915 52.4853 11.7915C51.8302 11.7915 51.422 12.2681 51.4113 13.0521C51.4032 14.0107 51.4113 14.9679 51.4113 15.9265C51.4032 16.6877 51.0233 17.1186 50.3722 17.1347C49.7009 17.1535 49.2767 16.7011 49.2726 15.9184C49.2646 14.2474 49.2646 12.5764 49.2726 10.9054C49.2726 9.8623 49.9627 9.39913 50.9038 9.81934C50.9921 9.85716 51.0871 9.87666 51.1831 9.87666C51.2791 9.87666 51.3741 9.85716 51.4623 9.81934C53.703 9.16822 55.6738 10.6383 55.6966 12.9716C55.7033 13.4254 55.6993 13.867 55.698 14.3128Z" fill="#F6AE2E"/>
</g>
</g>
<defs>
<clipPath id="clip0_780_541">
<rect width="59.9852" height="60" fill="white"/>
</clipPath>
</defs>
</svg>
