<svg width="60" height="60" viewBox="0 0 60 60" fill="none" xmlns="http://www.w3.org/2000/svg">
<g id="w7Px1i.tif">
<path id="Vector" d="M0 10.2844C1.17034 9.09587 2.33097 7.90734 3.51707 6.73943C3.64071 6.62689 3.73756 6.48807 3.80052 6.33319C3.86348 6.17831 3.89095 6.01129 3.8809 5.8444C3.86271 4.29204 3.86878 2.73968 3.87363 1.18731C3.8809 0.351707 4.21563 0 5.0379 0C12.638 0 20.2381 0 27.8382 0C28.6993 0 29.0304 0.340792 29.0328 1.21885C29.0328 2.79546 29.0425 4.36359 29.0328 5.93657C29.0248 6.07348 29.0475 6.21045 29.0993 6.33743C29.1512 6.4644 29.2308 6.57814 29.3324 6.6703C30.3402 7.65751 31.3201 8.67382 32.3364 9.65254C32.5291 9.82635 32.6813 10.0404 32.7821 10.2795C32.8829 10.5187 32.9299 10.777 32.9198 11.0363C32.9004 15.5515 32.9198 20.0679 32.8979 24.5843C32.8979 25.0537 33.0095 25.1749 33.4837 25.1725C38.0001 25.1531 42.5153 25.1604 47.0317 25.1604C48.1075 25.1604 48.3949 25.4466 48.3949 26.5151C48.3949 34.2365 48.3912 41.9578 48.384 49.6792C48.384 50.1862 48.4689 50.3487 49.0219 50.3402C51.6427 50.305 54.2635 50.322 56.8856 50.3256C58.6914 50.3256 60.0049 51.5481 60.0085 53.2205C60.0121 54.893 58.6963 56.1252 56.9001 56.1312C56.335 56.1312 55.771 56.1252 55.2022 56.1312C54.6674 56.1409 54.2526 56.4211 54.232 56.9377C54.1556 58.5762 53.3103 59.5476 51.7822 60H30.9733C30.8617 59.789 30.6313 59.8266 30.4542 59.7647C28.9516 59.2432 27.8855 58.2475 27.3931 56.7449C27.2148 56.1991 26.982 56.1167 26.4799 56.1179C18.1117 56.1324 9.75199 56.1239 1.38864 56.1397C0.800437 56.1518 0.338366 56.0221 0 55.5333V10.2844ZM1.94045 32.9089C1.94045 36.5994 1.95015 40.2886 1.92954 43.9779C1.92954 44.4303 2.03505 44.5358 2.4862 44.5346C9.22038 44.5192 15.955 44.5192 22.69 44.5346C23.1411 44.5346 23.2466 44.4291 23.2454 43.9779C23.23 36.5977 23.23 29.2184 23.2454 21.8398C23.2454 21.3874 23.1411 21.2819 22.6887 21.2831C15.9554 21.2985 9.22119 21.2985 2.4862 21.2831C2.03384 21.2831 1.92711 21.3886 1.92954 21.8398C1.94045 25.5291 1.94045 29.2196 1.94045 32.9089ZM29.0425 46.8559C29.0425 49.6162 29.0328 52.3764 29.0425 55.138C29.051 56.791 30.299 58.0571 31.9447 58.0632C35.8135 58.0785 39.6823 58.0785 43.551 58.0632C43.9358 58.0683 44.3177 57.996 44.674 57.8507C45.0303 57.7054 45.3538 57.49 45.6253 57.2173C45.8968 56.9446 46.1107 56.6201 46.2544 56.2631C46.3981 55.9061 46.4686 55.5239 46.4617 55.1392C46.4738 49.598 46.4617 44.0568 46.4617 38.5156C46.4715 38.4175 46.4618 38.3184 46.433 38.2241C46.4043 38.1298 46.3572 38.0421 46.2943 37.9662C44.9469 36.4187 42.656 36.1955 41.2007 37.6157C39.7138 39.0625 35.8389 39.1025 34.5619 37.7794C33.5917 36.774 32.4237 36.6879 31.1661 36.7837C30.5917 36.83 30.055 37.0883 29.6605 37.5084C29.2659 37.9284 29.0418 38.4803 29.0316 39.0565L29.0425 46.8559ZM12.5814 11.6148C9.19411 11.6148 5.8068 11.6221 2.42071 11.6063C2.02413 11.6063 1.92347 11.707 1.9259 12.1011C1.94692 14.3577 1.94692 16.6155 1.9259 18.8745C1.9259 19.2723 2.0302 19.3681 2.42193 19.3669C9.19653 19.3548 15.9711 19.3548 22.7457 19.3669C23.1411 19.3669 23.243 19.2663 23.2393 18.8733C23.2199 16.6345 23.2151 14.3969 23.2393 12.1594C23.2454 11.7034 23.1302 11.6015 22.6803 11.6039C19.316 11.6245 15.9493 11.6148 12.5814 11.6148ZM12.6433 46.4593C9.23655 46.4593 5.82863 46.4666 2.42193 46.4508C2.02777 46.4508 1.92226 46.5478 1.9259 46.9432C1.94692 49.2014 1.94692 51.4596 1.9259 53.7178C1.9259 54.1132 2.02656 54.2126 2.42071 54.2114C9.19532 54.1993 15.9699 54.1993 22.7445 54.2114C23.1375 54.2114 23.243 54.1144 23.2393 53.7178C23.2199 51.4802 23.2151 49.2426 23.2393 47.005C23.2393 46.5514 23.1338 46.4447 22.6815 46.4484C19.3378 46.469 15.9905 46.4593 12.6433 46.4593ZM25.1652 32.5426V52.7476C25.1652 54.2199 25.1652 54.2029 26.6206 54.2126C27.0147 54.2126 27.119 54.1144 27.1154 53.7178C27.096 51.4802 27.1057 49.2414 27.1057 47.0038C27.1057 40.1484 27.1057 33.2925 27.1057 26.4362C27.1057 25.4854 27.4222 25.1689 28.3694 25.1665C29.0753 25.1665 29.7823 25.1434 30.4869 25.1749C30.8726 25.1907 30.9878 25.09 30.9866 24.6898C30.9712 20.2737 30.9692 15.8575 30.9805 11.4414C30.99 11.3237 30.9732 11.2054 30.9313 11.0951C30.8893 10.9847 30.8233 10.8851 30.738 10.8035C29.9424 10.0297 29.1553 9.24868 28.3864 8.45067C28.1499 8.20811 28.0129 8.19356 27.7715 8.45067C27.0438 9.20866 26.3077 9.95331 25.5448 10.6725C25.414 10.7916 25.3118 10.9388 25.2458 11.1031C25.1799 11.2673 25.1519 11.4443 25.164 11.6209C25.1713 18.5887 25.1717 25.5626 25.1652 32.5426ZM29.0377 35.5467C30.1558 34.8057 31.3201 34.819 32.4905 34.842C33.5677 34.8474 34.6047 35.2519 35.4011 35.9772C36.0496 36.5413 36.8797 36.8528 37.7392 36.8548C38.5987 36.8568 39.4301 36.5492 40.0813 35.9881C40.8951 35.2494 41.9547 34.84 43.0538 34.8396C44.2229 34.8178 45.3787 34.8311 46.4593 35.5382C46.4593 32.7609 46.4532 30.1001 46.4678 27.4404C46.4678 27.1118 46.3259 27.0972 46.0712 27.0972C40.528 27.1029 34.9843 27.1029 29.4403 27.0972C29.1407 27.0972 29.028 27.1542 29.0292 27.4877C29.0437 30.1267 29.0377 32.767 29.0377 35.5467ZM16.455 5.80802C19.8423 5.80802 23.2296 5.80074 26.6169 5.81772C27.0111 5.81772 27.1227 5.71827 27.1105 5.3229C27.0814 4.3357 27.0863 3.34607 27.1105 2.35886C27.119 2.01443 27.016 1.92832 26.6764 1.92954C19.8621 1.93924 13.0475 1.93924 6.23249 1.92954C5.8917 1.92954 5.79225 2.01928 5.80074 2.36129C5.82378 3.33151 5.83712 4.30174 5.80074 5.26348C5.78134 5.7207 5.90989 5.82257 6.35862 5.81893C9.72167 5.79831 13.0884 5.80802 16.455 5.80802ZM3.33151 9.62949C3.41864 9.65074 3.50691 9.66694 3.5959 9.67801C10.2104 9.67801 16.8245 9.67801 23.4382 9.67801C23.5935 9.67801 23.7536 9.7156 23.893 9.58341C24.4921 9.01219 25.1058 8.44824 25.7037 7.88551C18.8939 7.74726 12.203 7.74726 5.51088 7.74604C5.44147 7.73716 5.37095 7.74339 5.30417 7.76433C5.23739 7.78526 5.17593 7.8204 5.12401 7.86732C4.54794 8.4349 3.96459 9.00491 3.33151 9.62949ZM47.4053 58.0741C48.6908 58.0741 49.8733 58.0741 51.0569 58.0741C51.8986 58.0741 52.2067 57.777 52.2697 56.9329C52.3172 56.2029 52.6378 55.5175 53.1677 55.0132C53.6976 54.5089 54.398 54.2226 55.1295 54.2114C55.7541 54.1968 56.3786 54.2175 57.002 54.2114C57.6569 54.198 58.0777 53.8027 58.0705 53.2339C58.0644 52.6845 57.6581 52.2843 57.0408 52.2818C54.2817 52.2721 51.5239 52.2819 48.7648 52.2673C48.4009 52.2673 48.3864 52.4225 48.3912 52.6954C48.4034 53.3588 48.3743 54.0295 48.3997 54.688C48.4709 55.8979 48.1194 57.0949 47.4053 58.0741Z" fill="#F6AE2E"/>
<path id="Vector_2" d="M12.6125 40.6472C9.81459 40.8376 8.00391 38.9724 7.77348 36.8585C7.63037 35.5026 7.88627 34.1722 8.29013 32.8745C8.72309 31.4846 9.46895 30.2379 10.0984 28.939C10.5981 27.9094 11.1244 26.893 11.6241 25.8634C11.8193 25.4607 12.1152 25.2206 12.5579 25.2121C13.026 25.2036 13.3353 25.4547 13.5439 25.8731C14.4486 27.7117 15.3825 29.5369 16.2787 31.3791C17.0645 32.9746 17.4542 34.736 17.4151 36.514C17.3832 37.5919 16.9438 38.6176 16.1856 39.3844C15.4274 40.1511 14.4067 40.602 13.3292 40.646C13.0685 40.6557 12.8065 40.6472 12.6125 40.6472ZM12.5931 28.2574C11.7745 30.0123 10.8576 31.5319 10.2354 33.1837C9.84375 34.2236 9.65638 35.3292 9.68361 36.4401C9.69609 37.0305 9.93326 37.5939 10.3468 38.0155C10.7603 38.4372 11.319 38.6852 11.9091 38.7092C12.3517 38.7286 12.7968 38.7274 13.2431 38.7092C13.8436 38.687 14.4123 38.4338 14.8305 38.0024C15.2488 37.5711 15.4843 36.9948 15.488 36.394C15.4917 35.7691 15.4299 35.1456 15.3036 34.5336C14.8731 32.296 13.5378 30.4574 12.5931 28.2574Z" fill="#F6AE2E"/>
<path id="Vector_3" d="M42.5866 45.4312C42.5866 43.9758 42.5975 42.5278 42.5781 41.0761C42.5781 40.7341 42.6703 40.6467 43.0111 40.6431C44.5222 40.6261 44.5222 40.614 44.5222 42.1057C44.5222 44.6865 44.5137 47.2661 44.5319 49.8469C44.5319 50.2411 44.4313 50.3442 44.0371 50.3417C42.5818 50.332 42.5818 50.3478 42.5818 48.8779L42.5866 45.4312Z" fill="#F6AE2E"/>
<path id="Vector_4" d="M43.5678 52.2715C44.5235 52.2715 44.5235 52.2715 44.5235 53.2514C44.5235 54.2071 44.5235 54.2071 43.5436 54.2071C42.5879 54.2071 42.5879 54.2071 42.5879 53.2259C42.5879 52.2715 42.5879 52.2715 43.5678 52.2715Z" fill="#F6AE2E"/>
</g>
</svg>
