<svg width="200" height="200" viewBox="0 0 200 200" fill="none" xmlns="http://www.w3.org/2000/svg">
<mask id="mask0_1352_1543" style="mask-type:alpha" maskUnits="userSpaceOnUse" x="0" y="0" width="200" height="200">
<rect width="200" height="200" fill="#D9D9D9"/>
</mask>
<g mask="url(#mask0_1352_1543)">
<path d="M166.25 175C148.889 175 131.736 171.215 114.792 163.646C97.8472 156.076 82.4306 145.347 68.5417 131.458C54.6528 117.569 43.9236 102.153 36.3542 85.2083C28.7847 68.2639 25 51.1111 25 33.75C25 31.25 25.8333 29.1667 27.5 27.5C29.1667 25.8333 31.25 25 33.75 25H67.5C69.4444 25 71.1806 25.6597 72.7083 26.9792C74.2361 28.2986 75.1389 29.8611 75.4167 31.6667L80.8333 60.8333C81.1111 63.0556 81.0417 64.9306 80.625 66.4583C80.2083 67.9861 79.4444 69.3056 78.3333 70.4167L58.125 90.8333C60.9028 95.9722 64.2014 100.937 68.0208 105.729C71.8403 110.521 76.0417 115.139 80.625 119.583C84.9306 123.889 89.4444 127.882 94.1667 131.562C98.8889 135.243 103.889 138.611 109.167 141.667L128.75 122.083C130 120.833 131.632 119.896 133.646 119.271C135.66 118.646 137.639 118.472 139.583 118.75L168.333 124.583C170.278 125.139 171.875 126.146 173.125 127.604C174.375 129.062 175 130.694 175 132.5V166.25C175 168.75 174.167 170.833 172.5 172.5C170.833 174.167 168.75 175 166.25 175ZM50.2083 75L63.9583 61.25L60.4167 41.6667H41.875C42.5694 47.3611 43.5417 52.9861 44.7917 58.5417C46.0417 64.0972 47.8472 69.5833 50.2083 75ZM124.792 149.583C130.208 151.944 135.729 153.819 141.354 155.208C146.979 156.597 152.639 157.5 158.333 157.917V139.583L138.75 135.625L124.792 149.583Z" fill="white"/>
</g>
</svg>
