<svg width="200" height="200" viewBox="0 0 200 200" fill="none" xmlns="http://www.w3.org/2000/svg">
<mask id="mask0_1352_1540" style="mask-type:alpha" maskUnits="userSpaceOnUse" x="0" y="0" width="200" height="200">
<rect width="200" height="200" fill="#D9D9D9"/>
</mask>
<g mask="url(#mask0_1352_1540)">
<path d="M100.003 100C104.586 100 108.51 98.3684 111.773 95.1045C115.037 91.8406 116.669 87.917 116.669 83.3337C116.669 78.7503 115.037 74.8267 111.773 71.5628C108.51 68.2989 104.586 66.667 100.003 66.667C95.4193 66.667 91.4957 68.2989 88.2318 71.5628C84.9679 74.8267 83.3359 78.7503 83.3359 83.3337C83.3359 87.917 84.9679 91.8406 88.2318 95.1045C91.4957 98.3684 95.4193 100 100.003 100ZM100.003 161.25C116.947 145.695 129.517 131.563 137.711 118.854C145.905 106.146 150.003 94.8614 150.003 85.0003C150.003 69.8614 145.176 57.4656 135.523 47.8128C125.871 38.16 114.03 33.3337 100.003 33.3337C85.9748 33.3337 74.1346 38.16 64.4818 47.8128C54.829 57.4656 50.0026 69.8614 50.0026 85.0003C50.0026 94.8614 54.0998 106.146 62.2943 118.854C70.4887 131.563 83.0582 145.695 100.003 161.25ZM100.003 183.334C77.6415 164.306 60.9401 146.632 49.8984 130.313C38.8568 113.993 33.3359 98.8892 33.3359 85.0003C33.3359 64.167 40.0373 47.5698 53.4401 35.2087C66.8429 22.8475 82.3637 16.667 100.003 16.667C117.641 16.667 133.162 22.8475 146.565 35.2087C159.968 47.5698 166.669 64.167 166.669 85.0003C166.669 98.8892 161.148 113.993 150.107 130.313C139.065 146.632 122.364 164.306 100.003 183.334Z" fill="white"/>
</g>
</svg>
