<svg width="200" height="201" viewBox="0 0 200 201" fill="none" xmlns="http://www.w3.org/2000/svg">
<mask id="mask0_1352_1549" style="mask-type:alpha" maskUnits="userSpaceOnUse" x="0" y="0" width="200" height="201">
<rect y="0.0834961" width="200" height="200" fill="#D9D9D9"/>
</mask>
<g mask="url(#mask0_1352_1549)">
<path d="M33.3307 166.75C28.7474 166.75 24.8238 165.118 21.5599 161.854C18.296 158.59 16.6641 154.667 16.6641 150.083V50.0832C16.6641 45.4998 18.296 41.5762 21.5599 38.3123C24.8238 35.0484 28.7474 33.4165 33.3307 33.4165H166.664C171.247 33.4165 175.171 35.0484 178.435 38.3123C181.699 41.5762 183.331 45.4998 183.331 50.0832V150.083C183.331 154.667 181.699 158.59 178.435 161.854C175.171 165.118 171.247 166.75 166.664 166.75H33.3307ZM99.9974 108.417L33.3307 66.7498V150.083H166.664V66.7498L99.9974 108.417ZM99.9974 91.7498L166.664 50.0832H33.3307L99.9974 91.7498ZM33.3307 66.7498V50.0832V150.083V66.7498Z" fill="white"/>
</g>
</svg>
