<svg width="200" height="201" viewBox="0 0 200 201" fill="none" xmlns="http://www.w3.org/2000/svg">
<mask id="mask0_1352_1546" style="mask-type:alpha" maskUnits="userSpaceOnUse" x="0" y="0" width="200" height="201">
<rect y="0.0415039" width="200" height="200" fill="#D9D9D9"/>
</mask>
<g mask="url(#mask0_1352_1546)">
<path d="M133.331 66.7082V41.7082H66.6641V66.7082H49.9974V25.0415H149.997V66.7082H133.331ZM149.997 104.208C152.359 104.208 154.338 103.41 155.935 101.812C157.532 100.215 158.331 98.2359 158.331 95.8748C158.331 93.5137 157.532 91.5346 155.935 89.9373C154.338 88.3401 152.359 87.5415 149.997 87.5415C147.636 87.5415 145.657 88.3401 144.06 89.9373C142.463 91.5346 141.664 93.5137 141.664 95.8748C141.664 98.2359 142.463 100.215 144.06 101.812C145.657 103.41 147.636 104.208 149.997 104.208ZM133.331 158.375V125.042H66.6641V158.375H133.331ZM149.997 175.041H49.9974V141.708H16.6641V91.7082C16.6641 84.6248 19.0946 78.6873 23.9557 73.8957C28.8168 69.104 34.7196 66.7082 41.6641 66.7082H158.331C165.414 66.7082 171.352 69.104 176.143 73.8957C180.935 78.6873 183.331 84.6248 183.331 91.7082V141.708H149.997V175.041ZM166.664 125.042V91.7082C166.664 89.3471 165.865 87.3679 164.268 85.7707C162.671 84.1734 160.692 83.3748 158.331 83.3748H41.6641C39.303 83.3748 37.3238 84.1734 35.7266 85.7707C34.1293 87.3679 33.3307 89.3471 33.3307 91.7082V125.042H49.9974V108.375H149.997V125.042H166.664Z" fill="white"/>
</g>
</svg>
