<svg width="50" height="50" viewBox="0 0 50 50" fill="none" xmlns="http://www.w3.org/2000/svg">
<g id="Simplification" clip-path="url(#clip0_1012_479)">
<path id="Vector" d="M45.1169 8.98444C45.4268 9.18985 45.7322 9.40439 45.9958 9.66803C46.7975 9.74683 47.5167 9.58752 48.2847 9.37507C48.4899 9.31973 48.6953 9.26479 48.9007 9.21027C48.99 9.18572 49.0794 9.16118 49.1714 9.13588C49.4138 9.0821 49.4138 9.0821 49.8044 9.0821C50.0795 9.55183 50.0592 10.017 49.9998 10.5469C49.7918 11.2044 49.238 11.5906 48.7012 11.9786C48.372 12.1418 48.1374 12.1388 47.772 12.1278C47.6018 12.1238 47.6018 12.1238 47.4283 12.1197C47.3423 12.1163 47.2563 12.1129 47.1677 12.1094C47.1734 12.2016 47.1791 12.2937 47.1849 12.3887C47.208 13.0472 47.2195 13.5497 46.9236 14.1541C46.5538 14.9391 46.5412 15.7797 46.7592 16.6138C46.9326 17.0585 47.1584 17.4667 47.3958 17.8796C47.4555 17.9836 47.4555 17.9836 47.5164 18.0897C47.5956 18.226 47.6763 18.3613 47.7588 18.4956C47.9874 18.88 48.1417 19.1697 48.0466 19.629C47.5455 20.1672 46.7803 20.3126 46.0935 20.5079C45.9929 20.537 45.8923 20.566 45.7887 20.596C44.8851 20.8032 44.0288 20.5683 43.194 20.1951C42.9772 20.106 42.9772 20.106 42.7717 20.1199C42.4765 20.2646 42.3069 20.5007 42.114 20.7581C42.0716 20.8144 42.0291 20.8707 41.9854 20.9287C40.9364 22.3674 40.4635 23.9857 40.0876 25.702C39.776 27.1178 39.3569 28.537 38.1833 29.4923C37.6752 29.8056 37.1678 30.003 36.5877 30.1415C36.4837 30.1666 36.3797 30.1917 36.2726 30.2176C36.1942 30.236 36.1157 30.2545 36.0349 30.2735C36.0276 30.3605 36.0202 30.4475 36.0127 30.5371C35.9844 30.8675 35.9553 31.1979 35.9258 31.5282C35.9133 31.6697 35.9011 31.8113 35.8892 31.9529C35.6832 34.3948 35.6832 34.3948 35.3513 35.0587C35.2127 36.5572 35.4642 38.2602 36.3145 39.5261C36.4558 39.8061 36.4447 40.0227 36.4255 40.3321C35.7948 40.696 35.0358 40.7 34.3381 40.5579C34.0129 40.3953 34.0147 40.2701 33.8865 39.9415C33.6945 39.8374 33.4992 39.7391 33.3005 39.6485C33.3146 39.5767 33.3287 39.505 33.3433 39.4311C33.8904 36.1257 33.1664 32.9652 32.324 29.7852C32.1353 30.0683 32.0596 30.2706 31.9662 30.5936C31.9355 30.6973 31.9049 30.801 31.8733 30.9078C31.8408 31.0187 31.8082 31.1297 31.7747 31.244C31.5226 32.0834 31.2537 32.9088 30.9263 33.722C30.8945 33.8011 30.8628 33.8802 30.8301 33.9617C30.5967 34.528 30.5967 34.528 30.4111 34.7851C30.2189 35.1663 30.2329 35.4944 30.2377 35.9154C30.2377 35.9977 30.2376 36.0799 30.2376 36.1646C30.2378 36.3381 30.2387 36.5116 30.2404 36.6852C30.2427 36.9492 30.2424 37.2131 30.2417 37.4772C30.2423 37.6463 30.243 37.8154 30.2438 37.9845C30.2437 38.1019 30.2437 38.1019 30.2435 38.2216C30.2512 38.8389 30.2965 39.4349 30.7554 39.8926C31.0543 40.2187 31.2119 40.4954 31.3474 40.918C31.3051 41.1336 31.3051 41.1336 31.2498 41.3087C30.8551 41.3229 30.4605 41.3315 30.0657 41.3392C29.9541 41.3433 29.8426 41.3474 29.7277 41.3516C28.7998 41.3651 28.7998 41.3651 28.4551 41.0748C28.3783 40.9909 28.3015 40.9069 28.2224 40.8204C28.1257 40.7559 28.0291 40.6915 27.9294 40.6251C27.9101 40.3586 27.9094 40.1157 27.9222 39.8503C27.9248 39.7709 27.9274 39.6915 27.93 39.6097C27.9358 39.4379 27.9422 39.266 27.9491 39.0941C27.9674 38.639 27.9807 38.1838 27.9947 37.7286C27.9976 37.636 28.0006 37.5434 28.0037 37.448C28.0296 36.6142 28.0395 35.7809 28.0393 34.9468C28.0393 34.8034 28.0395 34.6601 28.04 34.5167C28.042 33.8115 28.026 33.1165 27.9521 32.4147C27.9242 32.0624 27.9192 31.7109 27.9157 31.3576C27.9138 31.2209 27.9119 31.0843 27.91 30.9476C27.9071 30.7373 27.905 30.5272 27.905 30.3169C27.9047 30.1104 27.9013 29.904 27.8974 29.6975C27.8965 29.576 27.8956 29.4544 27.8946 29.3292C27.8152 28.9179 27.6664 28.7743 27.3435 28.5157C26.5349 28.2462 25.763 28.4996 24.9998 28.8087C24.6699 28.9773 24.3515 29.1652 24.0318 29.3523C22.2783 30.3687 20.4345 30.841 18.4434 30.3451C18.0365 30.2367 17.6824 30.087 17.3032 29.9012C17.0548 29.7912 17.0548 29.7912 16.7966 29.7852C16.3701 30.0095 16.0633 30.3283 15.7224 30.6641C15.6368 30.7243 15.5512 30.7845 15.463 30.8465C15.0561 31.1362 14.8689 31.3101 14.7745 31.8131C14.7536 32.0774 14.753 32.3321 14.7554 32.5982C14.7458 32.9102 14.7458 32.9102 14.5505 33.1055C14.3894 33.0733 14.2283 33.0411 14.0623 33.0079C13.9656 32.6212 13.8689 32.2344 13.7693 31.836C13.6082 31.8038 13.447 31.7715 13.281 31.7383C12.9712 32.1424 12.9448 32.496 12.9205 32.9877C12.8904 33.2032 12.8904 33.2032 12.6951 33.3985C12.1877 33.4525 12.1877 33.4525 11.9481 33.2879C11.7614 33.0299 11.766 32.8165 11.749 32.5013C11.7426 32.3952 11.7362 32.289 11.7296 32.1797C11.7241 32.0579 11.7241 32.0579 11.7185 31.9337C11.5995 31.9018 11.4806 31.87 11.358 31.8371C11.1994 31.7941 11.0409 31.751 10.8823 31.7078C10.8042 31.687 10.7261 31.6662 10.6456 31.6447C10.1691 31.5144 9.72643 31.3581 9.27709 31.1524C8.74281 32.4985 8.43855 34.0487 8.99862 35.4336C9.08397 35.6263 9.16968 35.8188 9.25573 36.0112C9.38779 36.3629 9.45582 36.7098 9.51513 37.0789C9.72326 38.3348 10.1615 39.4745 10.8179 40.5629C10.9373 40.8204 10.9373 40.8204 10.9071 41.0504C10.8848 41.1034 10.8626 41.1564 10.8396 41.211C10.3136 41.3863 9.8542 41.4365 9.30151 41.4307C9.22787 41.4315 9.15422 41.4322 9.07835 41.433C8.70296 41.4317 8.52209 41.4238 8.20288 41.211C8.16299 40.9462 8.18985 40.6989 8.20288 40.4298C8.1062 40.3975 8.00952 40.3653 7.90991 40.3321C7.8075 40.0249 7.80211 39.7966 7.79356 39.4742C7.73819 38.6961 7.4591 38.0596 7.13476 37.3597C7.08022 37.2388 7.02586 37.1178 6.97168 36.9967C6.87241 36.7749 6.77227 36.5535 6.67092 36.3326C6.54566 36.0421 6.44285 35.7508 6.34741 35.4493C6.08943 37.8991 6.08943 37.8991 6.98518 40.0529C7.02963 40.0997 7.07408 40.1465 7.11988 40.1948C7.32397 40.4298 7.32397 40.4298 7.31939 40.648C7.15434 40.9537 6.96697 41.0026 6.64038 41.1133C5.96806 41.1823 5.3685 41.1805 4.78491 40.8204C4.52357 40.4916 4.49194 40.37 4.49194 39.9415C4.43151 39.9314 4.37109 39.9213 4.30883 39.911C4.10131 39.8438 4.10131 39.8438 3.906 39.5508C3.88724 39.3058 3.87964 39.0715 3.88106 38.8264C3.88071 38.7529 3.88036 38.6793 3.87999 38.6035C3.87932 38.4437 3.87907 38.2838 3.87921 38.1239C3.8793 37.8701 3.87803 37.6163 3.87637 37.3624C3.87186 36.6407 3.86946 35.9189 3.86881 35.1971C3.86832 34.7554 3.86593 34.3137 3.86243 33.8721C3.86148 33.7045 3.86124 33.5369 3.86176 33.3694C3.86429 32.5172 3.86472 31.7733 3.50132 30.983C3.35012 30.5829 3.40211 30.1899 3.51538 29.7852C3.57762 29.649 3.64109 29.5134 3.70535 29.3782C3.92494 28.8969 4.0174 28.4332 4.08911 27.9114C4.10295 27.8291 4.1168 27.7467 4.13107 27.6618C4.30866 26.4251 3.95909 25.2344 3.60918 24.0594C3.54096 23.8303 3.47393 23.6009 3.40715 23.3714C3.28919 22.9667 3.17025 22.5624 3.05097 22.1581C2.85997 21.5107 2.66983 20.8631 2.48097 20.2152C2.41545 19.9913 2.3491 19.7677 2.28267 19.5441C1.95375 18.4259 1.69892 17.3698 1.80029 16.1988C1.87535 15.6528 1.87535 15.6528 1.75756 15.1368C1.31096 15.5834 1.52828 17.3518 1.50732 17.9871C1.5031 18.0986 1.49889 18.2101 1.49454 18.3249C1.42531 20.3764 1.4545 22.408 1.62596 24.4538C1.67382 25.0257 1.71839 25.5978 1.76252 26.17C1.7711 26.281 1.77969 26.3921 1.78853 26.5065C1.86354 27.5021 1.90711 28.4961 1.92081 29.4945C1.93143 30.1021 1.98961 30.6764 2.10377 31.2737C2.36832 32.8776 1.89687 34.3823 1.07397 35.7423C0.946277 35.8749 0.81647 36.0057 0.683345 36.1329C0.681409 36.0443 0.679474 35.9558 0.67748 35.8646C0.66977 35.5304 0.661302 35.1963 0.65235 34.8621C0.648653 34.7186 0.645243 34.575 0.642146 34.4314C0.624842 33.6387 0.586886 32.867 0.434531 32.0861C0.305042 31.3527 0.38073 30.6814 0.535644 29.9603C0.808745 28.6635 0.796149 27.4482 0.711383 26.1303C0.684419 25.7103 0.661844 25.2901 0.639508 24.8698C0.618271 24.4762 0.595512 24.0827 0.572364 23.6892C0.561121 23.4967 0.550194 23.3042 0.539623 23.1117C0.482161 22.0862 0.386073 21.0907 0.187816 20.0822C0.0107653 19.1793 -0.0632667 18.32 -0.0490772 17.4012C-0.0485687 17.3314 -0.0480603 17.2617 -0.0475364 17.1898C-0.0287345 14.9622 0.146042 12.4423 1.74536 10.743C2.70579 9.84067 3.81813 9.53874 5.10534 9.54444C5.20024 9.54425 5.29514 9.54406 5.39291 9.54387C5.59317 9.54374 5.79343 9.5441 5.99369 9.54491C6.29498 9.54595 6.5962 9.54493 6.89749 9.54368C8.34108 9.54262 9.71295 9.62721 11.1169 9.9919C11.7896 10.1374 12.4792 10.1748 13.1654 10.2078C13.2895 10.2139 13.2895 10.2139 13.4161 10.22C14.4864 10.2687 15.5576 10.2856 16.6288 10.3031C16.985 10.3089 17.3412 10.3152 17.6975 10.3217C20.3713 10.3889 20.3713 10.3889 23.0405 10.2662C23.1475 10.2574 23.2546 10.2487 23.3648 10.2397C23.8543 10.1991 24.3431 10.1545 24.8315 10.1033C34.9182 9.06084 34.9182 9.06084 38.4763 10.8399C38.4411 10.7632 38.4058 10.6866 38.3695 10.6076C37.8947 9.53272 37.8947 9.53272 37.988 8.98444C38.2132 8.69491 38.2762 8.69208 38.6655 8.64264C39.428 8.66748 40.111 9.06006 40.7712 9.41169C41.0812 9.59226 41.0812 9.59226 41.3133 9.54558C41.5318 9.47425 41.5318 9.47425 41.7661 9.24689C42.756 8.39769 43.9907 8.36376 45.1169 8.98444Z" fill="black"/>
</g>
<defs>
<clipPath id="clip0_1012_479">
<rect width="50" height="50" fill="white"/>
</clipPath>
</defs>
</svg>
