<svg width="193" height="193" viewBox="0 0 193 193" fill="none" xmlns="http://www.w3.org/2000/svg">
<g id="Document" clip-path="url(#clip0_1031_1791)">
<g id="Clip path group">
<mask id="mask0_1031_1791" style="mask-type:luminance" maskUnits="userSpaceOnUse" x="0" y="0" width="193" height="193">
<g id="a">
<path id="Vector" d="M0 0H193V193H0V0Z" fill="white"/>
</g>
</mask>
<g mask="url(#mask0_1031_1791)">
<g id="Group">
<path id="Vector_2" d="M169.714 53.7658L124.003 8.05531C122.079 6.24573 119.526 5.25623 116.886 5.29642C114.245 5.33661 111.723 6.40335 109.855 8.27064C107.987 10.1379 106.92 12.6591 106.878 15.3C106.837 17.9409 107.826 20.494 109.635 22.4186L90.0352 42.0182L135.746 87.7288L155.345 68.1291C157.25 70.0345 159.834 71.1052 162.528 71.1056C163.862 71.1059 165.183 70.8433 166.415 70.3331C167.648 69.8228 168.768 69.0747 169.711 68.1316C170.655 67.1885 171.403 66.0688 171.914 64.8365C172.424 63.6041 172.687 62.2833 172.688 60.9493C172.688 59.6153 172.425 58.2943 171.915 57.0618C171.405 55.8292 170.657 54.7093 169.714 53.7658Z" fill="#EBEBF0"/>
<path id="Vector_3" d="M116.816 5.07904H40.6322C35.2441 5.07904 30.0767 7.21945 26.2668 11.0294C22.4568 14.8394 20.3164 20.0068 20.3164 25.3948V167.605C20.3164 172.993 22.4568 178.161 26.2668 181.971C30.0767 185.781 35.2441 187.921 40.6322 187.921H152.369C157.757 187.921 162.925 185.781 166.734 181.971C170.544 178.161 172.685 172.993 172.685 167.605V60.9475H126.974C121.895 60.9475 116.816 55.8685 116.816 50.7896V5.07904Z" fill="#F2F2F5"/>
<path id="Vector_4" d="M116.818 5.07892H106.66V50.7894C106.66 56.1775 108.801 61.3449 112.611 65.1549C116.42 68.9648 121.588 71.1052 126.976 71.1052H172.686V60.9473H126.976C121.897 60.9473 116.818 55.8684 116.818 50.7894V5.07892Z" fill="#C7C9D9"/>
<path id="Vector_5" d="M91.4223 45.7106C91.4223 47.0576 90.8872 48.3495 89.9347 49.302C88.9822 50.2544 87.6904 50.7896 86.3433 50.7896H45.7118C44.3647 50.7896 43.0729 50.2544 42.1204 49.302C41.1679 48.3495 40.6328 47.0576 40.6328 45.7106C40.6328 44.3636 41.1679 43.0717 42.1204 42.1192C43.0729 41.1668 44.3647 40.6317 45.7118 40.6317H86.3433C87.6904 40.6317 88.9822 41.1668 89.9347 42.1192C90.8872 43.0717 91.4223 44.3636 91.4223 45.7106Z" fill="#C7C9D9"/>
<path id="Vector_6" d="M91.4223 66.0263C91.4223 67.3733 90.8872 68.6651 89.9347 69.6176C88.9822 70.5701 87.6904 71.1052 86.3433 71.1052H45.7118C44.3647 71.1052 43.0729 70.5701 42.1204 69.6176C41.1679 68.6651 40.6328 67.3733 40.6328 66.0263C40.6328 64.6793 41.1679 63.3874 42.1204 62.4349C43.0729 61.4824 44.3647 60.9473 45.7118 60.9473H86.3433C87.6904 60.9473 88.9822 61.4824 89.9347 62.4349C90.8872 63.3874 91.4223 64.6793 91.4223 66.0263Z" fill="#C7C9D9"/>
<path id="Vector_7" d="M152.37 86.3422C152.37 87.6892 151.835 88.9811 150.882 89.9336C149.93 90.886 148.638 91.4211 147.291 91.4211H45.7118C44.3647 91.4211 43.0729 90.886 42.1204 89.9336C41.1679 88.9811 40.6328 87.6892 40.6328 86.3422C40.6328 84.9952 41.1679 83.7033 42.1204 82.7508C43.0729 81.7984 44.3647 81.2632 45.7118 81.2632H147.291C148.638 81.2632 149.93 81.7984 150.882 82.7508C151.835 83.7033 152.37 84.9952 152.37 86.3422Z" fill="#C7C9D9"/>
<path id="Vector_8" d="M152.37 106.658C152.37 108.005 151.835 109.297 150.882 110.249C149.93 111.202 148.638 111.737 147.291 111.737H45.7118C44.3647 111.737 43.0729 111.202 42.1204 110.249C41.1679 109.297 40.6328 108.005 40.6328 106.658C40.6328 105.311 41.1679 104.019 42.1204 103.067C43.0729 102.114 44.3647 101.579 45.7118 101.579H147.291C148.638 101.579 149.93 102.114 150.882 103.067C151.835 104.019 152.37 105.311 152.37 106.658Z" fill="#C7C9D9"/>
<path id="Vector_9" d="M152.37 126.974C152.37 128.321 151.835 129.613 150.882 130.565C149.93 131.518 148.638 132.053 147.291 132.053H45.7118C44.3647 132.053 43.0729 131.518 42.1204 130.565C41.1679 129.613 40.6328 128.321 40.6328 126.974C40.6328 125.627 41.1679 124.335 42.1204 123.382C43.0729 122.43 44.3647 121.895 45.7118 121.895H147.291C148.638 121.895 149.93 122.43 150.882 123.382C151.835 124.335 152.37 125.627 152.37 126.974Z" fill="#C7C9D9"/>
<path id="Vector_10" d="M152.37 147.289C152.37 148.636 151.835 149.928 150.882 150.881C149.93 151.833 148.638 152.368 147.291 152.368H45.7118C44.3647 152.368 43.0729 151.833 42.1204 150.881C41.1679 149.928 40.6328 148.636 40.6328 147.289C40.6328 145.942 41.1679 144.651 42.1204 143.698C43.0729 142.746 44.3647 142.211 45.7118 142.211H147.291C148.638 142.211 149.93 142.746 150.882 143.698C151.835 144.651 152.37 145.942 152.37 147.289Z" fill="#C7C9D9"/>
</g>
</g>
</g>
</g>
<defs>
<clipPath id="clip0_1031_1791">
<rect width="193" height="193" fill="white"/>
</clipPath>
</defs>
</svg>
