<svg width="20" height="21" viewBox="0 0 20 21" fill="none" xmlns="http://www.w3.org/2000/svg">
<g id="jRjRss.tif">
<path id="Vector" d="M20 11.2988C19.9036 11.5107 19.9248 11.7454 19.8828 11.9679C19.0967 16.0994 16.7137 18.859 12.6705 20.0458C7.58005 21.5403 2.20121 18.6429 0.516846 13.6055C-1.31616 8.12568 1.89288 2.24928 7.51082 0.793849C8.00971 0.667343 8.51714 0.577139 9.02913 0.523947C9.0716 0.519287 9.1319 0.545133 9.15654 0.479034H10.8086C10.8184 0.526913 10.857 0.518439 10.8906 0.521405C11.5098 0.574792 12.1222 0.669703 12.7168 0.860371C16.709 2.13347 19.0975 4.82613 19.8824 8.93835C19.9274 9.17521 19.9057 9.42223 20 9.65018V11.2988ZM1.02182 10.4569C1.02988 15.3965 5.04288 19.4094 9.97833 19.4132C14.9499 19.4188 18.9845 15.3965 18.9845 10.4362C18.9845 5.49234 14.9461 1.48576 9.97324 1.4917C5.03821 1.49975 1.01332 5.53047 1.02182 10.4569Z" fill="#6B7588"/>
<path id="Vector_2" d="M11.5264 12.206C11.5264 13.0365 11.534 13.8669 11.5243 14.697C11.5158 15.4596 10.9556 16.0668 10.1894 16.1719C9.83325 16.2173 9.47246 16.1353 9.17121 15.9403C8.86996 15.7453 8.64777 15.4501 8.54414 15.1071C8.49814 14.9526 8.47538 14.7921 8.47661 14.6309C8.47661 13.0123 8.47661 11.3942 8.47661 9.77561C8.47661 8.90192 9.15613 8.21763 10.003 8.2189C10.8498 8.22018 11.5204 8.90319 11.5251 9.78069C11.5289 10.59 11.5251 11.3993 11.5251 12.2081L11.5264 12.206ZM10.5105 12.206C10.5105 11.4107 10.5105 10.615 10.5105 9.81925C10.5105 9.46969 10.3117 9.2375 10.0128 9.23072C9.70739 9.22351 9.49504 9.46249 9.49504 9.81967C9.49504 11.4043 9.49504 12.9887 9.49504 14.5728C9.49504 14.9364 9.6972 15.1724 10.0047 15.1724C10.3122 15.1724 10.5143 14.9359 10.5143 14.572C10.5126 13.7847 10.5114 12.9966 10.5105 12.2077V12.206Z" fill="#6B7588"/>
<path id="Vector_3" d="M11.5272 6.24145C11.5245 6.54192 11.4327 6.83486 11.2634 7.08335C11.094 7.33183 10.8547 7.52474 10.5757 7.63773C10.2966 7.75073 9.99024 7.77876 9.69522 7.71829C9.4002 7.65782 9.12973 7.51155 8.91792 7.29794C8.70611 7.08432 8.56244 6.81292 8.50502 6.51795C8.4476 6.22299 8.47901 5.91767 8.59529 5.64048C8.71156 5.3633 8.9075 5.12667 9.15839 4.96043C9.40927 4.7942 9.70388 4.70579 10.0051 4.70636C10.2061 4.70725 10.405 4.74768 10.5903 4.82535C10.7757 4.90301 10.9439 5.01638 11.0852 5.15896C11.2266 5.30155 11.3384 5.47055 11.4143 5.6563C11.4901 5.84205 11.5285 6.04089 11.5272 6.24145ZM10.0025 6.7338C10.1032 6.7338 10.2016 6.70404 10.2854 6.64828C10.3691 6.59253 10.4345 6.51327 10.4731 6.42051C10.5118 6.32775 10.522 6.22565 10.5025 6.12709C10.4831 6.02853 10.4348 5.93793 10.3638 5.86672C10.2928 5.79551 10.2022 5.74689 10.1035 5.72698C10.0048 5.70708 9.90241 5.71679 9.80924 5.75488C9.71608 5.79297 9.63631 5.85775 9.58 5.94103C9.52369 6.0243 9.49338 6.12236 9.49287 6.22281C9.49265 6.28972 9.50567 6.35602 9.53118 6.4179C9.55669 6.47979 9.5942 6.53604 9.64154 6.58343C9.68889 6.63082 9.74515 6.66843 9.80709 6.69409C9.86903 6.71974 9.93544 6.73295 10.0025 6.73295V6.7338Z" fill="#6B7588"/>
</g>
</svg>
