<svg width="18" height="21" viewBox="0 0 18 21" fill="none" xmlns="http://www.w3.org/2000/svg">
<g id="KuOBCy.tif">
<path id="Vector" d="M15.3934 20.1996H15.2682C15.2036 20.1193 15.1143 20.1605 15.0384 20.1605C11.3635 20.158 7.68883 20.158 4.01428 20.1605C3.95254 20.1605 3.87453 20.1188 3.82739 20.1996H3.70225C3.67347 20.1293 3.60714 20.158 3.55791 20.1484C2.5046 19.9402 1.77584 19.1859 1.61023 18.1243C1.54807 17.7258 1.58979 17.3233 1.58478 16.9223C1.58478 16.8145 1.55558 16.7816 1.44629 16.7837C1.13426 16.7908 0.820561 16.7916 0.510616 16.7837C0.200672 16.7758 -0.00206379 16.5793 0.000439128 16.302C0.00294204 16.0248 0.209015 15.8387 0.523131 15.8362C0.828069 15.8337 1.13301 15.8328 1.43795 15.8362C1.53389 15.8362 1.58729 15.8295 1.58645 15.7075C1.58145 14.7525 1.58145 13.7976 1.58645 12.8428C1.58645 12.7404 1.55475 12.7154 1.45713 12.7179C1.1522 12.7238 0.847258 12.7217 0.54232 12.7179C0.21277 12.7154 0.00252489 12.5306 2.19754e-05 12.2458C-0.00248094 11.9611 0.209015 11.7716 0.534811 11.7691C0.83975 11.7666 1.14511 11.7637 1.44963 11.7712C1.56101 11.7741 1.58687 11.7387 1.58645 11.6322C1.58256 10.6844 1.58256 9.73639 1.58645 8.78829C1.58645 8.67589 1.55058 8.65049 1.44504 8.65257C1.14719 8.65923 0.849344 8.6559 0.55108 8.65257C0.209015 8.65299 -0.00331524 8.46731 0.000439128 8.17339C0.00461065 7.88987 0.214855 7.70711 0.546492 7.7042C0.844338 7.7017 1.1426 7.69754 1.44045 7.70669C1.56184 7.71002 1.58729 7.66839 1.58687 7.55515C1.58242 6.61427 1.58242 5.67325 1.58687 4.73209C1.58687 4.60969 1.54515 4.58346 1.43294 4.58596C1.13509 4.59304 0.836829 4.58971 0.538983 4.58596C0.209015 4.58638 0.000439128 4.40278 0.000439128 4.1176C0.000439128 3.83242 0.209015 3.64674 0.539817 3.643C0.831824 3.63925 1.12383 3.63259 1.41292 3.64591C1.56601 3.65299 1.59605 3.60012 1.59062 3.46023C1.57978 3.17672 1.58228 2.89279 1.58854 2.60928C1.61899 1.31036 2.57886 0.322849 3.87745 0.254572C4.17447 0.239585 4.47315 0.246246 4.77099 0.246246C8.20207 0.245829 11.6331 0.259984 15.0638 0.239585C16.5614 0.230842 17.472 1.32202 17.5592 2.36282C17.5617 2.39196 17.5667 2.41652 17.6009 2.4236V2.50686C17.5175 2.55307 17.5613 2.63176 17.5613 2.69212C17.5594 7.70461 17.5594 12.7172 17.5613 17.73C17.5613 17.7912 17.5196 17.8691 17.6009 17.9153V18.0402C17.52 18.0872 17.5492 18.1751 17.5346 18.2421C17.3377 19.153 16.795 19.7579 15.9202 20.0668C15.75 20.1263 15.5702 20.1563 15.3934 20.1996ZM16.6327 10.2313C16.6327 7.74638 16.6327 5.26151 16.6327 2.77664C16.6381 2.59678 16.6186 2.41704 16.5747 2.2425C16.3874 1.58097 15.8389 1.19088 15.0872 1.19046C11.4196 1.19046 7.75196 1.19046 4.08436 1.19046C3.9943 1.19016 3.90431 1.1953 3.81488 1.20586C3.14034 1.28455 2.61849 1.78871 2.55299 2.46356C2.51879 2.82077 2.54507 3.18463 2.53881 3.54433C2.53673 3.65674 2.60556 3.64175 2.67397 3.64175C2.986 3.64175 3.2997 3.63717 3.61006 3.64175C3.92042 3.64633 4.12566 3.83867 4.12441 4.11885C4.12316 4.39903 3.92167 4.58555 3.60464 4.58804C3.2876 4.59054 2.97891 4.59221 2.66896 4.58804C2.5701 4.58804 2.53839 4.61469 2.53839 4.71585C2.54173 5.67089 2.54173 6.62593 2.53839 7.58097C2.53839 7.68338 2.5701 7.70878 2.66771 7.70586C2.98683 7.70045 3.30595 7.69878 3.62466 7.70586C3.93168 7.71252 4.13233 7.9161 4.12524 8.19795C4.11732 8.46939 3.91666 8.65174 3.61423 8.6559C3.3022 8.65923 2.9885 8.66131 2.67814 8.6559C2.56926 8.65341 2.53881 8.68588 2.53965 8.79454C2.54326 9.74264 2.54326 10.6909 2.53965 11.6392C2.53965 11.7533 2.57761 11.7758 2.68106 11.7741C2.97932 11.7679 3.27759 11.7704 3.57543 11.7721C3.92084 11.7741 4.12983 11.9586 4.12691 12.2537C4.12357 12.5393 3.915 12.7213 3.58461 12.7233C3.27926 12.7254 2.97432 12.7279 2.66938 12.7233C2.56968 12.7233 2.5409 12.7504 2.54131 12.8507C2.54493 13.8058 2.54493 14.761 2.54131 15.7163C2.54131 15.8183 2.57427 15.8449 2.67188 15.8412C2.92217 15.8353 3.17247 15.8412 3.42276 15.8412C3.492 15.8412 3.56167 15.8412 3.63133 15.8412C3.92 15.8482 4.11857 16.0273 4.12941 16.2891C4.14026 16.5635 3.95212 16.775 3.65761 16.7887C3.33933 16.802 3.01979 16.7999 2.70108 16.7887C2.56926 16.7845 2.53798 16.8249 2.54298 16.9507C2.55299 17.2063 2.54549 17.4627 2.5459 17.7188C2.5459 18.6347 3.15369 19.2387 4.07143 19.2392C7.75294 19.2392 11.4344 19.2392 15.116 19.2392C15.2669 19.2396 15.4172 19.2204 15.5631 19.1821C16.2243 19.0048 16.6319 18.4457 16.6323 17.7071C16.6337 15.2159 16.6338 12.7239 16.6327 10.2313Z" fill="#6B7588"/>
<path id="Vector_2" d="M9.58256 14.9615H6.65081C6.22156 14.9615 6.04261 14.7754 6.05971 14.352C6.12896 12.648 7.21439 11.2929 8.80123 10.929C9.25811 10.8243 9.73139 10.8122 10.1931 10.8933C10.6547 10.9745 11.0954 11.1472 11.4889 11.4014C11.8825 11.6555 12.221 11.9859 12.4843 12.3729C12.7476 12.76 12.9305 13.1958 13.022 13.6547C13.0741 13.8911 13.103 14.132 13.1083 14.3741C13.1112 14.7787 12.9365 14.9606 12.5347 14.9611C11.5505 14.9625 10.5665 14.9626 9.58256 14.9615ZM9.58256 14.011C10.3718 14.011 11.1615 14.0077 11.9511 14.0144C12.0934 14.0144 12.141 13.9806 12.0901 13.8432C12.0801 13.8103 12.072 13.7768 12.0659 13.7429C11.7739 12.5693 10.7673 11.7808 9.5738 11.7908C8.35613 11.8004 7.35205 12.613 7.08048 13.8004C7.04252 13.9669 7.0663 14.0193 7.25527 14.0164C8.03117 14.0044 8.80707 14.011 9.58298 14.011H9.58256Z" fill="#6B7588"/>
<path id="Vector_3" d="M9.58221 10.071C8.97615 10.0628 8.39768 9.81683 7.97198 9.38624C7.54629 8.95564 7.30762 8.37507 7.30762 7.77017C7.30762 7.16527 7.54629 6.5847 7.97198 6.15411C8.39768 5.72351 8.97615 5.47753 9.58221 5.46939C10.8533 5.46939 11.9003 6.52059 11.8899 7.78412C11.8858 8.39218 11.6409 8.97394 11.2085 9.40239C10.7761 9.83084 10.1915 10.0712 9.58221 10.071ZM9.58221 9.11675C9.85074 9.11757 10.1135 9.03868 10.337 8.89011C10.5605 8.74154 10.7346 8.53001 10.8374 8.2824C10.9401 8.03479 10.9668 7.76228 10.9139 7.49952C10.8611 7.23676 10.7312 6.99561 10.5407 6.80672C10.3502 6.61784 10.1077 6.48975 9.84407 6.43873C9.58044 6.38772 9.30757 6.41608 9.06014 6.52022C8.8127 6.62437 8.60189 6.79958 8.45448 7.02359C8.30707 7.24761 8.22974 7.5103 8.2323 7.77829C8.23592 8.13367 8.37958 8.47334 8.6322 8.72382C8.88482 8.9743 9.2261 9.11546 9.58221 9.11675Z" fill="#6B7588"/>
</g>
</svg>
