<svg width="20" height="21" viewBox="0 0 20 21" fill="none" xmlns="http://www.w3.org/2000/svg">
<g id="F3dA5b.tif">
<path id="Vector" d="M0 10.8612V10.3676C0.117456 10.1266 0.250181 9.90406 0.446332 9.71691C3.37412 6.92247 6.29903 4.12555 9.22107 1.32617C9.73475 0.834659 10.2653 0.834659 10.7813 1.32823C11.3873 1.90818 11.9934 2.48799 12.5995 3.06766C12.6343 3.10057 12.6578 3.16103 12.731 3.14993C12.731 3.11579 12.7338 3.08206 12.731 3.04915C12.6786 2.55353 12.9248 2.2179 13.5164 2.22982C14.7654 2.2545 16.0151 2.23682 17.2645 2.23764C17.7613 2.23764 17.9692 2.46057 17.9692 2.98705C17.9692 4.66848 17.9684 6.34978 17.9668 8.03095C17.9631 8.08736 17.9723 8.14388 17.9934 8.19587C18.0146 8.24786 18.0472 8.29382 18.0886 8.32997C18.5839 8.79352 19.0729 9.26529 19.5619 9.73583C19.6464 9.81096 19.7232 9.89504 19.7913 9.98673C20.0262 10.3314 20.0654 10.7024 19.8904 11.0882C19.6989 11.5086 19.3646 11.697 18.9335 11.7052C18.5369 11.7126 18.1395 11.7171 17.7429 11.7023C17.5718 11.6957 17.5319 11.7434 17.5322 11.9232C17.5385 14.6847 17.54 17.446 17.5366 20.207C17.5366 20.6183 17.3893 20.8239 17.0307 20.9181H11.9496C11.5972 20.8244 11.4445 20.6187 11.4445 20.2275C11.4445 18.5749 11.4418 16.9218 11.448 15.2692C11.448 15.1133 11.4089 15.0804 11.2668 15.0816C10.4281 15.0893 9.58936 15.0893 8.75046 15.0816C8.59033 15.0816 8.54883 15.1174 8.54961 15.2902C8.55666 16.9354 8.55431 18.5807 8.55353 20.2279C8.55353 20.6191 8.40045 20.8248 8.04847 20.9185H2.96615C2.60791 20.8244 2.46031 20.6187 2.46031 20.2074C2.46031 17.4398 2.46122 14.6721 2.46305 11.9043C2.46305 11.7525 2.43799 11.6961 2.27708 11.6986C1.82879 11.7085 1.37893 11.7122 0.931425 11.6871C0.517197 11.6636 0.237652 11.4148 0.0732142 11.0179C0.0512891 10.9661 0.060294 10.8949 0 10.8612ZM1.41926 10.4663C1.9482 10.4663 2.42312 10.4663 2.89764 10.4663C3.42384 10.4663 3.63448 10.6855 3.63448 11.2314C3.63448 13.9797 3.6333 16.7281 3.63095 19.4765C3.63095 19.641 3.65875 19.6928 3.82671 19.6916C4.94594 19.6826 6.06542 19.6826 7.18517 19.6916C7.35431 19.6916 7.38093 19.6398 7.38093 19.4757C7.37466 17.8419 7.37662 16.2078 7.3774 14.5741C7.3774 14.0784 7.59548 13.8514 8.0704 13.851C9.35275 13.851 10.635 13.851 11.9171 13.851C12.4022 13.851 12.6163 14.0772 12.6167 14.5876C12.6167 16.2218 12.6191 17.8555 12.6132 19.4896C12.6132 19.6488 12.6492 19.692 12.8035 19.6908C13.9162 19.6834 15.0291 19.6834 16.1424 19.6908C16.3134 19.6908 16.3667 19.6558 16.3663 19.4629C16.3593 16.7074 16.3577 13.9516 16.3616 11.1956C16.3616 10.6991 16.5797 10.4676 17.0522 10.4651C17.5013 10.4622 17.9504 10.4651 18.3995 10.4626C18.4437 10.4626 18.5044 10.4959 18.5338 10.4215C18.0581 9.96575 17.5871 9.5055 17.1031 9.06087C16.8859 8.86056 16.7899 8.63352 16.7899 8.32791C16.7985 6.76946 16.7942 5.21059 16.7938 3.65172C16.7938 3.56165 16.8248 3.4691 16.6686 3.47075C15.79 3.47897 14.9114 3.47651 14.0325 3.47075C13.9318 3.47075 13.8986 3.49584 13.9013 3.60607C13.9087 3.89974 13.9052 4.19383 13.9013 4.48792C13.9037 4.56982 13.8975 4.65175 13.8829 4.73224C13.7733 5.21841 13.2467 5.36031 12.8685 5C11.968 4.14201 11.0647 3.2836 10.1721 2.4145C10.0292 2.27548 9.95556 2.28412 9.81696 2.41738C7.60514 4.54441 5.38992 6.668 3.17131 8.78817C2.60008 9.33439 2.03003 9.88349 1.41926 10.4663Z" fill="#6B7588"/>
</g>
</svg>
