<svg width="20" height="21" viewBox="0 0 20 21" fill="none" xmlns="http://www.w3.org/2000/svg">
<g id="9sn5lj.tif">
<path id="Vector" d="M19.9945 20.3213C19.8262 20.5421 19.5936 20.5589 19.3368 20.5589C13.0817 20.5545 6.82665 20.553 0.571565 20.5546C0.480736 20.5581 0.38979 20.5519 0.300268 20.5362C0.216839 20.5176 0.142003 20.4718 0.0876152 20.406C0.033227 20.3402 0.00239494 20.2581 2.18208e-06 20.1729C-0.000293306 20.0845 0.0294294 19.9987 0.084319 19.9293C0.139209 19.86 0.216024 19.8113 0.302226 19.7912C0.333664 19.7832 0.365769 19.7781 0.398139 19.7759C0.519889 19.7693 0.692141 19.8111 0.750472 19.7478C0.833075 19.6591 0.77631 19.4895 0.77631 19.3571C0.778398 17.1614 0.778398 14.9658 0.77631 12.7703C0.77631 12.3315 0.893754 12.2151 1.33221 12.2151H8.80951C9.24953 12.2151 9.36737 12.3323 9.36737 12.7679C9.36737 15.0415 9.36633 17.315 9.36424 19.5884C9.36424 19.7349 9.39242 19.7837 9.55058 19.781C10.1037 19.7697 10.6573 19.7728 11.2105 19.781C11.3303 19.781 11.369 19.7537 11.3608 19.6314C11.3507 19.4622 11.3507 19.2926 11.3608 19.1235C11.3663 19.0203 11.3322 18.9922 11.2308 18.9937C10.8339 18.9992 10.4365 19.0016 10.0395 18.9937C9.71892 18.9875 9.52749 18.7249 9.64297 18.4577C9.71853 18.2823 9.86612 18.2151 10.0517 18.2159C10.4357 18.2159 10.8198 18.2127 11.2038 18.2182C11.3119 18.2182 11.3659 18.2088 11.3624 18.076C11.3518 17.6994 11.3537 17.3223 11.3624 16.9457C11.3647 16.8285 11.3209 16.8093 11.2171 16.8109C10.8397 16.8164 10.462 16.8148 10.0846 16.8109C9.79957 16.8109 9.61479 16.6597 9.60931 16.4296C9.60382 16.1995 9.79252 16.0334 10.0865 16.0322C10.4639 16.0322 10.8417 16.0283 11.2191 16.0322C11.326 16.0322 11.3643 16.0088 11.362 15.8947C11.3549 15.5181 11.3549 15.1413 11.362 14.7644C11.362 14.6546 11.3334 14.6226 11.2222 14.6242C10.8307 14.6309 10.4403 14.6309 10.0509 14.6242C9.72636 14.6191 9.53336 14.3671 9.64062 14.0971C9.71148 13.9189 9.85633 13.8463 10.0423 13.8463C10.4338 13.8463 10.8233 13.8404 11.2136 13.8494C11.3389 13.8521 11.3647 13.8131 11.3624 13.6962C11.3545 13.3262 11.353 12.9559 11.3624 12.5859C11.3659 12.4573 11.3201 12.4386 11.2058 12.4405C10.8143 12.4468 10.4228 12.4491 10.0345 12.4405C9.72127 12.4339 9.5361 12.1831 9.63749 11.9189C9.70952 11.7302 9.86181 11.6623 10.0548 11.6626C10.4389 11.6626 10.8229 11.6583 11.2065 11.6654C11.322 11.6677 11.3631 11.6447 11.3608 11.5185C11.3514 11.1418 11.3541 10.7648 11.3608 10.3882C11.3608 10.287 11.335 10.2561 11.2316 10.2573C10.8346 10.2632 10.4377 10.2655 10.0407 10.2573C9.71931 10.2514 9.52827 9.98928 9.64258 9.72204C9.71814 9.54661 9.86533 9.47902 10.0509 9.47941C10.4349 9.47941 10.819 9.47355 11.2026 9.48293C11.3338 9.48605 11.3643 9.44386 11.3616 9.32079C11.3534 8.95705 11.3518 8.5933 11.3616 8.22956C11.3655 8.09438 11.3177 8.07328 11.1972 8.07328C10.826 8.08032 10.4533 8.07758 10.0842 8.07524C9.79134 8.07524 9.59991 7.91036 9.60774 7.67516C9.61557 7.43996 9.79761 7.29774 10.0838 7.29657C10.4616 7.29657 10.8389 7.29266 11.2163 7.29852C11.322 7.29852 11.3624 7.27743 11.3608 7.16178C11.3537 6.73982 11.3498 6.31709 11.3608 5.89552C11.3655 5.74159 11.3009 5.73572 11.1803 5.73612C9.807 5.7395 8.43369 5.74028 7.06037 5.73846C6.77381 5.73846 6.48724 5.74549 6.20107 5.73533C6.07188 5.73065 6.04173 5.76972 6.04213 5.89552C6.04722 7.02582 6.04565 8.15611 6.04487 9.28641C6.04487 9.54427 5.95561 9.69664 5.7767 9.75525C5.72658 9.77217 5.67346 9.77846 5.62076 9.77372C5.56806 9.76898 5.51693 9.75331 5.47065 9.72771C5.42436 9.70211 5.38394 9.66715 5.35198 9.62507C5.32001 9.58299 5.2972 9.53471 5.285 9.48332C5.27184 9.41328 5.26671 9.34197 5.26973 9.27078C5.26973 8.01038 5.26973 6.75011 5.26973 5.48997C5.26973 5.09068 5.39579 4.96448 5.79471 4.96448C6.99891 4.96448 8.2031 4.9594 9.4073 4.96956C9.58738 4.96956 9.61361 4.91721 9.61283 4.75546C9.60578 3.55366 9.61283 2.35187 9.60539 1.15008C9.60343 0.908235 9.66294 0.720308 9.87943 0.598801H10.0752C10.1609 0.639824 10.2486 0.676941 10.3328 0.721871C12.4311 1.83302 14.5298 2.94339 16.629 4.05298C16.8588 4.1741 16.957 4.32881 16.9558 4.5898C16.948 6.16198 16.9539 7.73376 16.9484 9.30594C16.9484 9.44972 16.9793 9.49152 17.1281 9.4884C17.637 9.47785 18.1436 9.48449 18.651 9.48449C19.1023 9.48449 19.2143 9.59701 19.2143 10.0506C19.2143 13.2283 19.213 16.4048 19.2104 19.5802C19.2104 19.7415 19.2456 19.8001 19.4097 19.7775C19.659 19.7435 19.8677 19.813 19.9969 20.0486L19.9945 20.3213ZM10.3895 1.63572C10.3895 2.72577 10.3895 3.78457 10.3868 4.84141C10.3868 4.95198 10.4283 4.96722 10.5226 4.96605C10.875 4.96175 11.2273 4.96605 11.5773 4.96605C12.0275 4.96605 12.143 5.08326 12.143 5.53178V15.5079C12.143 16.8718 12.1457 18.2362 12.1394 19.6001C12.1394 19.7458 12.1727 19.7857 12.3195 19.7794C12.6182 19.7669 12.9185 19.7646 13.2172 19.7794C13.3938 19.7884 13.4376 19.7384 13.4376 19.561C13.4313 16.3714 13.4299 13.1818 13.4333 9.9924C13.4333 9.6185 13.566 9.48449 13.9363 9.48449C14.6199 9.48449 15.3034 9.48098 15.9865 9.48723C16.1204 9.48723 16.1748 9.47238 16.1741 9.31454C16.1667 7.82675 16.1667 6.3391 16.1741 4.85157C16.1741 4.72889 16.1322 4.66989 16.028 4.61715C15.0274 4.09205 14.0289 3.5646 13.0324 3.03482L10.3895 1.63572ZM14.2143 15.0098V19.6079C14.2143 19.6935 14.1834 19.7802 14.3392 19.7794C15.6604 19.7728 16.9813 19.7747 18.3022 19.7775C18.3992 19.7775 18.4407 19.7595 18.4349 19.6517C18.4247 19.4765 18.4247 19.3009 18.4349 19.1258C18.4423 19.0051 18.3906 18.991 18.2888 18.993C17.9635 18.9988 17.6382 18.998 17.3129 18.993C17.0294 18.9894 16.858 18.8324 16.8635 18.5921C16.8693 18.3604 17.0377 18.217 17.3152 18.2147C17.6343 18.2119 17.9533 18.2088 18.272 18.217C18.3941 18.2202 18.4392 18.1936 18.4353 18.0607C18.4251 17.7042 18.4251 17.3471 18.4353 16.9894C18.4392 16.848 18.4082 16.805 18.2575 16.8074C17.6398 16.8175 17.0212 16.8105 16.4031 16.8121C16.2136 16.8121 16.0547 16.7578 15.9724 16.5749C15.8491 16.3057 16.0484 16.0354 16.378 16.033C16.9899 16.0287 17.6014 16.026 18.2129 16.0357C18.3801 16.0381 18.4478 16.01 18.4384 15.8213C18.4204 15.4911 18.4247 15.159 18.4384 14.8281C18.4443 14.6718 18.4133 14.6206 18.2426 14.6242C17.6311 14.6363 17.0193 14.6277 16.4078 14.6292C16.2265 14.6292 16.0715 14.5808 15.9822 14.4116C15.8401 14.1424 16.0406 13.8529 16.3768 13.8506C17.0016 13.8459 17.6265 13.8459 18.2513 13.8506C18.384 13.8506 18.447 13.8385 18.4388 13.6783C18.4239 13.3219 18.4266 12.9641 18.4388 12.607C18.4435 12.4644 18.3957 12.4401 18.265 12.4417C17.6468 12.4487 17.0287 12.4437 16.4105 12.4456C16.2293 12.4456 16.0738 12.3983 15.9838 12.2292C15.8401 11.9607 16.0398 11.6693 16.3753 11.6666C17.0126 11.6619 17.6502 11.6625 18.2881 11.6685C18.4118 11.6685 18.4396 11.6353 18.4372 11.5169C18.4294 11.1536 18.427 10.7894 18.4372 10.4261C18.4415 10.2862 18.3981 10.2585 18.2654 10.2589C16.9766 10.2643 15.6881 10.2643 14.3999 10.2589C14.2433 10.2589 14.2116 10.3007 14.212 10.4499C14.2167 11.9705 14.2143 13.4919 14.2143 15.0098ZM5.07517 12.9938C3.96219 12.9938 2.8492 12.9969 1.73622 12.9899C1.59059 12.9899 1.55575 13.0235 1.55614 13.1692C1.56162 15.3131 1.56162 17.4567 1.55614 19.6001C1.55614 19.7454 1.58981 19.7798 1.73583 19.7794C3.96179 19.7745 6.18789 19.7745 8.41411 19.7794C8.55974 19.7794 8.59419 19.7458 8.5938 19.6001C8.58832 17.4567 8.58832 15.3132 8.5938 13.1696C8.5938 13.0242 8.56053 12.9891 8.41411 12.9899C7.30113 12.9969 6.18815 12.9938 5.07517 12.9938Z" fill="#6B7588"/>
<path id="Vector_2" d="M5.67633 10.5644C5.72704 10.5665 5.77682 10.5787 5.82278 10.6002C5.86874 10.6217 5.90997 10.6521 5.94409 10.6896C5.9782 10.7271 6.00452 10.771 6.02152 10.8187C6.03852 10.8664 6.04585 10.9171 6.04311 10.9676C6.04036 11.0182 6.02759 11.0678 6.00553 11.1134C5.98346 11.159 5.95255 11.1998 5.91457 11.2334C5.8766 11.267 5.83232 11.2928 5.7843 11.3092C5.73628 11.3256 5.68548 11.3323 5.63484 11.329C5.53407 11.3224 5.43998 11.2764 5.37298 11.201C5.30598 11.1256 5.27147 11.0269 5.27693 10.9262C5.28239 10.8256 5.32739 10.7312 5.40216 10.6634C5.47693 10.5957 5.57544 10.5601 5.67633 10.5644Z" fill="#6B7588"/>
<path id="Vector_3" d="M13.8232 8.09595C13.8232 8.22566 13.8295 8.35576 13.8232 8.48665C13.8087 8.72498 13.6439 8.88282 13.4255 8.87735C13.2156 8.87227 13.0555 8.71716 13.0469 8.48665C13.0375 8.22097 13.0367 7.95451 13.0469 7.68923C13.0473 7.58726 13.0881 7.48959 13.1605 7.41756C13.2328 7.34553 13.3307 7.30498 13.4329 7.30478C13.6404 7.30478 13.8052 7.46106 13.8209 7.68845C13.8303 7.82402 13.8228 7.96194 13.8228 8.09673L13.8232 8.09595Z" fill="#6B7588"/>
<path id="Vector_4" d="M15.3854 8.0897C15.3854 8.21941 15.3912 8.34951 15.3854 8.4804C15.372 8.72107 15.2123 8.87969 14.9939 8.87813C14.7833 8.87618 14.6192 8.72185 14.6098 8.49368C14.5993 8.2284 14.5997 7.96194 14.6098 7.69626C14.6181 7.46888 14.7833 7.30947 14.9904 7.30556C15.2041 7.30166 15.372 7.46575 15.3857 7.70212C15.3916 7.82988 15.3854 7.95999 15.3854 8.0897Z" fill="#6B7588"/>
<path id="Vector_5" d="M13.8223 5.75604C13.8223 5.8795 13.8298 6.00335 13.8223 6.12603C13.8051 6.35381 13.6407 6.51048 13.4308 6.50891C13.221 6.50735 13.0562 6.35068 13.046 6.12173C13.0351 5.88224 13.0358 5.64118 13.046 5.40129C13.055 5.1739 13.2198 5.01059 13.4261 5.00747C13.6387 5.00239 13.8082 5.16883 13.8223 5.40559C13.8294 5.5228 13.8223 5.64001 13.8223 5.75721V5.75604Z" fill="#6B7588"/>
<path id="Vector_6" d="M15.3853 5.78496C15.3853 5.89513 15.3915 6.00609 15.3853 6.11588C15.3696 6.346 15.2122 6.50306 15.0032 6.50658C14.9525 6.50735 14.9022 6.49816 14.8552 6.47954C14.8081 6.46091 14.7651 6.43321 14.7288 6.39802C14.6924 6.36283 14.6634 6.32083 14.6433 6.27443C14.6232 6.22803 14.6125 6.17814 14.6117 6.1276C14.5999 5.88146 14.6003 5.63376 14.6117 5.38762C14.6131 5.2852 14.6551 5.1875 14.7284 5.11585C14.8018 5.04419 14.9005 5.00439 15.0032 5.00512C15.2087 5.00747 15.3727 5.16882 15.3872 5.39582C15.3919 5.52475 15.3853 5.65485 15.3853 5.78496Z" fill="#6B7588"/>
<path id="Vector_7" d="M15.4852 18.2166C15.5885 18.2175 15.6871 18.2593 15.7594 18.3327C15.8318 18.4062 15.8719 18.5053 15.8711 18.6083C15.8702 18.7113 15.8283 18.8097 15.7547 18.882C15.6811 18.9542 15.5818 18.9942 15.4786 18.9933C15.4275 18.9929 15.377 18.9824 15.3299 18.9625C15.2829 18.9426 15.2402 18.9136 15.2044 18.8773C15.1686 18.8409 15.1403 18.7978 15.1211 18.7505C15.102 18.7033 15.0924 18.6527 15.0928 18.6017C15.0932 18.5507 15.1037 18.5003 15.1237 18.4533C15.1436 18.4064 15.1727 18.3638 15.2091 18.328C15.2456 18.2923 15.2887 18.264 15.3361 18.2449C15.3835 18.2258 15.4341 18.2162 15.4852 18.2166Z" fill="#6B7588"/>
<path id="Vector_8" d="M4.61315 14.9035C4.61315 15.1176 4.61628 15.3333 4.61315 15.5458C4.60767 15.8193 4.47104 15.9791 4.20131 15.9857C3.74015 15.9975 3.27872 15.9975 2.81704 15.9857C2.55474 15.9799 2.40911 15.8295 2.40363 15.5669C2.39385 15.1067 2.39306 14.6456 2.40363 14.1854C2.41029 13.9119 2.56531 13.7771 2.84327 13.7744C3.28538 13.7697 3.72736 13.7697 4.16921 13.7744C4.46321 13.7775 4.60689 13.9264 4.61198 14.2221C4.61589 14.4495 4.61315 14.6765 4.61315 14.9035ZM3.52914 14.5519C3.17994 14.5519 3.17994 14.5519 3.17994 14.9058C3.18327 14.951 3.18327 14.9963 3.17994 15.0414C3.15997 15.1774 3.21556 15.2309 3.35102 15.2102C3.39011 15.2072 3.42937 15.2072 3.46846 15.2102C3.8345 15.2102 3.8345 15.2102 3.8345 14.8527C3.83215 14.553 3.83215 14.553 3.52914 14.553V14.5519Z" fill="#6B7588"/>
<path id="Vector_9" d="M4.61334 17.8986C4.61334 18.119 4.61687 18.3397 4.61334 18.5601C4.60747 18.8406 4.45988 18.9898 4.17606 18.9937C3.72742 18.9992 3.27878 18.9992 2.83015 18.9937C2.5659 18.9898 2.41204 18.8496 2.40578 18.5874C2.39404 18.1204 2.39404 17.6534 2.40578 17.1864C2.41244 16.9262 2.5659 16.7863 2.8321 16.7816C3.28074 16.7738 3.72925 16.7738 4.17763 16.7816C4.4681 16.7863 4.60825 16.941 4.61374 17.2375C4.61569 17.4571 4.61334 17.6779 4.61334 17.8986ZM3.48431 18.2159C3.8339 18.2159 3.8339 18.2159 3.8339 17.8642C3.8339 17.5575 3.8339 17.5575 3.53403 17.5575C3.1817 17.5575 3.1817 17.5575 3.1817 17.9111C3.17974 18.2159 3.17974 18.2159 3.48431 18.2159Z" fill="#6B7588"/>
<path id="Vector_10" d="M6.68914 13.7736C6.90994 13.7736 7.13113 13.7701 7.35192 13.7736C7.63457 13.7791 7.79116 13.9205 7.79743 14.2034C7.80722 14.657 7.808 15.1113 7.79743 15.5653C7.79077 15.8349 7.63575 15.9814 7.36328 15.9865C6.91516 15.9946 6.46678 15.9946 6.01815 15.9865C5.7355 15.9814 5.58752 15.8255 5.58321 15.5462C5.57903 15.105 5.57903 14.6639 5.58321 14.2229C5.58556 13.9299 5.7351 13.7798 6.02676 13.7736C6.24716 13.7701 6.46796 13.7736 6.68914 13.7736ZM6.68092 14.555C6.36226 14.555 6.36226 14.555 6.36226 14.8804C6.36226 15.2125 6.36226 15.2125 6.69658 15.2125C7.01956 15.2125 7.01956 15.2125 7.01956 14.8844C7.01956 14.5562 7.01956 14.553 6.68092 14.553V14.555Z" fill="#6B7588"/>
<path id="Vector_11" d="M5.58145 17.8802C5.58145 17.6661 5.5791 17.4505 5.58145 17.2379C5.58575 16.9441 5.7306 16.7855 6.01912 16.7808C6.46776 16.7733 6.91627 16.7733 7.36465 16.7808C7.63594 16.7855 7.79019 16.9328 7.79528 17.2039C7.80624 17.6579 7.80624 18.1119 7.79528 18.5659C7.78862 18.8464 7.63046 18.9906 7.34742 18.9933C6.90531 18.998 6.46333 18.998 6.02147 18.9933C5.73178 18.9898 5.58419 18.8347 5.57988 18.5413C5.57871 18.3213 5.58145 18.1022 5.58145 17.8802ZM6.6776 18.2158C7.01936 18.2158 7.01936 18.2158 7.01936 17.8697V17.8502C7.01936 17.5579 7.01936 17.5579 6.71909 17.5579C6.36206 17.5579 6.36206 17.5579 6.36206 17.906C6.36245 18.2158 6.36245 18.2158 6.67799 18.2158H6.6776Z" fill="#6B7588"/>
</g>
</svg>
