<svg width="20" height="21" viewBox="0 0 20 21" fill="none" xmlns="http://www.w3.org/2000/svg">
<g id="P221Hq.tif">
<path id="Vector" d="M0 7.54128C0.12251 7.39394 0.283749 7.3533 0.467118 7.37831C0.893532 7.43615 1.24091 7.30015 1.58196 7.03518C2.22099 6.53768 2.89598 6.0863 3.55279 5.61108C3.67209 5.52019 3.81915 5.47222 3.96972 5.47508C4.78421 5.48094 5.5991 5.47508 6.41359 5.47938C6.51758 5.48341 6.62012 5.45422 6.70603 5.39614C7.66635 4.7513 8.62904 4.10973 9.59411 3.47141C9.70911 3.39559 9.74033 3.31509 9.73954 3.18573C9.734 2.48228 9.73954 1.78234 9.73519 1.08084C9.73519 0.917877 9.7589 0.770933 9.94069 0.729117C10.1162 0.690036 10.2489 0.7596 10.3098 0.936636C10.3493 1.04841 10.4465 1.02379 10.526 1.02066C10.7307 1.01167 10.9212 0.940153 11.1188 0.885831C11.465 0.789301 11.8115 0.742405 12.1621 0.872543C12.3636 0.947578 12.4687 1.07068 12.46 1.29579C12.4482 1.60843 12.46 1.92108 12.4569 2.23099C12.4537 2.5409 12.27 2.67612 11.9827 2.55106C11.7135 2.43382 11.4547 2.50065 11.1942 2.56747C10.9338 2.6343 10.6829 2.73943 10.407 2.7152C10.3256 2.70777 10.3256 2.75428 10.326 2.81056C10.326 2.97274 10.3311 3.13532 10.326 3.2975C10.3224 3.37996 10.373 3.40966 10.4284 3.44562C10.7303 3.64102 11.033 3.83447 11.3334 4.03183C11.5309 4.16119 11.5744 4.3136 11.4689 4.47071C11.3634 4.62781 11.2089 4.64344 11.0081 4.51448C10.7222 4.33054 10.4373 4.14529 10.1533 3.95875C10.077 3.90872 10.0146 3.88528 9.9233 3.94624C8.23846 5.07411 6.5527 6.19977 4.86601 7.32321C4.85692 7.32946 4.85297 7.34392 4.83954 7.36659H15.2288C15.1608 7.31383 15.115 7.27436 15.0652 7.24075C14.187 6.64854 13.3085 6.05725 12.4296 5.46687C12.3229 5.39535 12.2237 5.31993 12.2296 5.17728C12.2305 5.12495 12.2456 5.07382 12.2733 5.02925C12.3011 4.98467 12.3404 4.94831 12.3873 4.92396C12.4341 4.89962 12.4868 4.88819 12.5396 4.89089C12.5925 4.89359 12.6436 4.9103 12.6877 4.93928C12.9038 5.07372 13.1141 5.21871 13.322 5.36604C13.4262 5.44335 13.5537 5.48357 13.684 5.48016C14.4854 5.47352 15.2869 5.48016 16.0887 5.47469C16.2264 5.47186 16.361 5.51495 16.4709 5.59701C17.251 6.15821 18.0354 6.71316 18.8144 7.27748C18.9058 7.34961 19.0208 7.38629 19.1376 7.38065C19.3277 7.37323 19.5186 7.37557 19.7091 7.38065C19.8881 7.38613 19.9944 7.48461 19.996 7.66086C20.0019 8.21307 20.0007 8.76528 19.996 9.3175C19.996 9.49258 19.898 9.60513 19.7194 9.60552C19.5866 9.60552 19.5636 9.66649 19.5684 9.77122C19.6079 10.6216 19.5826 11.4728 19.5842 12.3232C19.5881 14.642 19.5888 16.9608 19.5862 19.2796C19.5862 19.5781 19.5953 19.8771 19.5984 20.1757C19.6024 20.2688 19.5866 20.3617 19.5519 20.4483C19.5173 20.535 19.4646 20.6135 19.3973 20.6786H0.632309C0.562755 20.5915 0.462771 20.527 0.463562 20.393C0.467118 19.7696 0.463562 19.1459 0.467514 18.5222C0.467514 18.349 0.579353 18.2662 0.747706 18.2603C0.939769 18.2541 1.0441 18.3647 1.04608 18.5882C1.05003 19.0431 1.04805 19.498 1.04608 19.9525C1.04608 20.033 1.03422 20.0995 1.15989 20.0991C2.27724 20.0947 3.39431 20.0947 4.51113 20.0991C4.61072 20.0991 4.63245 20.0663 4.62969 19.976C4.62376 19.7747 4.62218 19.5731 4.62969 19.3718C4.6372 19.1705 4.74271 19.065 4.95138 19.0556C5.08909 19.0451 5.22743 19.0451 5.36514 19.0556C5.52994 19.0736 5.56906 19.0193 5.56827 18.8567C5.56248 16.4858 5.56103 14.1149 5.56392 11.744C5.56392 11.5826 5.61886 11.3661 5.53587 11.275C5.43904 11.1676 5.21536 11.252 5.04741 11.2403C5.03437 11.2403 5.02093 11.2403 5.00789 11.2403C4.73125 11.2368 4.63008 11.1371 4.62811 10.8608C4.62574 10.5036 4.61941 10.146 4.63127 9.7892C4.63601 9.64187 4.59531 9.6063 4.44711 9.60708C3.38285 9.61412 2.3182 9.61568 1.25395 9.60708C1.07453 9.60708 1.04212 9.65633 1.04252 9.82203C1.04805 12.2067 1.04911 14.5907 1.04568 16.9738C1.04761 17.0451 1.04497 17.1166 1.03778 17.1876C1.01683 17.3521 0.903412 17.426 0.750867 17.424C0.589628 17.4221 0.474232 17.3423 0.465142 17.1661C0.461586 17.1012 0.462376 17.0359 0.462376 16.9707V9.85798C0.462376 9.806 0.460005 9.75403 0.462376 9.70166C0.465538 9.63561 0.436293 9.60044 0.369901 9.61216C0.209452 9.6403 0.106702 9.54377 0.000395193 9.45193L0 7.54128ZM7.32609 18.9161C7.32609 19.0248 7.35336 19.0642 7.46718 19.0572C7.61803 19.049 7.76922 19.049 7.92007 19.0572C8.10502 19.0666 8.21093 19.169 8.22318 19.3519C8.23148 19.4816 8.22595 19.6117 8.22634 19.7427C8.22634 20.1022 8.22634 20.0944 8.59782 20.1022C8.73219 20.1046 8.77448 20.0745 8.77289 19.9342C8.7646 19.2389 8.76736 18.5437 8.76973 17.8484C8.76973 17.4006 8.7559 16.9496 8.78791 16.5044C8.82229 16.0237 9.09893 15.6837 9.54471 15.4969C10.3667 15.1526 11.2618 15.7459 11.2709 16.6451C11.2808 17.6651 11.2733 18.6851 11.2733 19.7052C11.2733 20.1276 11.2733 20.1237 11.7048 20.1018C11.8028 20.0967 11.8254 20.0627 11.8234 19.9752C11.8179 19.7868 11.8202 19.5985 11.8234 19.4101C11.8266 19.1557 11.9226 19.0615 12.1838 19.0564C12.3023 19.0487 12.4212 19.0496 12.5395 19.0591C12.7236 19.0826 12.7636 19.0119 12.7632 18.8368C12.7574 16.3744 12.756 13.9123 12.7592 11.4505C12.7574 11.4181 12.7574 11.3856 12.7592 11.3532C12.7687 11.2704 12.7367 11.2379 12.6497 11.241C12.5119 11.2493 12.3737 11.2485 12.236 11.2387C12.1855 11.2362 12.1366 11.2209 12.0939 11.1942C12.0513 11.1675 12.0163 11.1303 11.9924 11.0863C11.9686 11.0423 11.9566 10.9929 11.9577 10.943C11.9589 10.8931 11.973 10.8443 11.9989 10.8014C12.0664 10.6736 12.185 10.6556 12.3174 10.656C13.0995 10.6584 13.8816 10.656 14.6632 10.6599C14.7862 10.6599 14.8356 10.6376 14.8284 10.5036C14.8152 10.2765 14.8152 10.0488 14.8284 9.82164C14.8387 9.65789 14.802 9.60513 14.6198 9.60591C13.0888 9.6149 11.5578 9.61099 10.0268 9.61099H8.6081C7.53713 9.61099 6.46576 9.61412 5.39478 9.60747C5.24896 9.60747 5.19995 9.63991 5.20904 9.7892C5.22326 10.0162 5.22326 10.2438 5.20904 10.4708C5.19877 10.6294 5.25409 10.6611 5.40664 10.6603C6.8325 10.6548 8.25835 10.6572 9.68421 10.6572C10.0126 10.6572 10.3414 10.6529 10.6698 10.6572C10.9144 10.6619 11.0464 10.8917 10.9299 11.0941C10.8532 11.2282 10.7251 11.2379 10.5888 11.2379C9.58344 11.2379 8.57806 11.2446 7.57309 11.2313C7.35968 11.2285 7.3253 11.2934 7.3257 11.4869M19.0013 14.8576C19.0013 13.1685 19.0013 11.4794 19.0013 9.79037C19.0013 9.67626 19.0056 9.60239 18.8432 9.60357C17.7462 9.61138 16.6487 9.60943 15.5516 9.60357C15.4378 9.60357 15.4094 9.63718 15.4113 9.74543C15.4173 10.1288 15.4161 10.5122 15.4113 10.8952C15.4094 11.1199 15.2987 11.2278 15.0727 11.2348C14.9481 11.2436 14.823 11.2436 14.6984 11.2348C14.5403 11.2172 14.5064 11.2739 14.5068 11.4255C14.5123 13.2772 14.5103 15.1288 14.5103 16.9801C14.5103 17.6167 14.5131 18.2537 14.5075 18.8903C14.5075 19.0115 14.5301 19.0677 14.6656 19.0548C14.7972 19.0463 14.9292 19.0457 15.0608 19.0529C15.3027 19.0591 15.4078 19.1635 15.4117 19.3999C15.4149 19.5754 15.4216 19.7517 15.4094 19.926C15.4003 20.0592 15.4355 20.0995 15.5781 20.0987C16.6554 20.0922 17.7328 20.0922 18.8104 20.0987C18.9685 20.0987 19.0017 20.0545 19.0009 19.9056C18.9973 18.2267 18.9993 16.5435 18.9993 14.8607L19.0013 14.8576ZM9.99483 9.02947H19.1582C19.2041 9.02673 19.2502 9.02673 19.2961 9.02947C19.3921 9.04119 19.4194 9.00094 19.417 8.90871C19.4111 8.67423 19.402 8.43974 19.419 8.2076C19.4336 8.0122 19.3819 7.95162 19.1696 7.95162C13.0542 7.9584 6.93867 7.96022 0.823187 7.9571C0.790429 7.95944 0.757542 7.95944 0.724784 7.9571C0.608202 7.93873 0.583305 7.99305 0.586467 8.09857C0.597861 8.33215 0.597201 8.56616 0.584491 8.79968C0.571449 8.98023 0.613735 9.03416 0.811727 9.03416C3.87289 9.02713 6.93393 9.02556 9.99483 9.02947ZM10.6844 18.2549C10.6844 17.7288 10.6864 17.2028 10.6844 16.6768C10.6825 16.2754 10.3979 15.9788 10.0213 15.9792C9.64469 15.9796 9.35857 16.2641 9.3562 16.6572C9.34988 17.7288 9.3562 18.8008 9.35146 19.8724C9.35146 19.9873 9.39098 20.0139 9.49965 20.0119C9.8411 20.0061 10.1829 20.0041 10.5244 20.0119C10.652 20.0151 10.69 19.9815 10.6884 19.8517C10.6801 19.321 10.6848 18.7875 10.6844 18.2549ZM6.74042 15.2023V11.7135C6.74042 11.3173 6.74042 11.327 6.34917 11.3137C6.1824 11.3083 6.14763 11.3556 6.14802 11.5158C6.15408 13.9002 6.1554 16.2842 6.15197 18.6676C6.15197 19.056 6.15197 19.0478 6.55309 19.0584C6.71117 19.0627 6.74437 19.0146 6.74397 18.8657C6.73765 17.6448 6.74042 16.4235 6.74042 15.2023ZM13.3401 15.1812V18.6672C13.3401 19.058 13.3401 19.0478 13.7251 19.058C13.8851 19.0631 13.931 19.0267 13.9306 18.8602C13.9242 16.4714 13.9228 14.0823 13.9262 11.6932C13.9262 11.3149 13.9262 11.3239 13.5369 11.3122C13.3686 11.3071 13.3354 11.3602 13.3362 11.5181C13.3417 12.7402 13.3386 13.9607 13.3386 15.1812H13.3401ZM5.71291 6.05973C5.10313 6.05973 4.55381 6.05973 4.0041 6.05973C3.9302 6.05973 3.88198 6.09881 3.82982 6.13789C3.29789 6.51723 2.76648 6.89736 2.23561 7.27826C2.20399 7.30093 2.14471 7.31148 2.16131 7.38183C2.66005 7.38183 3.15799 7.38183 3.65593 7.38183C3.72124 7.37912 3.78397 7.35584 3.83495 7.31539L5.71291 6.05973ZM14.3589 6.05973C15.0256 6.50915 15.6449 6.92693 16.265 7.34353C16.2912 7.36223 16.3221 7.37345 16.3543 7.37597C16.868 7.37597 17.3838 7.37597 17.9181 7.37597C17.9051 7.35307 17.8896 7.3317 17.8718 7.31226C17.3146 6.91338 16.757 6.51476 16.199 6.11639C16.1626 6.0906 16.129 6.05816 16.078 6.05816C15.52 6.06051 14.966 6.06012 14.3554 6.06012L14.3589 6.05973ZM6.42742 20.0983C6.78863 20.0983 7.14984 20.0948 7.51065 20.1003C7.61379 20.1003 7.65568 20.0717 7.64264 19.9686C7.63522 19.9167 7.63522 19.8641 7.64264 19.8122C7.66635 19.6649 7.60707 19.627 7.45967 19.6289C6.81629 19.6375 6.17292 19.6325 5.52954 19.6325C5.20469 19.6325 5.21339 19.6325 5.20825 19.9498C5.20825 20.0737 5.24777 20.1022 5.36396 20.0999C5.71845 20.0936 6.07293 20.0983 6.42742 20.0983ZM13.6199 20.0983C13.9736 20.0983 14.3277 20.0948 14.6814 20.1006C14.7862 20.1006 14.8431 20.0838 14.8257 19.9662C14.8176 19.9144 14.8176 19.8617 14.8257 19.8099C14.8502 19.6626 14.7905 19.6278 14.6443 19.6297C14.0021 19.6383 13.3599 19.6332 12.7177 19.6332C12.3984 19.6332 12.4059 19.6332 12.4016 19.9545C12.4016 20.0823 12.4442 20.1018 12.5596 20.0999C12.9133 20.0936 13.267 20.0979 13.6211 20.0979L13.6199 20.0983ZM10.3248 1.81869C10.3248 2.17589 10.3248 2.17628 10.6516 2.12547C10.7097 2.11609 10.767 2.10202 10.8243 2.08639C11.1405 2.01096 11.4503 1.89099 11.7855 1.91678C11.8289 1.91991 11.8645 1.91678 11.8645 1.86129C11.8625 1.70692 11.9119 1.51777 11.8396 1.40795C11.7673 1.29813 11.574 1.37551 11.4341 1.40443C11.3895 1.41342 11.3452 1.42514 11.3009 1.43687C11.0543 1.50135 10.8093 1.60257 10.5544 1.58694C10.3252 1.57443 10.2893 1.66705 10.3248 1.81869Z" fill="#6B7588"/>
<path id="Vector_2" d="M2.40176 13.0544C2.40176 12.7296 2.40176 12.4053 2.40176 12.0805C2.40492 11.5842 2.75308 11.2231 3.22455 11.2235C3.68416 11.2235 4.03944 11.5795 4.04813 12.0645C4.05643 12.512 4.04813 12.9602 4.04813 13.4081C4.04813 13.6426 4.05287 13.877 4.04813 14.1092C4.0422 14.3362 3.93313 14.4394 3.70352 14.4414C3.38184 14.4445 3.06015 14.4445 2.73846 14.4414C2.50806 14.439 2.40334 14.3347 2.40176 14.1061C2.39978 13.7555 2.40176 13.4049 2.40176 13.0544ZM2.98901 12.8906V13.5323C2.98901 13.8841 2.98901 13.8794 3.34785 13.863C3.44546 13.8587 3.46641 13.8262 3.46641 13.7375C3.46285 13.1865 3.46641 12.6354 3.46641 12.0848C3.46641 11.9285 3.39606 11.8198 3.22929 11.8046C3.08426 11.7909 2.99218 11.9066 2.99218 12.0934C2.98704 12.3591 2.98901 12.6249 2.98901 12.8906Z" fill="#6B7588"/>
<path id="Vector_3" d="M2.40176 17.2653C2.40176 16.9406 2.40176 16.6162 2.40176 16.2914C2.40492 15.7955 2.75387 15.4317 3.22415 15.434C3.68455 15.434 4.03944 15.79 4.04813 16.275C4.05643 16.7229 4.04813 17.1708 4.04813 17.6186C4.04813 17.8531 4.05248 18.0876 4.04813 18.3197C4.04379 18.5519 3.93313 18.65 3.70352 18.6519C3.38184 18.6548 3.06015 18.6548 2.73846 18.6519C2.50806 18.6496 2.40334 18.5452 2.40176 18.317C2.39978 17.9664 2.40176 17.6159 2.40176 17.2653ZM2.98901 17.1129V17.7546C2.98901 18.0794 2.98901 18.0751 3.32019 18.0731C3.4257 18.0731 3.46838 18.0532 3.4668 17.9364C3.46048 17.392 3.4668 16.8476 3.46325 16.3032C3.46325 16.123 3.35931 16.0011 3.21704 16.0148C3.05145 16.0308 2.98546 16.1351 2.98783 16.2965C2.99218 16.5685 2.98901 16.8405 2.98901 17.1129Z" fill="#6B7588"/>
<path id="Vector_4" d="M10.0131 12.0911C10.2406 12.0897 10.4634 12.155 10.6533 12.2789C10.8432 12.4027 10.9918 12.5795 11.0801 12.7869C11.1684 12.9942 11.1925 13.2228 11.1494 13.4437C11.1063 13.6646 10.9979 13.8679 10.838 14.0279C10.678 14.1879 10.4737 14.2973 10.2508 14.3424C10.0279 14.3876 9.79654 14.3663 9.58589 14.2813C9.37523 14.1963 9.1948 14.0515 9.06741 13.8651C8.94001 13.6787 8.87139 13.4591 8.87021 13.2342C8.86827 13.0846 8.89642 12.9362 8.953 12.7974C9.00959 12.6587 9.09349 12.5325 9.19984 12.4262C9.30618 12.3198 9.43284 12.2354 9.57246 12.1779C9.71207 12.1203 9.86186 12.0908 10.0131 12.0911ZM9.99928 13.7833C10.0743 13.788 10.1495 13.7778 10.2204 13.7533C10.2914 13.7289 10.3567 13.6906 10.4125 13.6408C10.4683 13.591 10.5134 13.5307 10.5452 13.4633C10.5771 13.396 10.5949 13.3231 10.5978 13.2488C10.6007 13.1745 10.5885 13.1004 10.562 13.0309C10.5354 12.9614 10.4951 12.8978 10.4433 12.8439C10.3916 12.79 10.3294 12.7469 10.2606 12.7172C10.1917 12.6874 10.1175 12.6716 10.0424 12.6706C9.8965 12.6702 9.75616 12.7257 9.65087 12.8255C9.54559 12.9254 9.48358 13.0617 9.47789 13.2058C9.47221 13.3499 9.5233 13.4906 9.6204 13.5983C9.7175 13.7059 9.85304 13.7721 9.99849 13.7829L9.99928 13.7833Z" fill="#6B7588"/>
<path id="Vector_5" d="M15.9204 13.0579C15.9204 12.7206 15.916 12.383 15.9204 12.0457C15.9279 11.5768 16.28 11.225 16.7369 11.225C16.8439 11.2235 16.9502 11.243 17.0495 11.2824C17.1488 11.3218 17.2393 11.3803 17.3156 11.4545C17.3919 11.5288 17.4525 11.6172 17.4939 11.7148C17.5353 11.8124 17.5567 11.9172 17.5569 12.0231C17.5715 12.7238 17.5652 13.4249 17.5604 14.126C17.5604 14.3405 17.445 14.4406 17.2237 14.4425C16.9026 14.4462 16.581 14.4462 16.2591 14.4425C16.0271 14.4402 15.9224 14.3386 15.92 14.1108C15.9176 13.759 15.9204 13.4085 15.9204 13.0579ZM16.5041 12.9016V13.5238C16.5041 13.895 16.5041 13.8911 16.8768 13.8626C16.9677 13.8556 16.9835 13.8216 16.9831 13.7434C16.9807 13.1861 16.9831 12.6288 16.9807 12.0715C16.9807 11.9152 16.8993 11.8007 16.7341 11.805C16.5689 11.8093 16.5021 11.9254 16.5037 12.0852C16.5061 12.358 16.5045 12.6304 16.5041 12.9024V12.9016Z" fill="#6B7588"/>
<path id="Vector_6" d="M17.5639 17.2657C17.5639 17.6096 17.5666 17.9535 17.5639 18.2978C17.5611 18.5515 17.4583 18.6496 17.2046 18.6519C16.8885 18.6539 16.5747 18.6547 16.2593 18.6519C16.0281 18.6496 15.9226 18.548 15.9218 18.3186C15.9195 17.6245 15.9159 16.9296 15.9238 16.2356C15.9249 16.0255 16.0087 15.8242 16.1575 15.6743C16.3062 15.5244 16.5082 15.4377 16.7205 15.4326C16.9328 15.4275 17.1388 15.5044 17.2947 15.6471C17.4506 15.7897 17.5442 15.9868 17.5556 16.1965C17.5745 16.5525 17.5595 16.9101 17.5595 17.2669L17.5639 17.2657ZM16.504 17.1129V17.7546C16.504 18.0806 16.504 18.0763 16.8371 18.0735C16.943 18.0735 16.9857 18.0516 16.9841 17.9356C16.9782 17.3912 16.9841 16.8468 16.9802 16.3024C16.9802 16.121 16.8758 16.0003 16.734 16.014C16.568 16.0304 16.502 16.1367 16.5036 16.2965C16.5059 16.5685 16.5043 16.8409 16.504 17.1129Z" fill="#6B7588"/>
</g>
</svg>
