<svg width="20" height="21" viewBox="0 0 20 21" fill="none" xmlns="http://www.w3.org/2000/svg">
<g id="xEYK7r.tif">
<path id="Vector" d="M0 6.0227C0.0896806 5.8844 0.182103 5.74922 0.26865 5.60741C0.413941 5.37299 0.540042 5.30072 0.714704 5.36284C0.876442 5.42027 0.930877 5.55818 0.891715 5.82775H3.23555C3.30722 5.82775 3.37928 5.82384 3.45055 5.82971C3.52943 5.83265 3.60424 5.86541 3.6598 5.92135C3.71536 5.97728 3.74752 6.05221 3.74975 6.13092C3.75154 6.17184 3.74503 6.2127 3.7306 6.25105C3.71616 6.2894 3.69411 6.32444 3.66576 6.35407C3.63742 6.3837 3.60336 6.40731 3.56563 6.42347C3.52791 6.43964 3.4873 6.44804 3.44624 6.44816C3.17955 6.45714 2.91208 6.45128 2.64538 6.45128C2.01879 6.45128 1.39495 6.45519 0.769922 6.44816C0.647737 6.44816 0.619541 6.47902 0.620715 6.59857C0.626459 7.3328 0.626459 8.06677 0.620715 8.80047C0.620715 8.92315 0.65322 8.94932 0.77188 8.94893C2.34123 8.94477 3.91057 8.94477 5.47992 8.94893C5.60328 8.94893 5.62913 8.91572 5.62795 8.79774C5.62247 8.06351 5.62247 7.32954 5.62795 6.59584C5.62795 6.4716 5.59388 6.44386 5.476 6.44816C5.22889 6.45754 4.98139 6.45324 4.73193 6.4505C4.51497 6.44777 4.37947 6.33056 4.3736 6.14811C4.36811 5.95746 4.50792 5.8301 4.73349 5.82814C5.03308 5.82541 5.33267 5.82814 5.63187 5.82814C5.69413 5.82814 5.75327 5.84064 5.7983 5.76524C6.27556 4.9646 6.75581 4.16539 7.23907 3.36761C7.17954 3.31057 7.11845 3.33557 7.0648 3.33518C5.55433 3.33518 4.04346 3.33518 2.5326 3.33089C2.40767 3.33089 2.32465 3.35628 2.27256 3.47505C2.23858 3.55129 2.19615 3.62349 2.14607 3.69032C2.0419 3.83057 1.87194 3.86691 1.73174 3.77783C1.58449 3.68367 1.55198 3.54811 1.60799 3.38714C1.61384 3.36857 1.62329 3.35131 1.63579 3.33636C1.88212 3.05467 1.88995 2.71751 1.8782 2.36863C1.86567 1.98576 1.87429 1.60211 1.87585 1.21884C1.87703 0.951226 1.98707 0.838318 2.25376 0.838318C4.08393 0.838318 5.91383 0.838318 7.74347 0.838318C8.02035 0.838318 8.12608 0.948882 8.12687 1.2333C8.12687 1.73377 8.13039 2.23384 8.12491 2.73392C8.1213 2.8562 8.15415 2.97681 8.21929 3.08046C8.77617 3.99427 9.32718 4.91199 9.88367 5.82619C9.97287 5.96888 10.0187 6.1343 10.0156 6.30243C10.009 7.23773 10.0129 8.17342 10.0125 9.10872C10.0148 9.17391 10.0126 9.23918 10.0059 9.30406C9.98471 9.46034 9.88406 9.54824 9.73446 9.56504C9.58486 9.58184 9.47286 9.50722 9.41373 9.36462C9.38005 9.28414 9.38749 9.19858 9.38749 9.11458C9.38749 8.20507 9.38749 7.29555 9.38749 6.38604C9.38936 6.27653 9.35914 6.16885 9.30055 6.07623C8.80868 5.26881 8.31981 4.45983 7.83394 3.64929C7.76736 3.67078 7.75561 3.72743 7.72977 3.76884C7.25982 4.54631 6.79419 5.32533 6.32307 6.10162C6.27232 6.18372 6.24635 6.27867 6.24827 6.3751C6.2501 10.9159 6.24945 15.4567 6.24632 19.9975C6.24632 20.146 6.28548 20.1839 6.42764 20.1753C6.64185 20.162 6.85842 20.1753 7.07224 20.1706C7.24494 20.1663 7.40002 20.187 7.47561 20.371C7.55667 20.5663 7.43096 20.6835 7.30486 20.7953H0V6.0227ZM5.62638 13.3113C5.62638 12.1229 5.62364 10.934 5.6303 9.74515C5.6303 9.59942 5.59584 9.56543 5.45016 9.56582C3.90065 9.57207 2.35102 9.57207 0.801251 9.56582C0.654786 9.56582 0.621107 9.6002 0.621499 9.74554C0.62672 12.1227 0.62672 14.5002 0.621499 16.8779C0.621499 17.0236 0.655569 17.0576 0.801251 17.0572C2.35102 17.0515 3.90078 17.0515 5.45055 17.0572C5.59662 17.0572 5.63108 17.0228 5.6303 16.8775C5.62364 15.689 5.62638 14.5002 5.62638 13.3113ZM3.1259 20.1717C3.90914 20.1717 4.68846 20.1686 5.46974 20.1749C5.5974 20.1749 5.63069 20.1424 5.62952 20.0155C5.62325 19.288 5.62325 18.5606 5.62952 17.8331C5.62952 17.7053 5.59623 17.6737 5.46934 17.6741C3.90679 17.6788 2.34423 17.6788 0.781671 17.6741C0.654003 17.6741 0.621107 17.7065 0.622282 17.8335C0.628548 18.5609 0.628548 19.2884 0.622282 20.0159C0.622282 20.1436 0.655178 20.1756 0.782062 20.1745C1.56334 20.1686 2.34462 20.1717 3.1259 20.1717ZM4.9857 2.70813C5.77324 2.70813 6.56118 2.70813 7.34911 2.71009C7.45837 2.71009 7.51007 2.69915 7.50576 2.56749C7.4948 2.24322 7.49675 1.91817 7.50576 1.59351C7.50889 1.47631 7.4666 1.45833 7.36204 1.45873C5.78643 1.46185 4.21081 1.46185 2.6352 1.45873C2.51772 1.45873 2.49735 1.49779 2.4997 1.60211C2.50597 1.92012 2.50949 2.23853 2.4997 2.55655C2.495 2.69212 2.54435 2.71282 2.66418 2.71282C3.43606 2.70696 4.21068 2.7097 4.9857 2.7097V2.70813Z" fill="#6B7588"/>
<path id="Vector_2" d="M10.3151 20.7953C10.0888 20.6964 9.84047 20.6996 9.60511 20.6417C8.65202 20.4143 7.77414 19.9448 7.05685 19.2786C6.85281 19.0895 6.83715 19.0181 6.93388 18.7668C7.04118 18.4891 7.15358 18.2132 7.25579 17.9335C7.31257 17.7772 7.40852 17.696 7.57809 17.6686C7.68837 17.6533 7.79257 17.609 7.87996 17.5401C7.96736 17.4713 8.03478 17.3805 8.07531 17.277C8.11584 17.1736 8.12799 17.0612 8.11054 16.9515C8.09308 16.8418 8.04663 16.7387 7.97598 16.6528C7.86711 16.5126 7.85144 16.3833 7.91527 16.2231C8.2364 15.4027 8.55048 14.5822 8.86847 13.7618C8.98087 13.4715 9.12929 13.4188 9.41478 13.5614C9.70615 13.7071 9.94386 13.6454 10.1197 13.3707C10.2509 13.1652 10.3108 12.9409 10.225 12.7038C10.1632 12.5315 10.0226 12.446 9.8487 12.3987C9.55224 12.3174 9.47822 12.1795 9.58709 11.8939C9.93603 10.9809 10.292 10.071 10.6445 9.15912C10.711 8.98488 10.8528 8.95362 11.0051 8.95206C11.6102 8.9462 12.2156 8.94659 12.8211 8.94737C13.3431 8.94737 13.3431 8.94971 13.5323 9.43729C13.6584 9.76351 13.7856 10.089 13.9106 10.414C14.0042 10.659 13.9713 10.7555 13.7516 10.9035C13.4269 11.1227 13.3552 11.5853 13.6027 11.8771C13.7649 12.0678 13.9752 12.0955 14.2066 12.0498C14.4259 12.0064 14.5763 12.085 14.6206 12.2627C14.668 12.4545 14.5653 12.5999 14.3445 12.6534C13.8052 12.7858 13.3004 12.5905 13.0239 12.1412C12.7208 11.6493 12.7635 11.02 13.1457 10.6058C13.2401 10.5031 13.2577 10.4257 13.2033 10.3027C13.1121 10.0956 13.0365 9.8815 12.955 9.67014C12.9339 9.61544 12.919 9.567 12.8375 9.56778C12.3648 9.57168 11.8922 9.56973 11.3975 9.56973L12.1299 11.4712C12.2301 11.731 12.3327 11.99 12.4291 12.2526C12.5047 12.4565 12.4385 12.6202 12.2634 12.6851C12.0884 12.7499 11.9258 12.678 11.8467 12.4753C11.5695 11.7634 11.2961 11.05 11.0212 10.3374C11.0012 10.2847 10.9793 10.2327 10.9429 10.1382C10.8575 10.3527 10.7862 10.5289 10.7181 10.7047C10.5845 11.0485 10.4553 11.3942 10.3182 11.7369C10.2791 11.8326 10.2728 11.8869 10.3813 11.9513C10.7302 12.1584 10.8861 12.4881 10.8877 12.8812C10.8896 13.323 10.7283 13.7051 10.3919 14.0024C10.1307 14.2337 9.82167 14.308 9.4841 14.2415C9.3811 14.2212 9.34821 14.2494 9.31531 14.3361C9.07407 14.9719 8.82997 15.6063 8.58298 16.2395C8.56805 16.2743 8.56158 16.3122 8.5641 16.35C8.56662 16.3879 8.57805 16.4245 8.59747 16.4571C8.94758 17.1576 8.6429 17.9437 7.90666 18.23C7.78917 18.2761 7.76489 18.3648 7.72847 18.4598C7.55264 18.9161 7.54794 18.9223 7.95483 19.204C9.33254 20.1594 10.829 20.4068 12.4443 19.9463C12.7533 19.8588 12.9162 19.903 12.9816 20.1073C13.047 20.3116 12.9425 20.4511 12.6343 20.5437C12.281 20.656 11.9162 20.7284 11.5468 20.7593C11.5193 20.7613 11.4966 20.766 11.4896 20.7984L10.3151 20.7953Z" fill="#6B7588"/>
<path id="Vector_3" d="M13.9489 20.7953C13.8095 20.6949 13.7582 20.5609 13.7425 20.3874C13.5561 18.28 13.3595 16.1739 13.1708 14.0665C13.1606 13.9493 13.1187 13.9251 13.0169 13.9341C12.9387 13.9424 12.8598 13.9415 12.7819 13.9313C12.6135 13.9048 12.5148 13.8028 12.5046 13.6305C12.5015 13.5516 12.5291 13.4745 12.5817 13.4155C12.6342 13.3565 12.7077 13.3201 12.7866 13.314C12.8387 13.3103 12.891 13.3095 12.9433 13.3117H19.5616C19.6201 13.3075 19.6789 13.3092 19.7371 13.3168C19.9039 13.3515 20.0026 13.457 20.0002 13.6293C19.9983 13.7922 19.9004 13.8895 19.7449 13.9301C19.7324 13.9337 19.7186 13.9301 19.7057 13.9341C19.5882 13.9555 19.4316 13.8731 19.3572 13.9755C19.298 14.0579 19.3243 14.2013 19.3141 14.3177C19.2812 14.6924 19.2499 15.0678 19.2166 15.4425C19.1947 15.6847 19.0846 15.8086 18.8951 15.809C18.7055 15.8093 18.5739 15.6675 18.5908 15.4429C18.6237 15.0159 18.6578 14.5885 18.7083 14.1634C18.731 13.9778 18.6914 13.929 18.4956 13.929C16.9855 13.9384 15.4755 13.9384 13.9654 13.929C13.8009 13.929 13.779 13.9805 13.7923 14.1243C13.9604 15.9077 14.1257 17.6918 14.2881 19.4767C14.3053 19.6642 14.3272 19.8518 14.3343 20.0397C14.3382 20.1342 14.3586 20.1749 14.4663 20.1749C15.6576 20.1709 16.8487 20.1709 18.0398 20.1749C18.153 20.1749 18.1596 20.1229 18.1671 20.035C18.2268 19.356 18.2895 18.6774 18.355 17.9991C18.377 17.7733 18.5117 17.653 18.7075 17.6768C18.8869 17.6987 18.9949 17.8507 18.9757 18.0616C18.9021 18.8633 18.8238 19.6634 18.7557 20.4659C18.7427 20.6179 18.6534 20.705 18.5555 20.796L13.9489 20.7953Z" fill="#6B7588"/>
<path id="Vector_4" d="M14.05 3.95715H12.2141C11.9176 3.95715 11.833 4.10561 11.9791 4.36737C12.0312 4.46074 12.1158 4.52364 12.1902 4.59436C12.4941 4.88815 12.7165 5.21945 12.7052 5.66523C12.7051 5.81192 12.6714 5.95666 12.6066 6.08836C12.5419 6.22007 12.4478 6.33525 12.3316 6.42511C11.8254 6.82117 11.4707 7.37842 11.3267 8.00386C11.2707 8.23827 11.1195 8.359 10.935 8.31641C10.7392 8.2707 10.6562 8.09685 10.7177 7.84759C10.8895 7.12155 11.294 6.47123 11.8698 5.99535C12.115 5.79024 12.1494 5.5656 11.9736 5.29525C11.8843 5.15734 11.7606 5.05146 11.6427 4.93933C11.3991 4.70727 11.2726 4.42285 11.2949 4.08569C11.3149 3.77744 11.4594 3.53873 11.7523 3.41801C11.8581 3.37464 11.8808 3.32307 11.88 3.21954C11.8757 2.56358 11.8773 1.90723 11.8781 1.25127C11.8781 0.941849 11.9791 0.838318 12.2834 0.838318C13.4749 0.838318 14.6673 0.838318 15.8604 0.838318C16.1487 0.838318 16.252 0.946537 16.252 1.24189C16.252 1.89121 16.2552 2.54092 16.2501 3.19063C16.2501 3.3051 16.2681 3.368 16.3875 3.42152C16.7772 3.59616 16.9303 4.03255 16.7792 4.48262C16.7154 4.67462 16.6003 4.84562 16.4463 4.97723C16.3412 5.06455 16.2476 5.16485 16.1678 5.27571C15.9752 5.55974 16.0112 5.7836 16.2689 6.00668C17.0521 6.67788 17.4582 7.53035 17.4986 8.55785C17.5084 8.80047 17.385 8.94541 17.1876 8.94502C16.9981 8.94502 16.8841 8.80945 16.8743 8.57622C16.8399 7.71866 16.496 7.01035 15.8365 6.45831C15.4265 6.11256 15.3122 5.59646 15.5471 5.11084C15.651 4.90804 15.7922 4.72659 15.9634 4.576C16.0274 4.52199 16.0848 4.46077 16.1346 4.39355C16.2047 4.28923 16.252 4.17008 16.1855 4.04623C16.1244 3.93332 16.0061 3.95754 15.9051 3.95715C15.2867 3.95481 14.6683 3.95715 14.0496 3.95715H14.05ZM14.0464 3.33206H15.1598C15.6345 3.33206 15.6298 3.33206 15.6321 2.86324C15.6321 2.73392 15.5961 2.70384 15.4708 2.70696C14.8199 2.71321 14.1686 2.71048 13.5174 2.70931C13.2703 2.70931 13.1293 2.5921 13.1293 2.39676C13.1293 2.20142 13.2695 2.08421 13.517 2.08421C14.0652 2.08421 14.6108 2.08421 15.1575 2.08421C15.6403 2.08421 15.6368 2.08421 15.6313 1.59859C15.6313 1.49076 15.6047 1.45794 15.4927 1.45833C14.5421 1.4625 13.5915 1.4625 12.6409 1.45833C12.5317 1.45833 12.4992 1.48568 12.5003 1.59703C12.5063 2.12966 12.5063 2.66229 12.5003 3.19493C12.5003 3.30471 12.5293 3.33557 12.6398 3.33401C13.1089 3.32971 13.5777 3.33323 14.0464 3.33323V3.33206Z" fill="#6B7588"/>
<path id="Vector_5" d="M12.189 15.496C12.1884 15.6804 12.1332 15.8606 12.0303 16.0138C11.9274 16.167 11.7814 16.2864 11.6107 16.357C11.4399 16.4276 11.2521 16.4462 11.0708 16.4104C10.8895 16.3747 10.7228 16.2863 10.5917 16.1562C10.4607 16.0262 10.3711 15.8604 10.3342 15.6796C10.2974 15.4989 10.3149 15.3113 10.3847 15.1405C10.4544 14.9697 10.5732 14.8233 10.7261 14.7197C10.879 14.6161 11.0592 14.56 11.244 14.5584C11.3678 14.5576 11.4906 14.5814 11.6052 14.6282C11.7198 14.675 11.824 14.7439 11.9119 14.8311C11.9997 14.9182 12.0694 15.0218 12.1169 15.1359C12.1645 15.25 12.189 15.3724 12.189 15.496ZM11.2495 15.1835C11.1872 15.1835 11.1263 15.202 11.0746 15.2368C11.023 15.2715 10.9829 15.3208 10.9594 15.3784C10.936 15.436 10.9303 15.4992 10.943 15.5601C10.9558 15.6209 10.9865 15.6766 11.0311 15.7199C11.0757 15.7633 11.1323 15.7924 11.1936 15.8035C11.2548 15.8146 11.3181 15.8073 11.3751 15.7823C11.4322 15.7574 11.4805 15.7161 11.5139 15.6636C11.5473 15.6112 11.5643 15.5499 11.5626 15.4878C11.5608 15.4061 11.527 15.3284 11.4685 15.2713C11.4099 15.2142 11.3313 15.1823 11.2495 15.1823V15.1835Z" fill="#6B7588"/>
<path id="Vector_6" d="M8.75321 18.5867C8.75839 18.4016 8.81859 18.2221 8.92617 18.0712C9.03374 17.9202 9.18384 17.8046 9.3574 17.7389C9.53096 17.6733 9.72015 17.6606 9.90095 17.7025C10.0817 17.7444 10.246 17.8389 10.3728 17.9742C10.4997 18.1094 10.5834 18.2792 10.6133 18.462C10.6433 18.6448 10.6181 18.8324 10.5411 19.0009C10.464 19.1694 10.3385 19.3112 10.1805 19.4084C10.0224 19.5056 9.83906 19.5537 9.65359 19.5466C9.40735 19.5365 9.17498 19.4301 9.00656 19.2506C8.83813 19.071 8.74715 18.8326 8.75321 18.5867ZM9.68099 18.3004C9.6188 18.3018 9.55845 18.3217 9.50764 18.3575C9.45683 18.3934 9.41786 18.4435 9.3957 18.5015C9.37354 18.5595 9.36919 18.6228 9.38321 18.6833C9.39723 18.7437 9.42898 18.7987 9.47442 18.8411C9.51985 18.8835 9.57691 18.9114 9.63832 18.9214C9.69973 18.9313 9.7627 18.9227 9.81922 18.8968C9.87573 18.8708 9.92322 18.8287 9.95563 18.7757C9.98805 18.7227 10.0039 18.6613 10.0012 18.5992C9.99725 18.5178 9.96154 18.4411 9.90172 18.3855C9.84189 18.33 9.76268 18.3 9.68099 18.3019V18.3004Z" fill="#6B7588"/>
<path id="Vector_7" d="M11.2529 17.6694C11.2574 17.4473 11.3394 17.2337 11.4848 17.0656C11.6303 16.8975 11.8301 16.7853 12.0496 16.7486C12.2845 16.7138 12.463 16.8091 12.4982 16.9873C12.5373 17.1857 12.4172 17.3213 12.1615 17.3674C11.9846 17.3995 11.8711 17.5237 11.8805 17.6847C11.8906 17.8566 11.9905 17.9546 12.1576 17.9863C12.1705 17.9886 12.1838 17.9863 12.1968 17.989C12.4015 18.0222 12.5119 18.1433 12.5017 18.3242C12.4915 18.5051 12.3616 18.6067 12.1494 18.611C11.6816 18.6207 11.2502 18.1683 11.2529 17.6694Z" fill="#6B7588"/>
<path id="Vector_8" d="M16.879 11.7533C16.879 11.5579 16.8766 11.3645 16.879 11.1704C16.8825 10.9563 17.0019 10.8215 17.1851 10.8187C17.3683 10.816 17.5006 10.95 17.5026 11.1594C17.5065 11.5543 17.5065 11.9494 17.5026 12.3448C17.5006 12.5546 17.3703 12.6901 17.1871 12.6878C17.0039 12.6854 16.8825 12.5503 16.879 12.3362C16.8766 12.142 16.879 11.9474 16.879 11.7533Z" fill="#6B7588"/>
<path id="Vector_9" d="M1.24155 4.89208C1.17939 4.89047 1.11911 4.87042 1.0684 4.83449C1.01769 4.79856 0.978849 4.74838 0.956823 4.69034C0.934798 4.63229 0.930586 4.56902 0.944724 4.50858C0.958863 4.44814 0.990712 4.39327 1.03621 4.35096C1.08171 4.30865 1.1388 4.28082 1.20021 4.27102C1.26162 4.26121 1.32456 4.26987 1.38102 4.2959C1.43748 4.32192 1.48489 4.36413 1.51722 4.41715C1.54955 4.47017 1.56533 4.5316 1.56256 4.5936C1.55889 4.6754 1.52321 4.7525 1.46318 4.80832C1.40315 4.86413 1.32357 4.89421 1.24155 4.89208Z" fill="#6B7588"/>
<path id="Vector_10" d="M17.5052 9.87678C17.5063 9.93882 17.4889 9.99978 17.4551 10.0519C17.4214 10.104 17.3728 10.1449 17.3157 10.1694C17.2586 10.1939 17.1955 10.2009 17.1344 10.1894C17.0733 10.178 17.0169 10.1487 16.9726 10.1052C16.9282 10.0617 16.8979 10.006 16.8853 9.94527C16.8728 9.88449 16.8787 9.82137 16.9022 9.76394C16.9257 9.70651 16.9659 9.65737 17.0175 9.62278C17.0691 9.58819 17.1299 9.56971 17.192 9.5697C17.274 9.57019 17.3525 9.60253 17.411 9.65986C17.4695 9.71719 17.5033 9.795 17.5052 9.87678Z" fill="#6B7588"/>
<path id="Vector_11" d="M18.7483 17.0518C18.6861 17.0507 18.6256 17.0312 18.5746 16.9957C18.5235 16.9602 18.4842 16.9103 18.4617 16.8525C18.4392 16.7946 18.4344 16.7313 18.448 16.6707C18.4617 16.6102 18.4931 16.555 18.5383 16.5123C18.5834 16.4696 18.6403 16.4413 18.7017 16.431C18.763 16.4207 18.826 16.4289 18.8827 16.4545C18.9394 16.4801 18.9872 16.522 19.0199 16.5748C19.0526 16.6275 19.0689 16.6889 19.0666 16.7509C19.0635 16.8327 19.0285 16.9099 18.969 16.9662C18.9095 17.0224 18.8302 17.0531 18.7483 17.0518Z" fill="#6B7588"/>
<path id="Vector_12" d="M1.24954 13.9704C1.24758 13.6438 1.36428 13.3476 1.49978 13.0605C1.85929 12.2994 2.34646 11.6196 2.86261 10.9594C3.0083 10.773 3.22564 10.7566 3.36349 10.9328C3.97089 11.7107 4.55832 12.5026 4.90295 13.4414C4.9668 13.598 4.99965 13.7654 4.99968 13.9344C4.99341 14.1071 4.8724 14.238 4.71027 14.2446C4.53717 14.2513 4.40246 14.1622 4.38758 13.997C4.35155 13.6016 4.16944 13.2683 3.98382 12.9343C3.74904 12.5232 3.48944 12.1267 3.20645 11.747C3.15711 11.6798 3.12421 11.6337 3.05451 11.7314C2.67111 12.2705 2.31043 12.8226 2.01554 13.4176C1.58476 14.2833 2.27401 15.171 3.09837 15.1835C3.30514 15.1866 3.43085 15.3081 3.43751 15.4847C3.44417 15.6613 3.32002 15.7836 3.11403 15.8054C2.97146 15.8197 2.82747 15.8079 2.68913 15.7707C1.86751 15.5593 1.25893 14.8002 1.24954 13.9704Z" fill="#6B7588"/>
<path id="Vector_13" d="M4.37462 15.494C4.31238 15.494 4.25156 15.4755 4.19992 15.4408C4.14828 15.4062 4.10815 15.3569 4.08467 15.2994C4.06119 15.2419 4.05541 15.1787 4.06808 15.1179C4.08074 15.0571 4.11128 15.0014 4.15578 14.958C4.20029 14.9146 4.25675 14.8854 4.31795 14.8741C4.37916 14.8629 4.44234 14.8701 4.49943 14.8948C4.55651 14.9196 4.60492 14.9607 4.63847 15.013C4.67202 15.0653 4.68919 15.1264 4.68779 15.1885C4.68595 15.2702 4.65214 15.3479 4.59361 15.405C4.53508 15.4621 4.45647 15.4941 4.37462 15.494Z" fill="#6B7588"/>
</g>
</svg>
