<svg width="17" height="21" viewBox="0 0 17 21" fill="none" xmlns="http://www.w3.org/2000/svg">
<g id="DuEZ1Y.tif">
<path id="Vector" d="M7.29549 0.359283C7.56164 0.439528 7.84024 0.434713 8.11241 0.47644C9.43387 0.677051 10.6966 1.055 11.8629 1.72023C12.7249 2.21253 13.4682 2.84365 14.0612 3.64168C14.1991 3.82785 14.187 4.02003 14.0326 4.13639C13.8783 4.25274 13.6969 4.22104 13.5627 4.0421C12.4977 2.629 11.0243 1.86346 9.3611 1.40246C8.47665 1.15812 7.57611 1.00605 6.65708 1.00124C5.63834 0.994819 4.69801 1.27808 3.83606 1.81973C3.79104 1.84822 3.74802 1.88072 3.70138 1.90639C3.53133 2.00028 3.35765 1.96578 3.25916 1.82053C3.15664 1.66927 3.19202 1.4799 3.35886 1.36715C3.79005 1.07756 4.25797 0.846565 4.75027 0.680261C5.1295 0.552823 5.51982 0.460947 5.91614 0.405825C5.95192 0.400609 5.99977 0.415454 6.01303 0.360487L7.29549 0.359283Z" fill="#6B7588"/>
<path id="Vector_2" d="M16.997 5.60288C16.8917 5.7421 16.761 5.80349 16.5777 5.81071C16.1499 5.82716 15.838 6.04703 15.6361 6.42178C15.479 6.71427 15.4126 7.03164 15.3949 7.36064C15.3825 7.58613 15.2655 7.72174 15.0793 7.72174C14.8932 7.72174 14.7678 7.59014 14.7525 7.36666C14.7296 7.02481 14.662 6.69501 14.4908 6.39329C14.2765 6.01453 13.9505 5.81914 13.5147 5.80189C13.2879 5.79306 13.1528 5.6747 13.1504 5.48813C13.148 5.30156 13.2795 5.16715 13.5006 5.16153C14.0361 5.14468 14.3822 4.86503 14.5861 4.38797C14.6841 4.14699 14.7403 3.89109 14.7521 3.63126C14.7682 3.37328 14.8819 3.23646 15.081 3.24047C15.28 3.24448 15.3817 3.37769 15.3977 3.62324C15.4203 3.9723 15.4946 4.30773 15.6792 4.61105C15.8846 4.94928 16.1877 5.13906 16.5805 5.15311C16.7638 5.15993 16.8953 5.22051 16.9998 5.36134L16.997 5.60288ZM15.0785 6.11524C15.1915 5.89683 15.3479 5.70366 15.5381 5.54751C15.5835 5.50939 15.6217 5.4789 15.5517 5.42714C15.3543 5.27909 15.214 5.07928 15.0717 4.86543C14.9298 5.08369 14.7931 5.27949 14.5985 5.42433C14.537 5.47007 14.5475 5.50458 14.6029 5.5447C14.7947 5.69195 14.935 5.88333 15.0785 6.11524Z" fill="#6B7588"/>
<path id="Vector_3" d="M9.94701 11.147C10.0054 9.54395 9.38967 8.26311 8.09971 7.30446C6.71202 6.27692 5.53007 4.99839 4.61535 3.53537C4.59082 3.49525 4.56469 3.45512 4.54258 3.415C4.45212 3.24488 4.48991 3.07115 4.63625 2.97366C4.79063 2.87215 4.97114 2.91107 5.08773 3.07998C5.28874 3.37087 5.47488 3.67098 5.68232 3.95625C6.47026 5.0444 7.42196 6.00449 8.50374 6.80253C9.39624 7.46053 10.0226 8.30671 10.3671 9.35952C10.6554 10.2422 10.6268 11.1478 10.5424 12.0529C10.462 12.8931 10.2091 13.6807 9.74278 14.3909C9.01391 15.501 7.95055 16.0904 6.6697 16.3252C6.01319 16.4455 5.3603 16.5707 4.75807 16.8768C3.54596 17.4923 2.87216 18.4468 2.88543 19.8359C2.88543 20.0674 2.7608 20.213 2.56381 20.2102C2.36682 20.2074 2.24219 20.0686 2.24219 19.8318C2.26953 18.2326 3.01569 17.0734 4.42278 16.3308C5.10421 15.9717 5.84756 15.8204 6.59774 15.6888C8.43379 15.3678 9.71705 13.978 9.9048 12.1264C9.93857 11.8006 9.9434 11.4752 9.94701 11.147Z" fill="#6B7588"/>
<path id="Vector_4" d="M0.638522 18.1395C0.638522 17.1103 0.883757 16.2429 1.43775 15.4814C2.32422 14.262 2.45246 12.9597 1.93706 11.565C1.6854 10.8829 1.32599 10.251 1.10206 9.5589C0.672292 8.23246 0.508667 6.88435 0.757521 5.50093C0.797724 5.27023 0.944865 5.14665 1.13301 5.17995C1.3284 5.21606 1.4285 5.38057 1.39031 5.60525C1.10889 7.25027 1.40157 8.80902 2.09868 10.3076C2.44724 11.0567 2.76805 11.8146 2.8561 12.6495C2.97349 13.7633 2.72061 14.784 2.06491 15.6888C1.26086 16.7962 1.11653 18.0063 1.44499 19.2978C1.5463 19.6966 1.71354 20.0625 2.10793 20.2764C2.25386 20.3566 2.28522 20.54 2.2028 20.6808C2.11355 20.8325 1.97928 20.8899 1.81123 20.8277C1.58529 20.7446 1.41443 20.5869 1.2701 20.3988C0.89421 19.9121 0.755913 19.3395 0.683147 18.7457C0.655005 18.5166 0.631285 18.2839 0.638522 18.1395Z" fill="#6B7588"/>
<path id="Vector_5" d="M4.88837 12.8486C4.64079 12.8606 4.39337 12.8217 4.16151 12.7342C3.92153 12.6409 3.72477 12.462 3.60929 12.2323C3.49382 12.0025 3.46783 11.7382 3.53636 11.4904C3.54826 11.4417 3.57165 11.3965 3.60458 11.3586C3.63752 11.3207 3.67905 11.2912 3.72571 11.2726C3.8033 11.2397 3.85838 11.1863 3.76592 11.1121C3.54882 10.9375 3.50058 10.7028 3.52792 10.4468C3.54802 10.2599 3.49495 10.1539 3.29555 10.1158C3.13474 10.0845 2.97955 10.0143 2.82116 9.96256C2.64828 9.90558 2.56989 9.79003 2.56104 9.60507C2.53085 9.13581 2.6761 8.67206 2.9687 8.3035C3.20991 7.99416 3.25293 7.67799 3.08328 7.28399C2.66879 6.32106 2.80829 4.81166 3.96371 3.95866C4.12211 3.8419 4.2982 3.86196 4.41237 3.99878C4.44167 4.03124 4.46374 4.06954 4.47711 4.11114C4.49049 4.15274 4.49487 4.1967 4.48997 4.24012C4.48507 4.28354 4.47099 4.32542 4.44868 4.36301C4.42636 4.4006 4.39631 4.43304 4.36051 4.45818C3.60189 5.0536 3.42701 5.84721 3.57053 6.74956C3.58414 6.84858 3.61503 6.94445 3.66179 7.03283C3.99025 7.6138 3.85919 8.14983 3.5046 8.65979C3.38118 8.83673 3.26941 9.01286 3.22037 9.22551C3.19022 9.3547 3.20429 9.43655 3.35746 9.47066C3.51828 9.51363 3.67676 9.56493 3.83225 9.62433C4.1201 9.72223 4.16794 9.78843 4.16875 10.0861C4.16875 10.1664 4.16875 10.2466 4.16875 10.3269C4.16392 10.4761 4.14141 10.6194 4.34845 10.6759C4.45177 10.704 4.48474 10.828 4.49037 10.9423C4.50658 11.2043 4.42828 11.4633 4.26965 11.6726C4.11166 11.8844 4.16754 12.0638 4.42685 12.154C4.67289 12.2403 4.92938 12.2198 5.18145 12.1966C5.5418 12.1682 5.89497 12.0806 6.22672 11.9374C6.39114 11.864 6.53065 11.89 6.67296 11.9972C7.23861 12.4249 7.43681 13.0002 7.36766 13.6863C7.31567 14.2542 7.08967 14.7923 6.7204 15.2274C6.54793 15.4312 6.3634 15.4681 6.20581 15.3337C6.04822 15.1993 6.05907 15.0232 6.2239 14.8242C6.56441 14.4239 6.74632 13.9131 6.73528 13.3882C6.73206 13.1338 6.6396 12.9095 6.49406 12.7029C6.4213 12.6006 6.34773 12.5793 6.22672 12.6227C5.79567 12.7693 5.34375 12.8455 4.88837 12.8486Z" fill="#6B7588"/>
<path id="Vector_6" d="M1.93007 0.680253C2.11098 0.684265 2.23279 0.814262 2.24405 1.0237C2.25394 1.27635 2.30303 1.52593 2.38958 1.76356C2.58537 2.28074 2.93714 2.58527 3.50962 2.60212C3.71707 2.60814 3.84692 2.73934 3.84692 2.9231C3.84692 3.08921 3.72632 3.2192 3.54902 3.24207C2.76748 3.34278 2.40044 3.70188 2.28264 4.48306C2.26495 4.60343 2.25571 4.72099 2.24244 4.84015C2.22475 5.03274 2.10133 5.16113 1.92765 5.16354C1.75398 5.16595 1.61729 5.04317 1.60603 4.84898C1.58754 4.56812 1.54492 4.29248 1.43718 4.03209C1.23617 3.5466 0.890427 3.25812 0.344476 3.24247C0.135021 3.23445 0.00436242 3.10887 0.000342165 2.92711C-0.00163288 2.88539 0.0049579 2.8437 0.0197099 2.80461C0.0344619 2.76552 0.0570638 2.72985 0.0861281 2.69979C0.115192 2.66973 0.150106 2.64592 0.188725 2.62981C0.227344 2.61371 0.268854 2.60565 0.310706 2.60613C1.06651 2.60172 1.43638 2.06528 1.5606 1.38962C1.58513 1.25922 1.58995 1.12521 1.60362 0.992807C1.62332 0.80062 1.75518 0.676642 1.93007 0.680253ZM1.92645 2.29799C1.78252 2.51465 1.65227 2.70724 1.46331 2.84927C1.40743 2.89221 1.38009 2.92711 1.45487 2.98409C1.64865 3.12973 1.78654 3.32312 1.93007 3.55062C2.0474 3.32729 2.20941 3.13037 2.40606 2.97205C2.47883 2.91347 2.42737 2.88378 2.38596 2.85168C2.20103 2.70483 2.06233 2.51947 1.92645 2.29799Z" fill="#6B7588"/>
<path id="Vector_7" d="M13.1468 17.652C12.9687 17.652 12.8428 17.5196 12.8284 17.3094C12.8157 17.0566 12.7655 16.8072 12.6796 16.5691C12.4838 16.0535 12.1345 15.747 11.5616 15.7302C11.3546 15.7241 11.2247 15.5921 11.2251 15.4092C11.2251 15.2423 11.3457 15.0938 11.5234 15.0946C12.3275 15.097 12.6768 14.4892 12.7866 13.8689C12.8087 13.7445 12.8159 13.6177 12.8268 13.4917C12.8453 13.2983 12.9671 13.1728 13.142 13.1708C13.3241 13.1671 13.4563 13.2971 13.4676 13.5022C13.4869 13.8585 13.5552 14.2003 13.7362 14.5136C13.9464 14.878 14.2632 15.0661 14.6813 15.089C14.9374 15.1034 15.0761 15.2202 15.0709 15.4192C15.0661 15.6106 14.931 15.7213 14.6853 15.7334C14.2029 15.757 13.8749 16.001 13.6722 16.4279C13.5462 16.7071 13.4769 17.0085 13.4684 17.3146C13.4584 17.5208 13.3281 17.652 13.1468 17.652ZM13.1524 16.0407C13.2657 15.8296 13.4173 15.6413 13.5995 15.4854C13.6397 15.4501 13.716 15.4196 13.6268 15.3522C13.4298 15.2046 13.2903 15.0039 13.1468 14.7905C13.0057 15.0088 12.8674 15.2038 12.6736 15.3498C12.6298 15.3831 12.6081 15.414 12.6652 15.4581C12.8617 15.6102 13.0085 15.8064 13.1528 16.0391L13.1524 16.0407Z" fill="#6B7588"/>
<path id="Vector_8" d="M15.3937 9.1276C15.3392 10.5654 15.1259 11.9927 14.7577 13.3838C14.6934 13.6245 14.5398 13.7361 14.3472 13.6843C14.1631 13.6346 14.0807 13.4636 14.1402 13.2349C14.5522 11.6618 14.7587 10.0422 14.7545 8.41622C14.7545 8.18311 14.8843 8.04148 15.0805 8.04549C15.2691 8.0491 15.3925 8.18873 15.3949 8.4066C15.3977 8.64813 15.3937 8.88766 15.3937 9.1276Z" fill="#6B7588"/>
<path id="Vector_9" d="M15.9557 20.853C14.5434 20.8024 13.6759 19.9795 13.3148 18.7153C13.2594 18.5219 13.3574 18.3542 13.5323 18.3032C13.7008 18.2543 13.8684 18.3473 13.9307 18.5439C14.0276 18.8501 14.1458 19.1458 14.3328 19.4066C14.7103 19.9322 15.2405 20.1689 15.8717 20.209C15.9316 20.213 15.9923 20.209 16.0518 20.215C16.1324 20.2201 16.2081 20.2553 16.2639 20.3136C16.3197 20.3719 16.3515 20.449 16.3529 20.5296C16.3554 20.7037 16.2243 20.8389 16.039 20.8505C16.0113 20.8528 15.9835 20.8536 15.9557 20.853Z" fill="#6B7588"/>
</g>
</svg>
