<svg width="71" height="80" viewBox="0 0 71 80" fill="none" xmlns="http://www.w3.org/2000/svg">
<path d="M13.8456 0.00141216C13.9684 0.00300673 14.0913 0.0046013 14.2179 0.00624419C15.1467 0.0403361 15.8079 0.184671 16.4789 0.868286C16.5671 0.956477 16.6554 1.04467 16.7463 1.13553C18.2542 2.7784 17.7181 4.10598 17.7181 6.63446C29.2704 6.63446 40.8228 6.63446 52.7253 6.63446C52.7253 5.34876 52.7253 4.06306 52.7253 2.7384C53.4246 1.33118 53.4246 1.33118 53.9644 0.887766C54.0667 0.801383 54.1689 0.715 54.2742 0.626C55.0401 0.0692075 55.631 0.0321583 56.559 0.0306326C56.6788 0.0268157 56.7986 0.0229988 56.922 0.0190662C57.96 0.01381 58.7311 0.306353 59.539 0.962644C60.5624 2.19275 60.6943 3.44402 60.6541 5.00785C60.6521 5.16505 60.65 5.32225 60.6478 5.48421C60.6424 5.86771 60.6348 6.25104 60.6251 6.63446C60.7953 6.63119 60.9655 6.62793 61.1409 6.62457C61.7788 6.61319 62.4168 6.60609 63.0549 6.60022C63.3298 6.5971 63.6047 6.59286 63.8796 6.58743C65.8895 6.54874 67.4933 6.58706 69.0278 8.04983C70.0803 9.20785 70.4221 10.4494 70.4232 12.0037C70.4237 12.1142 70.4242 12.2246 70.4247 12.3384C70.4259 12.7066 70.425 13.0747 70.4241 13.4429C70.4246 13.7102 70.4252 13.9776 70.4259 14.245C70.4275 14.9783 70.4272 15.7117 70.4265 16.445C70.4261 17.2365 70.4275 18.0279 70.4287 18.8194C70.4307 20.3693 70.4309 21.9193 70.4306 23.4693C70.4303 24.7292 70.4306 25.989 70.4312 27.2489C70.4313 27.4282 70.4314 27.6075 70.4315 27.7923C70.4317 28.1565 70.4319 28.5208 70.4321 28.8851C70.4338 32.3012 70.4334 35.7173 70.4325 39.1334C70.4317 42.2583 70.4334 45.3832 70.4364 48.5082C70.4394 51.7172 70.4407 54.9262 70.4401 58.1352C70.4398 59.9367 70.4402 61.7382 70.4423 63.5397C70.4442 65.0733 70.4444 66.6069 70.4425 68.1405C70.4416 68.9228 70.4415 69.7051 70.4433 70.4874C70.445 71.204 70.4445 71.9205 70.4423 72.6371C70.4419 72.8959 70.4423 73.1547 70.4435 73.4135C70.4522 75.3556 70.3268 77.1141 68.9897 78.6337C67.9818 79.4688 67.0601 79.9187 65.744 79.9214C65.6369 79.922 65.5299 79.9227 65.4196 79.9233C65.0601 79.9251 64.7007 79.9247 64.3412 79.9242C64.0811 79.925 63.8211 79.926 63.5611 79.927C62.8459 79.9295 62.1306 79.9301 61.4154 79.9303C60.6443 79.9309 59.8731 79.9332 59.102 79.9353C57.4153 79.9396 55.7287 79.9415 54.0421 79.9428C52.9888 79.9437 51.9356 79.945 50.8824 79.9464C47.9661 79.9502 45.0498 79.9534 42.1335 79.9545C41.9468 79.9546 41.7601 79.9546 41.5678 79.9547C41.3807 79.9548 41.1936 79.9548 41.0008 79.9549C40.6216 79.955 40.2425 79.9552 39.8633 79.9553C39.6752 79.9554 39.4871 79.9555 39.2934 79.9555C36.2466 79.9568 33.1999 79.9622 30.1531 79.9694C27.0248 79.9768 23.8965 79.9807 20.7682 79.9811C19.0119 79.9814 17.2556 79.9832 15.4993 79.9888C14.0035 79.9936 12.5078 79.9952 11.012 79.9926C10.2491 79.9914 9.48633 79.9917 8.72344 79.9961C8.02424 80.0001 7.32518 79.9997 6.62598 79.9959C6.37381 79.9953 6.12164 79.9963 5.86949 79.999C4.20438 80.0158 2.76406 79.8275 1.45523 78.6736C0.373436 77.543 0.0407131 76.0899 0.039213 74.5687C0.0388951 74.4588 0.0385763 74.3489 0.0382487 74.2357C0.0373711 73.8665 0.0375963 73.4974 0.0378161 73.1283C0.0374159 72.8613 0.0369493 72.5943 0.0364216 72.3273C0.0351715 71.5929 0.0348944 70.8585 0.0347801 70.1241C0.0344935 69.3324 0.0333243 68.5406 0.0322807 67.7488C0.0301765 66.0172 0.0292435 64.2855 0.0285616 62.5538C0.0281337 61.4727 0.0274772 60.3915 0.0267794 59.3104C0.0248908 56.3172 0.023296 53.3241 0.022772 50.3309C0.022738 50.1393 0.022703 49.9477 0.022668 49.7503C0.0226342 49.5583 0.0226012 49.3663 0.0225664 49.1684C0.0224977 48.7793 0.022428 48.3901 0.0223584 48.0009C0.0223241 47.8079 0.0222897 47.6149 0.0222544 47.416C0.0216428 44.288 0.0189396 41.16 0.0153327 38.032C0.0116598 34.8209 0.00972846 31.6098 0.00954782 28.3987C0.0094058 26.5956 0.0085145 24.7926 0.00570347 22.9895C0.00331829 21.4542 0.00252469 19.9189 0.00380434 18.3836C0.0044096 17.6003 0.00426392 16.817 0.00209075 16.0338C0.000118415 15.3163 0.000302872 14.5989 0.00218293 13.8815C0.00248622 13.6223 0.00200885 13.3632 0.000658424 13.104C-0.00867751 11.1909 0.062792 9.48891 1.44459 8.03156C2.61659 6.90164 3.75033 6.55693 5.35579 6.5888C5.48446 6.58946 5.61314 6.59012 5.74572 6.59081C6.15129 6.5934 6.55673 6.59926 6.96226 6.60524C7.23948 6.60759 7.51671 6.60972 7.79393 6.61163C8.46874 6.61675 9.14345 6.6248 9.81821 6.63446C9.81578 6.53794 9.81334 6.44143 9.81084 6.34199C9.80107 5.89729 9.7951 5.45262 9.78917 5.00785C9.78527 4.85608 9.78138 4.70431 9.77737 4.54793C9.7634 3.14693 9.99957 2.05013 10.9043 0.962644C11.8139 0.223723 12.6897 -0.02116 13.8456 0.00141216ZM12.4515 3.20592C12.3753 3.79208 12.3934 4.36932 12.4128 4.95915C12.4156 5.11986 12.4184 5.28058 12.4212 5.44616C12.4285 5.84232 12.4396 6.23841 12.4515 6.63446C13.3716 6.63446 14.2917 6.63446 15.2397 6.63446C15.2606 6.10504 15.276 5.57645 15.2881 5.04681C15.2946 4.89725 15.3011 4.74769 15.3077 4.59359C15.3204 3.85987 15.3261 3.484 14.8936 2.87232C14.4617 2.58019 14.27 2.47968 13.7585 2.49489C13.6432 2.49469 13.528 2.49449 13.4093 2.49428C12.8966 2.62809 12.7447 2.75309 12.4515 3.20592ZM55.2036 3.36177C55.1104 3.92689 55.1305 4.47599 55.1552 5.04681C55.1587 5.19939 55.1622 5.35197 55.1658 5.50917C55.1749 5.88437 55.1888 6.25944 55.2036 6.63446C56.1237 6.63446 57.0438 6.63446 57.9918 6.63446C58.0085 6.0759 58.0208 5.51784 58.0305 4.95915C58.0357 4.80085 58.0409 4.64255 58.0463 4.47945C58.073 3.58529 58.073 3.58529 57.7226 2.79014C57.3415 2.56436 57.1249 2.49413 56.6849 2.49489C56.5126 2.48977 56.5126 2.48977 56.3369 2.48454C55.7581 2.64266 55.5512 2.8703 55.2036 3.36177Z" fill="#F8F2F0"/>
<path d="M13.844 0.00141216C13.9669 0.00300673 14.0897 0.0046013 14.2163 0.00624419C15.1451 0.0403361 15.8063 0.184671 16.4773 0.868286C16.5655 0.956477 16.6538 1.04467 16.7447 1.13553C18.2526 2.7784 17.7165 4.10598 17.7165 6.63446C29.2689 6.63446 40.8212 6.63446 52.7237 6.63446C52.7237 5.34876 52.7237 4.06306 52.7237 2.7384C53.423 1.33118 53.423 1.33118 53.9629 0.887766C54.0651 0.801383 54.1673 0.715 54.2727 0.626C55.0385 0.0692075 55.6294 0.0321583 56.5574 0.0306326C56.6772 0.0268157 56.797 0.0229988 56.9205 0.0190662C57.9584 0.01381 58.7296 0.306353 59.5374 0.962644C60.5608 2.19275 60.6927 3.44402 60.6526 5.00785C60.6505 5.16505 60.6484 5.32225 60.6462 5.48421C60.6408 5.86771 60.6332 6.25104 60.6235 6.63446C60.7937 6.63119 60.9639 6.62793 61.1393 6.62457C61.7772 6.61319 62.4152 6.60609 63.0533 6.60022C63.3282 6.5971 63.6031 6.59286 63.878 6.58743C65.8906 6.54869 67.4847 6.59064 69.0256 8.04678C72.6004 12.011 70.2273 19.8972 70.2273 23.6213C47.1225 23.6213 24.0178 23.6213 0.212891 23.6213C0.212891 9.4161 0.212891 9.4161 1.50049 7.90068C2.62774 6.85075 3.78184 6.60965 5.27857 6.61924C5.40835 6.61946 5.53812 6.61968 5.67182 6.61991C6.08531 6.62078 6.49879 6.62273 6.91227 6.62472C7.19303 6.6255 7.47378 6.62621 7.75454 6.62685C8.44191 6.62857 9.12927 6.63125 9.81663 6.63446C9.8142 6.53794 9.81176 6.44143 9.80926 6.34199C9.79949 5.89729 9.79352 5.45262 9.78759 5.00785C9.78369 4.85608 9.7798 4.70431 9.77579 4.54793C9.76182 3.14693 9.99799 2.05013 10.9027 0.962644C11.8123 0.223723 12.6882 -0.02116 13.844 0.00141216ZM12.4499 3.20592C12.3737 3.79208 12.3918 4.36932 12.4112 4.95915C12.414 5.11986 12.4168 5.28058 12.4197 5.44616C12.427 5.84232 12.4381 6.23841 12.4499 6.63446C13.37 6.63446 14.2901 6.63446 15.2381 6.63446C15.259 6.10504 15.2744 5.57645 15.2865 5.04681C15.293 4.89725 15.2995 4.74769 15.3062 4.59359C15.3188 3.85987 15.3245 3.484 14.892 2.87232C14.4601 2.58019 14.2684 2.47968 13.7569 2.49489C13.6417 2.49469 13.5265 2.49449 13.4077 2.49428C12.895 2.62809 12.7432 2.75309 12.4499 3.20592ZM55.2021 3.36177C55.1088 3.92689 55.1289 4.47599 55.1536 5.04681C55.1571 5.19939 55.1606 5.35197 55.1642 5.50917C55.1733 5.88437 55.1872 6.25944 55.2021 6.63446C56.1222 6.63446 57.0423 6.63446 57.9902 6.63446C58.0069 6.0759 58.0192 5.51784 58.029 4.95915C58.0342 4.80085 58.0393 4.64255 58.0447 4.47945C58.0715 3.58529 58.0715 3.58529 57.721 2.79014C57.3399 2.56436 57.1233 2.49413 56.6833 2.49489C56.5111 2.48977 56.5111 2.48977 56.3354 2.48454C55.7565 2.64266 55.5496 2.8703 55.2021 3.36177Z" fill="#074989"/>
<path d="M70.2275 57.5947C70.2786 57.5947 70.3297 57.5947 70.3824 57.5947C70.3932 59.9248 70.4014 62.255 70.4064 64.5851C70.4088 65.6672 70.4121 66.7492 70.4174 67.8313C70.4226 68.8761 70.4252 69.9209 70.4264 70.9657C70.4273 71.3637 70.429 71.7618 70.4315 72.1598C70.4349 72.7185 70.4353 73.2773 70.4351 73.8361C70.4376 74.0812 70.4376 74.0812 70.4402 74.3313C70.4335 75.9474 70.0717 77.4021 68.9883 78.6335C67.9804 79.4686 67.0587 79.9185 65.7426 79.9212C65.6355 79.9218 65.5285 79.9225 65.4182 79.9231C65.0587 79.9249 64.6993 79.9244 64.3398 79.924C64.0797 79.9248 63.8197 79.9257 63.5597 79.9268C62.8445 79.9293 62.1292 79.9299 61.414 79.9301C60.6429 79.9307 59.8717 79.933 59.1006 79.9351C57.4139 79.9394 55.7273 79.9412 54.0407 79.9426C52.9874 79.9435 51.9342 79.9448 50.881 79.9462C47.9647 79.95 45.0484 79.9532 42.1321 79.9543C41.9454 79.9543 41.7587 79.9544 41.5664 79.9545C41.3793 79.9545 41.1922 79.9546 40.9994 79.9547C40.6202 79.9548 40.2411 79.9549 39.8619 79.9551C39.6738 79.9552 39.4857 79.9552 39.292 79.9553C36.2452 79.9565 33.1985 79.962 30.1517 79.9692C27.0234 79.9766 23.8951 79.9805 20.7668 79.9809C19.0105 79.9811 17.2542 79.9829 15.4979 79.9886C14.0021 79.9934 12.5064 79.995 11.0107 79.9924C10.2478 79.9912 9.48494 79.9915 8.72205 79.9959C8.02285 79.9998 7.32379 79.9995 6.62459 79.9957C6.37242 79.9951 6.12025 79.996 5.8681 79.9987C4.203 80.0156 2.76268 79.8273 1.45384 78.6734C0.351236 77.521 0.0369289 76.0528 0.0430562 74.5055C0.0432754 74.3959 0.0434969 74.2863 0.0437227 74.1734C0.0445851 73.8257 0.0465262 73.478 0.0485019 73.1303C0.0492794 72.8936 0.049986 72.6569 0.0506197 72.4202C0.0523213 71.8419 0.0549921 71.2637 0.0581831 70.6855C0.1093 70.6855 0.160416 70.6855 0.213082 70.6855C0.243433 70.8155 0.273783 70.9455 0.305053 71.0794C0.685331 72.519 1.19154 73.5608 2.47485 74.3673C3.35281 74.8259 4.07937 75.0683 5.07111 75.0696C5.32538 75.0705 5.32538 75.0705 5.58479 75.0714C5.86405 75.0712 5.86405 75.0712 6.14896 75.071C6.34679 75.0714 6.54463 75.0719 6.74846 75.0724C7.29802 75.0736 7.84758 75.0739 8.39715 75.074C8.98974 75.0743 9.58234 75.0755 10.1749 75.0765C11.4711 75.0787 12.7673 75.0796 14.0636 75.0803C14.8732 75.0807 15.6829 75.0814 16.4926 75.0821C18.735 75.084 20.9775 75.0856 23.22 75.0861C23.4353 75.0862 23.4353 75.0862 23.655 75.0862C23.7988 75.0862 23.9427 75.0863 24.091 75.0863C24.3825 75.0864 24.6741 75.0865 24.9656 75.0865C25.1102 75.0866 25.2549 75.0866 25.4039 75.0866C27.7454 75.0872 30.087 75.09 32.4286 75.0936C34.8337 75.0973 37.2387 75.0992 39.6438 75.0994C40.9937 75.0996 42.3436 75.1004 43.6936 75.1033C44.8435 75.1057 45.9934 75.1065 47.1434 75.1052C47.7296 75.1046 48.3159 75.1047 48.9021 75.1069C49.5391 75.1093 50.176 75.108 50.8129 75.1064C51.088 75.1082 51.088 75.1082 51.3687 75.1102C53.8584 75.0954 55.2843 74.3904 57.0139 72.6483C57.146 72.5164 57.2781 72.3846 57.4142 72.2487C57.7745 71.8887 58.1341 71.5279 58.4933 71.1668C58.7182 70.9407 58.9433 70.7149 59.1685 70.4891C59.9554 69.7003 60.7415 68.9107 61.5269 68.1203C62.257 67.3856 62.9888 66.6526 63.7215 65.9204C64.3522 65.2899 64.9817 64.6582 65.6103 64.0256C65.985 63.6485 66.3602 63.272 66.7365 62.8966C67.1562 62.4774 67.5739 62.0563 67.9912 61.6346C68.1149 61.5118 68.2387 61.3891 68.3662 61.2626C69.2483 60.365 69.8746 59.4881 70.1113 58.2181C70.1344 58.0992 70.1576 57.9802 70.1815 57.8577C70.2042 57.7275 70.2042 57.7275 70.2275 57.5947Z" fill="#CDBFBA"/>
<path d="M70.2311 53.3877C70.2823 53.3877 70.3334 53.3877 70.386 53.3877C70.3997 54.05 70.4079 54.7123 70.4151 55.3747C70.4209 55.6522 70.4209 55.6522 70.4269 55.9354C70.4459 58.2715 69.9736 59.7017 68.3731 61.3787C68.1361 61.6208 67.8982 61.8622 67.6597 62.1029C67.5291 62.2358 67.3985 62.3687 67.264 62.5057C66.9087 62.8669 66.5527 63.2274 66.1962 63.5875C65.9728 63.8131 65.7497 64.0389 65.5266 64.2648C64.8264 64.9734 64.1257 65.6815 63.424 66.3886C62.6176 67.2013 61.8133 68.016 61.0107 68.8325C60.3874 69.4663 59.7624 70.0983 59.136 70.7289C58.7631 71.1045 58.3909 71.4807 58.0206 71.8588C57.607 72.2803 57.1905 72.6987 56.7732 73.1165C56.5926 73.3026 56.5926 73.3026 56.4083 73.4924C55.1442 74.7452 53.7782 75.2255 52.0085 75.2248C51.7516 75.2253 51.7516 75.2253 51.4895 75.2258C51.3029 75.2253 51.1164 75.2249 50.9242 75.2244C50.7248 75.2245 50.5254 75.2247 50.3199 75.2248C49.7674 75.2251 49.215 75.2245 48.6625 75.2237C48.0664 75.2231 47.4703 75.2233 46.8741 75.2234C45.8416 75.2235 44.8091 75.223 43.7766 75.2221C42.2837 75.2209 40.7909 75.2205 39.298 75.2203C36.876 75.2199 34.4539 75.2189 32.0318 75.2174C29.6791 75.216 27.3263 75.2149 24.9736 75.2142C24.8286 75.2142 24.6835 75.2141 24.5341 75.2141C23.8065 75.2139 23.0789 75.2137 22.3512 75.2135C16.3155 75.2119 10.2798 75.2091 4.24414 75.2056C4.24414 75.1542 4.24414 75.1028 4.24414 75.0498C4.34418 75.0498 4.44421 75.0497 4.54728 75.0497C10.478 75.0476 16.4087 75.0414 22.3393 75.03C23.0517 75.0287 23.764 75.0273 24.4763 75.026C24.6181 75.0258 24.7599 75.0255 24.906 75.0252C27.2013 75.0211 29.4965 75.0197 31.7918 75.0193C34.1475 75.0188 36.5031 75.0154 38.8588 75.0092C40.312 75.0055 41.7652 75.0041 43.2185 75.0056C44.2154 75.0065 45.2123 75.0044 46.2093 75.0001C46.7842 74.9978 47.3591 74.9966 47.934 74.9989C48.5582 75.0013 49.1823 74.9977 49.8065 74.9936C49.9871 74.9952 50.1676 74.9969 50.3536 74.9986C51.5106 74.9843 52.3767 74.7659 53.3471 74.1147C53.7013 73.7669 53.7013 73.7669 53.899 73.3842C53.9695 73.2647 54.0399 73.1452 54.1126 73.022C54.4068 72.466 54.4513 72.1401 54.4534 71.5029C54.4545 71.3145 54.4556 71.1261 54.4567 70.932C54.4577 70.6247 54.4577 70.6247 54.4587 70.3112C54.4603 70.0988 54.462 69.8863 54.464 69.6739C54.4721 68.7715 54.4795 67.8692 54.4819 66.9668C54.4835 66.4147 54.4881 65.8627 54.4945 65.3106C54.4973 65.0004 54.4969 64.6902 54.4965 64.38C54.515 62.9888 54.7444 61.9261 55.477 60.7415C56.4141 59.8248 57.3032 59.4478 58.5999 59.4434C58.7845 59.4424 58.9692 59.4413 59.1594 59.4401C59.3585 59.4395 59.5576 59.4388 59.7627 59.4382C59.9704 59.4365 60.178 59.4348 60.3856 59.4328C61.2654 59.4247 62.1452 59.4172 63.025 59.4148C63.5641 59.4132 64.1031 59.4086 64.6422 59.4021C64.9449 59.3993 65.2477 59.3996 65.5505 59.4001C67.0047 59.3801 68.2402 59.1309 69.3017 58.063C69.8381 57.2819 70.0811 56.5793 70.1252 55.6401C70.1317 55.5085 70.1382 55.3769 70.1449 55.2414C70.154 55.0374 70.154 55.0374 70.1634 54.8292C70.1701 54.6908 70.1767 54.5524 70.1836 54.4098C70.2 54.0691 70.2158 53.7284 70.2311 53.3877Z" fill="#EEE1DC"/>
<path d="M56.5604 0.0301907C56.6802 0.0263737 56.8 0.0225568 56.9234 0.0186242C57.9614 0.013368 58.7325 0.305912 59.5404 0.962202C60.5638 2.1923 60.6957 3.44358 60.6555 5.00741C60.6524 5.24321 60.6524 5.24321 60.6492 5.48377C60.6438 5.86722 60.6354 6.25063 60.6265 6.63402C59.7575 6.63402 58.8885 6.63402 57.9932 6.63402C57.9845 6.27091 57.9845 6.27091 57.9757 5.90046C57.9655 5.58329 57.9552 5.26613 57.9448 4.94897C57.9396 4.70956 57.9396 4.70956 57.9342 4.46531C57.9287 4.31213 57.9232 4.15895 57.9176 4.00113C57.9135 3.85994 57.9095 3.71875 57.9053 3.57329C57.8267 3.14158 57.7181 2.9995 57.3736 2.73795C57.0424 2.65843 57.0424 2.65843 56.6863 2.66977C56.5682 2.66676 56.4502 2.66375 56.3287 2.66064C55.8419 2.76843 55.6718 2.97492 55.3599 3.36132C55.2708 3.78143 55.2708 3.78143 55.2896 4.24753C55.2896 4.42532 55.2897 4.60312 55.2897 4.78631C55.2929 4.9774 55.2961 5.16848 55.2994 5.36536C55.3003 5.56165 55.3012 5.75793 55.3021 5.96017C55.305 6.48084 55.3105 7.00134 55.3174 7.52196C55.3237 8.05367 55.3266 8.58541 55.3297 9.11715C55.3365 10.1596 55.3469 11.202 55.3599 12.2443C55.4775 12.2709 55.5951 12.2974 55.7163 12.3247C55.9472 12.3814 55.9472 12.3814 56.1828 12.4392C56.3356 12.4753 56.4883 12.5115 56.6457 12.5487C57.1245 12.7355 57.2789 12.8899 57.5285 13.3352C57.607 13.8768 57.589 14.1602 57.3252 14.6404C56.641 15.0567 55.9804 15.0339 55.205 14.8937C54.1492 14.4092 53.3563 13.6822 52.9475 12.5813C52.6426 11.6319 52.6571 10.6962 52.6595 9.70643C52.6587 9.51074 52.6579 9.31506 52.657 9.11344C52.656 8.70147 52.656 8.28963 52.6576 7.87768C52.6593 7.3528 52.6562 6.8281 52.6517 6.30325C52.6481 5.79805 52.6492 5.29286 52.6498 4.78765C52.6481 4.60077 52.6463 4.41389 52.6445 4.22135C52.6548 2.97069 52.804 2.10286 53.656 1.14179C53.7583 1.05781 53.8605 0.973841 53.9658 0.887325C54.0681 0.800941 54.1703 0.714558 54.2756 0.625558C55.0415 0.0687655 55.6324 0.0317163 56.5604 0.0301907Z" fill="#574F56"/>
<path d="M13.8458 0.00141216C14.03 0.00380402 14.03 0.00380402 14.218 0.00624419C15.1469 0.0403361 15.8081 0.184671 16.4791 0.868286C16.5673 0.956477 16.6556 1.04467 16.7465 1.13553C17.4628 1.91595 17.7595 2.59013 17.7485 3.66676C17.7475 3.84002 17.7465 4.01329 17.7455 4.19181C17.7429 4.37111 17.7403 4.5504 17.7376 4.73513C17.7362 4.91744 17.7348 5.09974 17.7334 5.28758C17.7297 5.73655 17.7242 6.18551 17.7182 6.63446C16.9004 6.63446 16.0825 6.63446 15.2399 6.63446C15.2359 6.40544 15.2319 6.17643 15.2278 5.94047C15.219 5.63933 15.2102 5.3382 15.2011 5.03707C15.1989 4.8862 15.1967 4.73534 15.1945 4.57989C15.1733 3.71456 15.1733 3.71456 14.8121 2.94964C14.4235 2.71287 14.21 2.65869 13.7586 2.67022C13.581 2.67052 13.581 2.67052 13.3998 2.67082C12.989 2.75532 12.869 2.88155 12.6066 3.20592C12.5442 3.6895 12.5121 4.14242 12.5001 4.62799C12.4952 4.77411 12.4904 4.92023 12.4854 5.07078C12.4704 5.59199 12.4606 6.11311 12.4517 6.63446C12.4486 6.79274 12.4486 6.79274 12.4454 6.95421C12.4319 7.64719 12.422 8.3401 12.4162 9.03319C12.414 9.26466 12.4112 9.49612 12.4076 9.72758C12.403 10.0557 12.4015 10.3838 12.4009 10.7119C12.3994 10.9023 12.398 11.0927 12.3965 11.2888C12.456 11.8155 12.5498 12.0278 12.9164 12.4006C13.2144 12.5235 13.2144 12.5235 13.536 12.5662C13.8919 12.6446 14.1461 12.707 14.4654 12.8876C14.7198 13.3677 14.7284 13.8975 14.6203 14.4266C14.3674 14.79 14.2213 14.8811 13.7865 14.9672C12.7058 14.9796 11.8983 14.8294 11.0576 14.1149C10.2572 13.1469 9.95392 12.3438 9.92428 11.0924C9.91941 10.9204 9.91941 10.9204 9.91444 10.7449C9.90416 10.3715 9.89504 9.99811 9.88616 9.62469C9.88304 9.49808 9.87991 9.37147 9.87669 9.24103C9.85815 8.48505 9.84136 7.72904 9.82564 6.97299C9.8191 6.66761 9.81173 6.36225 9.80425 6.0569C9.79333 5.59033 9.78568 5.12387 9.77967 4.65721C9.77636 4.52737 9.77305 4.39753 9.76965 4.26376C9.76246 2.99102 10.0891 1.94267 10.9045 0.962644C11.8141 0.223723 12.6899 -0.02116 13.8458 0.00141216Z" fill="#554E55"/>
<path d="M50.4001 6.63477C51.1669 6.63477 51.9336 6.63477 52.7236 6.63477C52.7296 7.1618 52.7296 7.1618 52.7357 7.69949C52.7417 8.04562 52.7487 8.39173 52.7558 8.73784C52.7601 8.97554 52.7634 9.21327 52.7656 9.451C52.7538 11.7809 52.7538 11.7809 53.7736 13.8019C54.4252 14.4009 55.0515 14.7573 55.9378 14.836C56.0616 14.8476 56.1854 14.8593 56.3129 14.8713C56.4064 14.8789 56.4998 14.8866 56.5961 14.8944C56.5961 14.9458 56.5961 14.9973 56.5961 15.0503C56.1056 15.064 55.6152 15.0722 55.1245 15.0795C54.9185 15.0854 54.9185 15.0854 54.7083 15.0914C53.4034 15.1058 52.3941 14.8219 51.413 13.9204C50.5986 12.9888 50.3765 11.9359 50.385 10.7287C50.3852 10.6117 50.3854 10.4948 50.3857 10.3743C50.3865 10.0011 50.3885 9.62801 50.3904 9.25487C50.3912 9.00173 50.3919 8.74858 50.3926 8.49544C50.3941 7.87521 50.3972 7.255 50.4001 6.63477Z" fill="#082649"/>
<path d="M7.64753 6.63477C8.41428 6.63477 9.18103 6.63477 9.97101 6.63477C9.97319 6.8799 9.97319 6.8799 9.9754 7.12999C9.98162 7.74115 9.99181 8.35219 10.0032 8.96327C10.0075 9.22685 10.0108 9.49045 10.013 9.75405C10.0163 10.1348 10.0236 10.5154 10.0315 10.8961C10.0317 11.0124 10.0319 11.1287 10.0321 11.2485C10.0613 12.3221 10.4278 13.1134 11.1134 13.9301C11.9778 14.6549 12.7506 14.8236 13.8435 14.8944C13.8435 14.9458 13.8435 14.9973 13.8435 15.0503C10.2379 15.213 10.2379 15.213 8.59629 13.9204C7.48032 12.4674 7.57164 11.0298 7.6088 9.27435C7.61192 9.01796 7.61474 8.76157 7.61728 8.50518C7.62352 7.88154 7.63565 7.25842 7.64753 6.63477Z" fill="#082649"/>
</svg>
