<svg width="108" height="120" viewBox="0 0 108 120" fill="none" xmlns="http://www.w3.org/2000/svg">
<g id="phXlv3.tif">
<path id="Vector" d="M107.701 102.87C106.722 105.101 104.958 105.789 102.619 105.667C100.279 105.545 97.8792 105.639 95.4648 105.639C96.7941 111.015 95.4648 115.353 90.8098 118.35C87.052 120.776 82.2444 120.475 78.6275 117.788C74.9331 115.04 73.5873 110.766 74.8697 105.707H55.4442C56.494 109.389 56.0595 112.786 53.7038 115.806C52.1783 117.76 50.0272 119.129 47.6116 119.685C45.1959 120.241 42.6626 119.95 40.4364 118.859C38.2089 117.812 36.4146 116.024 35.3606 113.8C34.3066 111.576 34.0585 109.054 34.6588 106.667C34.8937 105.728 34.7363 105.585 33.8274 105.604C31.1359 105.662 28.442 105.653 25.7481 105.618C21.9621 105.566 19.0686 103.45 17.8802 99.9316C16.6918 96.4133 17.744 93.0031 20.7643 90.6615C23.7847 88.3199 26.7392 86.0183 29.769 83.7495C30.4266 83.2563 30.5793 82.8101 30.3914 82.0186C25.8303 62.8115 21.2842 43.5958 16.7529 24.3715C16.1704 21.9078 15.5316 19.4558 15.0055 16.9804C14.8528 16.2758 14.5616 16.1419 13.9157 16.1466C10.6277 16.1748 7.35837 16.1654 4.07734 16.1466C1.68878 16.1537 0.0165604 14.6787 0.000119991 12.5814C-0.0163204 10.4841 1.65825 8.95981 4.03741 8.95042C8.40742 8.93319 12.7767 8.93319 17.1451 8.95042C19.388 8.95042 20.6046 9.9157 21.173 12.0976C22.1547 15.8671 23.1294 19.6367 24.0595 23.418C24.2544 24.2141 24.6067 24.5265 25.4381 24.6275C27.9535 24.9399 30.4571 25.3321 32.9537 25.7572C33.872 25.8888 34.703 26.3729 35.2704 27.1068C35.8377 27.8408 36.0969 28.767 35.9928 29.6888C35.8966 30.6087 35.4424 31.4539 34.7283 32.0419C34.0143 32.6298 33.0976 32.9134 32.1763 32.8313C30.6239 32.7091 29.0879 32.4179 27.5425 32.2065C27.1268 32.1502 26.7064 32.1126 26.1732 32.0539C27.2653 36.7511 28.3316 41.3333 29.3908 45.9108C32.0025 57.2218 34.6048 68.5343 37.1977 79.8484C37.4138 80.8043 37.7848 81.0369 38.7337 81.0345C58.2931 81.0048 77.8517 80.9969 97.4095 81.011C99.1193 81.011 99.2884 80.8443 99.3259 79.1603C99.5514 67.6802 99.7823 56.2017 100.019 44.7247C100.042 43.6443 99.8309 43.0173 98.6425 42.7096C96.8035 42.2399 95.8241 40.4314 96.1882 38.6253C96.5522 36.8192 98.1399 35.6449 100.045 35.7905C104.009 36.0959 107.253 39.8067 107.21 44.1164C107.161 49.2317 107.022 54.347 106.921 59.46C106.795 65.9422 106.494 72.4268 106.59 78.9043C106.67 84.1699 102.983 88.2612 97.2521 88.2166C77.3052 88.0663 57.3536 88.1673 37.4044 88.1344C36.4028 88.1089 35.4259 88.4468 34.6541 89.0856C31.6526 91.4507 28.6041 93.7594 25.5743 96.0916C25.0271 96.5143 24.299 96.876 24.6349 97.7591C24.9378 98.567 25.6871 98.4167 26.3423 98.4167C51.7936 98.4167 77.2473 98.405 102.703 98.3815C105.052 98.3815 106.778 98.9757 107.718 101.221L107.701 102.87ZM88.7783 109.138C88.7571 107.13 87.1342 105.587 85.0698 105.615C84.1302 105.63 83.2331 106.009 82.5669 106.672C81.9008 107.334 81.5174 108.229 81.4975 109.169C81.4975 111.127 83.158 112.75 85.1778 112.748C85.6527 112.753 86.1238 112.663 86.5634 112.483C87.003 112.303 87.4022 112.037 87.7376 111.701C88.073 111.364 88.3378 110.965 88.5165 110.524C88.6952 110.084 88.7842 109.613 88.7783 109.138ZM45.1196 112.748C47.1441 112.764 48.821 111.158 48.8281 109.195C48.8351 107.231 47.1606 105.611 45.1407 105.618C44.199 105.617 43.2937 105.981 42.614 106.633C41.9342 107.285 41.5327 108.174 41.4933 109.115C41.4417 111.062 43.1092 112.734 45.1196 112.748Z" fill="#F6AE2E"/>
<path id="Vector_2" d="M68.3455 0C69.3366 0.441542 70.4264 0.413359 71.4621 0.65057C77.332 1.99079 82.5576 5.32009 86.2527 10.0738C89.9478 14.8275 91.8849 20.713 91.7355 26.7321C91.4419 38.9449 82.341 49.4809 70.2667 51.5829C66.8134 52.2033 63.2704 52.1208 59.8497 51.3405C56.429 50.5601 53.2008 49.0979 50.3582 47.0413C47.5156 44.9847 45.1169 42.376 43.3057 39.3711C41.4944 36.3662 40.3078 33.0268 39.8167 29.5528C37.865 15.8885 47.3652 2.8301 60.9896 0.429799C61.4898 0.340551 62.084 0.472074 62.4904 0.00939451L68.3455 0ZM65.6352 7.1962C61.9212 7.21753 58.2967 8.33799 55.2186 10.4163C52.1406 12.4946 49.7467 15.4377 48.3389 18.8746C46.9311 22.3115 46.5724 26.0882 47.308 29.7287C48.0436 33.3691 49.8405 36.7103 52.4723 39.3309C55.104 41.9516 58.4528 43.7344 62.0963 44.4545C65.7398 45.1747 69.515 44.8 72.9459 43.3777C76.3768 41.9554 79.3097 39.5491 81.375 36.4623C83.4403 33.3754 84.5454 29.7462 84.551 26.0322C84.552 23.5516 84.0628 21.0953 83.1115 18.8044C82.1602 16.5134 80.7657 14.4331 79.0079 12.6827C77.2502 10.9324 75.1639 9.54667 72.869 8.60511C70.5741 7.66356 68.1157 7.18475 65.6352 7.1962Z" fill="#F6AE2E"/>
<path id="Vector_3" d="M56.3302 22.4293C56.859 22.4233 57.3823 22.5379 57.8601 22.7646C58.3379 22.9913 58.7577 23.3241 59.0875 23.7375C59.9212 24.7169 60.8043 25.661 61.5582 26.6991C62.0937 27.4343 62.3826 27.2722 62.9134 26.6991C65.9361 23.4416 68.9728 20.1958 72.0542 16.9946C73.9707 15.003 77.1625 15.6864 78.0315 18.23C78.4824 19.5452 78.2804 20.797 77.3269 21.821C73.1479 26.2928 68.9517 30.7497 64.7383 35.1918C63.2704 36.7301 60.6047 36.601 59.2049 34.9945C57.2931 32.7821 55.4142 30.5446 53.5682 28.2821C52.5888 27.0914 52.4174 25.7456 53.1266 24.3552C53.7843 23.0564 54.8811 22.4411 56.3302 22.4293Z" fill="#F6AE2E"/>
</g>
</svg>
