<svg width="123" height="120" viewBox="0 0 123 120" fill="none" xmlns="http://www.w3.org/2000/svg">
<g id="Layer_1" clip-path="url(#clip0_768_545)">
<g id="GH0nUY.tif">
<path id="Vector" d="M0 109.452V10.5381C0.258662 10.4806 0.220342 10.2531 0.270637 10.0734C2.15552 3.4608 6.70605 0 13.5319 0C45.3856 0 77.2322 0 109.072 0C116.877 0 122.34 5.46783 122.34 13.2876C122.34 44.4132 122.34 75.5389 122.34 106.665C122.34 114.161 117.411 119.44 109.924 119.998C109.606 119.983 109.289 119.957 108.966 119.957H13.369C13.0529 119.957 12.7367 119.983 12.411 119.998C6.67731 119.576 2.33275 116.312 0.603545 111.167C0.419128 110.592 0.495769 109.912 0 109.452ZM61.2095 27.6912C42.2936 27.6912 23.3778 27.6848 4.46192 27.672C3.57337 27.672 3.26441 27.8325 3.26441 28.8121C3.29475 54.7741 3.30353 80.7353 3.29076 106.696C3.25726 107.532 3.31752 108.369 3.47038 109.191C4.5218 113.871 8.26042 116.762 13.4001 116.762C45.2587 116.775 77.1124 116.775 108.961 116.762C109.877 116.767 110.791 116.676 111.687 116.489C115.694 115.624 119.078 111.893 119.061 106.655C118.988 80.7744 118.988 54.893 119.061 29.0109C119.061 27.9091 118.769 27.6696 117.703 27.672C98.8767 27.7024 80.0455 27.7088 61.2095 27.6912ZM61.1808 24.4052C80.0535 24.4052 98.9262 24.4148 117.799 24.434C118.872 24.434 119.097 24.1562 119.076 23.1335C119.004 19.7805 119.035 16.4442 119.054 13.1008C119.054 11.5679 118.858 10.083 118.165 8.7035C116.228 4.83554 112.999 3.19495 108.765 3.19495C77.031 3.20932 45.297 3.20932 13.563 3.19495C13.2828 3.19495 13.005 3.19495 12.7271 3.20932C7.04135 3.53026 3.32668 7.42456 3.29794 13.1175C3.28118 16.4705 3.34584 19.8068 3.26681 23.1479C3.24046 24.2112 3.52307 24.4316 4.56012 24.4316C23.4329 24.3965 42.3064 24.3877 61.1808 24.4052Z" fill="#F6AE2E"/>
<path id="Vector_2" d="M50.9899 97.1058C51.7994 101.086 52.5754 105.021 53.4016 108.944C54.18 112.654 54.0483 112.853 50.3169 113.27C48.341 113.493 46.3723 113.804 44.394 113.988C42.957 114.118 42.5378 113.749 42.2385 112.364C41.223 107.541 40.229 102.714 39.2567 97.8842C39.1369 97.2878 38.9597 97.0675 38.3154 96.9693C36.6389 96.7154 35.3288 95.8508 34.8905 94.0953C34.7516 93.5396 34.5097 93.4103 33.9924 93.427C32.9985 93.4606 32.0022 93.4534 31.0058 93.427C28.5917 93.3815 26.6589 91.7673 26.4553 89.3914C26.235 86.7319 26.235 84.0588 26.4553 81.3993C26.6517 79.0521 28.5198 77.469 30.8861 77.3948C31.2849 77.3719 31.6847 77.3719 32.0836 77.3948C33.5661 77.5193 34.8019 77.5553 35.4366 75.6656C35.9012 74.2908 37.3838 73.7735 38.8902 73.7759C41.599 73.7759 44.3149 73.6514 47.0141 73.8047C50.9707 74.0274 54.7261 73.3257 58.4719 72.1042C63.7936 70.3726 69.18 68.847 74.5425 67.2351C76.4776 66.6555 77.2872 67.2711 77.2943 69.338C77.2943 71.9725 77.3159 74.5926 77.28 77.22C77.28 77.8403 77.4668 78.1061 78.0488 78.3169C81.2701 79.4856 83.1071 82.0675 83.1238 85.3606C83.1406 88.6538 81.306 91.2931 78.0129 92.4954C77.3949 92.7205 77.2776 93.0438 77.2943 93.6282C77.3207 96.2963 77.3159 98.9643 77.2943 101.632C77.2824 103.5 76.3986 104.154 74.6143 103.62C67.6959 101.545 60.7791 99.4601 53.8639 97.3669C52.9382 97.0626 51.9553 96.9733 50.9899 97.1058ZM74.0635 85.4205C74.0635 80.9251 74.0371 76.4296 74.0826 71.9342C74.0826 71.0145 73.9557 70.7869 72.9977 71.0791C67.1954 72.8578 61.3842 74.599 55.5643 76.3027C54.8722 76.5062 54.6447 76.7817 54.6494 77.5193C54.683 82.7724 54.683 88.0247 54.6494 93.2762C54.6494 93.9707 54.8051 94.3036 55.5404 94.5168C61.4034 96.23 67.256 97.98 73.0983 99.7667C73.9102 100.006 74.0922 99.872 74.085 99.029C74.0419 94.4928 74.0635 89.9567 74.0635 85.4205ZM51.3826 85.4397C51.3826 82.9321 51.3587 80.4221 51.3994 77.9169C51.3994 77.1984 51.2437 76.9589 50.4845 76.9757C46.7818 77.0188 43.0791 77.014 39.3764 76.9757C38.3537 76.9757 37.9681 77.3517 37.9753 78.3887C38.0121 83.0862 38.0121 87.7836 37.9753 92.481C37.9753 93.4797 38.3561 93.8174 39.3118 93.8102C43.056 93.7831 46.7986 93.7831 50.5396 93.8102C51.2198 93.8102 51.409 93.6282 51.3994 92.9504C51.3611 90.4548 51.3826 87.9472 51.3826 85.4397ZM45.7448 110.549C46.8704 110.413 48.1398 110.226 49.3924 110.12C50.1636 110.058 50.2737 109.728 50.1253 109.04C49.5624 106.446 49.0691 103.836 48.5038 101.242C48.2021 99.8601 48.4464 97.9321 47.4548 97.2495C46.4633 96.5669 44.7029 97.0603 43.2779 97.0387C43.1981 97.0436 43.1182 97.0436 43.0384 97.0387C42.5139 96.9717 42.4468 97.2495 42.5331 97.6758C43.3905 101.827 44.2439 105.979 45.0933 110.13C45.158 110.432 45.2227 110.688 45.7448 110.549ZM34.6918 85.4133V83.8661C34.6918 80.3 34.6918 80.3047 31.1112 80.6113C30.1532 80.6927 29.655 81.1717 29.6526 82.1297C29.6526 84.314 29.6526 86.4967 29.6526 88.6777C29.6526 89.6357 30.158 90.1554 31.116 90.1794C32.074 90.2034 33.032 90.1602 33.9733 90.2057C34.5552 90.2321 34.7181 90.0213 34.7037 89.4609C34.6702 88.1125 34.6918 86.7617 34.6918 85.4133ZM77.2872 81.5118C77.2872 84.017 77.2872 86.2755 77.2872 88.534C77.2872 88.9292 77.2201 89.4657 77.8859 89.0346C79.3229 88.1173 79.9624 86.7881 79.8426 85.1044C79.7325 83.4877 78.9589 82.3118 77.2872 81.5118Z" fill="#F6AE2E"/>
<path id="Vector_3" d="M31.7773 30.3667C37.4694 30.3667 43.164 30.3667 48.8609 30.3667C52.3864 30.3667 54.5252 32.4743 54.5324 35.9854C54.5467 43.5919 54.5467 51.1977 54.5324 58.8027C54.5324 62.3162 52.4008 64.4382 48.8633 64.443C37.4742 64.4573 26.0851 64.4573 14.696 64.443C11.1035 64.443 8.94796 62.3138 8.94796 58.7476C8.9288 51.1826 8.9288 43.6175 8.94796 36.0524C8.94796 32.4599 11.1035 30.3667 14.696 30.3667C20.3866 30.3635 26.0803 30.3635 31.7773 30.3667ZM29.3823 46.5833C30.7618 44.3823 32.0168 42.3657 33.2909 40.3563C34.5651 38.3469 35.6859 38.3516 36.9242 40.3203C41.0755 46.9146 45.2269 53.5057 49.3783 60.0936C49.5866 60.4217 49.6513 61.0516 50.2165 60.9223C50.6812 60.8097 50.971 60.3714 51.1554 59.9068C51.2953 59.4908 51.3531 59.0515 51.3254 58.6135C51.3254 51.1698 51.3254 43.7245 51.3254 36.2776C51.3254 34.2729 50.6955 33.643 48.6909 33.643C37.3816 33.643 26.0723 33.643 14.7631 33.643C12.8231 33.643 12.2028 34.2825 12.2028 36.2249C12.2028 43.6718 12.2028 51.1179 12.2028 58.5632C12.181 58.9591 12.2116 59.3561 12.2938 59.7439C12.4447 60.2924 12.7728 60.8409 13.35 60.9415C13.8673 61.0205 13.9464 60.3906 14.1595 60.0505C17.5125 54.7431 20.8544 49.4278 24.1851 44.1045C25.4089 42.1549 26.5801 42.1693 27.8351 44.1428C28.3093 44.8876 28.7955 45.6517 29.3847 46.5833H29.3823ZM35.1303 43.556C31.3821 49.5148 27.7584 55.2916 24.0821 61.1259H46.1498L35.1303 43.556ZM25.9765 47.3473C23.069 51.9961 20.2381 56.5226 17.3066 61.181C18.1664 61.181 18.8298 61.145 19.486 61.1929C20.0369 61.2336 20.3291 61.0133 20.6117 60.5583C22.7361 57.119 24.8892 53.6965 27.0327 50.2597C27.2148 49.9699 27.4974 49.7088 27.2339 49.3017C26.8244 48.7005 26.4388 48.0682 25.9837 47.3473H25.9765Z" fill="#F6AE2E"/>
<path id="Vector_4" d="M90.6828 30.3667C96.3781 30.3667 102.073 30.3667 107.766 30.3667C111.194 30.3667 113.39 32.4958 113.402 35.9303C113.431 43.5752 113.431 51.2201 113.402 58.865C113.388 62.2899 111.208 64.4358 107.766 64.443C96.3374 64.4589 84.9084 64.4589 73.4794 64.443C69.9419 64.443 67.8152 62.3138 67.8104 58.8051C67.7976 51.1985 67.7976 43.5927 67.8104 35.9878C67.8104 32.4743 69.9539 30.369 73.4794 30.3667C79.2162 30.3635 84.9507 30.3635 90.6828 30.3667ZM90.5463 61.1786H107.503C109.505 61.1786 110.15 60.5391 110.152 58.544C110.152 51.1003 110.152 43.6574 110.152 36.2153C110.152 34.2681 109.529 33.6287 107.596 33.6263C96.2504 33.6263 84.906 33.6263 73.5632 33.6263C71.6472 33.6263 71.0221 34.2897 71.0197 36.2416C71.0197 43.6822 71.0197 51.1243 71.0197 58.568C71.0197 60.5008 71.6855 61.169 73.5895 61.1714L90.5463 61.1786Z" fill="#F6AE2E"/>
<path id="Vector_5" d="M90.5481 83.6459C91.6977 83.6459 92.8474 83.6459 93.997 83.6459C95.2687 83.6627 95.8579 84.192 95.8555 85.2865C95.8555 86.326 95.2735 86.9175 94.1023 86.9319C91.7233 86.9622 89.3442 86.9622 86.9652 86.9319C85.806 86.9151 85.212 86.3044 85.2168 85.277C85.2216 84.2495 85.83 83.6699 86.9772 83.6483C88.1675 83.6292 89.3578 83.6459 90.5481 83.6459Z" fill="#F6AE2E"/>
<path id="Vector_6" d="M82.1227 74.0852C82.0982 73.8056 82.1553 73.5249 82.2871 73.2771C82.4189 73.0293 82.6197 72.825 82.8652 72.6889C85.0542 71.4172 87.2385 70.1335 89.4563 68.9096C90.3089 68.4306 91.1017 68.6988 91.5854 69.5563C92.0285 70.3418 91.9519 71.1609 91.1567 71.6495C88.9318 73.0123 86.7403 74.4445 84.3477 75.5103C83.2077 76.018 82.1491 75.3019 82.1227 74.0852Z" fill="#F6AE2E"/>
<path id="Vector_7" d="M83.6613 94.886C84.1024 94.8707 84.5365 95.0002 84.8971 95.2548C86.8873 96.3996 88.8824 97.5349 90.8631 98.6965C91.9744 99.3503 92.2522 100.133 91.7612 101.036C91.2942 101.903 90.5397 102.09 89.4141 101.563C87.1867 100.519 85.1222 99.185 83.0242 97.9157C82.3943 97.5349 82.0662 96.9577 82.2841 96.1985C82.5021 95.4392 82.9859 94.9722 83.6613 94.886Z" fill="#F6AE2E"/>
<path id="Vector_8" d="M90.4505 12.2C97.0559 12.2 103.661 12.2 110.267 12.2C111.136 12.2 111.843 12.3773 112.152 13.2993C112.236 13.5125 112.272 13.7418 112.258 13.9707C112.243 14.1995 112.177 14.4222 112.066 14.6227C111.954 14.8232 111.8 14.9964 111.614 15.13C111.427 15.2635 111.213 15.354 110.988 15.395C110.671 15.448 110.35 15.4681 110.03 15.4549C96.937 15.4549 83.8442 15.4549 70.7515 15.4549C70.4731 15.4646 70.1945 15.4526 69.918 15.4189C68.9839 15.2728 68.5265 14.7004 68.5528 13.7688C68.5792 12.8371 69.0869 12.2551 70.0234 12.224C71.5729 12.1761 73.1369 12.2072 74.6793 12.2072L90.4505 12.2Z" fill="#F6AE2E"/>
<path id="Vector_9" d="M34.2295 19.6127C33.0893 19.5985 31.9787 19.2479 31.037 18.6049C30.0953 17.9618 29.3645 17.055 28.9363 15.9981C28.5081 14.9413 28.4016 13.7815 28.6301 12.6644C28.8586 11.5472 29.412 10.5224 30.2208 9.71857C31.0296 8.91474 32.0578 8.36769 33.1763 8.14605C34.2948 7.92441 35.4539 8.03806 36.5081 8.47274C37.5623 8.90742 38.4647 9.64377 39.1019 10.5894C39.7392 11.535 40.0829 12.6478 40.0901 13.788C40.0825 15.3367 39.4615 16.8193 38.363 17.911C37.2645 19.0027 35.7782 19.6146 34.2295 19.6127ZM34.2798 16.3196C34.6088 16.3352 34.9374 16.2827 35.2452 16.1656C35.553 16.0484 35.8333 15.869 36.0686 15.6387C36.304 15.4083 36.4893 15.1318 36.6129 14.8266C36.7366 14.5214 36.796 14.1939 36.7874 13.8647C36.7896 13.5376 36.7273 13.2132 36.6042 12.9102C36.481 12.6072 36.2994 12.3313 36.0697 12.0985C35.8399 11.8656 35.5666 11.6803 35.2652 11.5531C34.9639 11.4259 34.6404 11.3593 34.3133 11.3571C33.9862 11.3549 33.6619 11.4171 33.3588 11.5403C33.0558 11.6634 32.78 11.845 32.5471 12.0748C32.3143 12.3045 32.129 12.5779 32.0018 12.8792C31.8745 13.1806 31.8079 13.504 31.8057 13.8311C31.7927 14.1602 31.8477 14.4884 31.9672 14.7953C32.0867 15.1021 32.2683 15.381 32.5004 15.6145C32.7326 15.8481 33.0105 16.0312 33.3166 16.1525C33.6228 16.2738 33.9507 16.3307 34.2798 16.3196Z" fill="#F6AE2E"/>
<path id="Vector_10" d="M52.6902 8.03514C53.8372 8.02044 54.9627 8.34686 55.9239 8.97298C56.8851 9.59909 57.6386 10.4967 58.0888 11.5518C58.5389 12.6069 58.6655 13.772 58.4523 14.8991C58.2391 16.0263 57.6959 17.0647 56.8915 17.8825C56.0871 18.7004 55.0579 19.2608 53.9345 19.4927C52.811 19.7246 51.644 19.6174 50.5815 19.1849C49.5191 18.7523 48.6091 18.0138 47.9671 17.0632C47.3251 16.1125 46.98 14.9926 46.9756 13.8455C46.9686 12.3189 47.5653 10.8514 48.6358 9.76295C49.7063 8.67453 51.1637 8.05346 52.6902 8.03514ZM52.7692 16.3147C54.2302 16.3147 55.2121 15.3064 55.2169 13.8311C55.2217 12.3558 54.1272 11.2421 52.6902 11.2852C52.3611 11.2912 52.0366 11.3632 51.7358 11.497C51.4351 11.6307 51.1643 11.8234 50.9394 12.0637C50.7145 12.304 50.5401 12.587 50.4265 12.896C50.313 13.2049 50.2626 13.5335 50.2784 13.8622C50.2702 14.19 50.3295 14.5159 50.4524 14.8199C50.5754 15.1238 50.7594 15.3993 50.9931 15.6292C51.2269 15.8591 51.5053 16.0386 51.8112 16.1565C52.1171 16.2744 52.444 16.3283 52.7716 16.3147H52.7692Z" fill="#F6AE2E"/>
<path id="Vector_11" d="M15.8068 8.03544C17.342 8.0202 18.8205 8.61546 19.9169 9.69029C21.0133 10.7651 21.6378 12.2314 21.653 13.7667C21.6682 15.302 21.073 16.7804 19.9982 17.8768C18.9233 18.9732 17.457 19.5977 15.9217 19.613C14.3864 19.6282 12.908 19.0329 11.8116 17.9581C10.7152 16.8833 10.0907 15.417 10.0755 13.8817C10.0602 12.3464 10.6555 10.868 11.7303 9.77158C12.8051 8.67519 14.2715 8.05069 15.8068 8.03544ZM15.8762 16.3174C16.2046 16.3234 16.5307 16.2626 16.8348 16.1386C17.1389 16.0146 17.4146 15.8301 17.6451 15.5962C17.8757 15.3623 18.0562 15.084 18.1758 14.7781C18.2954 14.4722 18.3515 14.1452 18.3407 13.817C18.3467 13.4879 18.2873 13.1609 18.166 12.855C18.0447 12.5491 17.8638 12.2702 17.6339 12.0347C17.4039 11.7992 17.1295 11.6118 16.8266 11.4831C16.5236 11.3545 16.1982 11.2873 15.869 11.2855C14.4153 11.2567 13.3471 12.3752 13.3734 13.8913C13.4117 15.3474 14.4057 16.3318 15.8714 16.3174H15.8762Z" fill="#F6AE2E"/>
<path id="Vector_12" d="M84.3166 47.3229C84.3166 44.298 84.3285 41.2755 84.3166 38.2506C84.3166 37.4435 84.4363 36.7441 85.2195 36.3346C86.0026 35.925 86.6565 36.2867 87.3008 36.7393C91.5519 39.7451 95.815 42.7269 100.059 45.747C101.585 46.8296 101.561 47.9672 100.03 49.0521C95.8182 52.0411 91.6046 55.0301 87.3894 58.0191C86.702 58.4981 86.0098 58.8573 85.1883 58.4526C84.3309 58.0334 84.3142 57.2263 84.3166 56.4C84.3261 53.3703 84.3166 50.3478 84.3166 47.3229ZM96.7228 47.3876L87.5786 40.921V53.8541L96.7228 47.3876Z" fill="#F6AE2E"/>
</g>
</g>
<defs>
<clipPath id="clip0_768_545">
<rect width="122.345" height="120" fill="white"/>
</clipPath>
</defs>
</svg>
