<svg width="120" height="120" viewBox="0 0 120 120" fill="none" xmlns="http://www.w3.org/2000/svg">
<g id="BALkX0.tif">
<path id="Vector" d="M0 62.5817C0.678803 61.0879 0.610688 59.4273 1.0781 57.8841C4.3077 47.1195 11.239 39.9768 22.0787 37.1113C37.3577 33.0643 52.5943 41.574 57.501 56.6533C59.6666 63.3051 59.1592 69.9593 57.0312 76.5453C55.8108 80.2039 54.2054 83.7225 52.242 87.0421C51.7723 87.8642 51.0864 88.3386 50.1117 88.085C49.7444 88.0016 49.4169 87.7947 49.1839 87.4989C48.9509 87.203 48.8265 86.8362 48.8316 86.4596C48.801 85.8513 49.1439 85.3486 49.4352 84.8413C51.518 81.2748 53.1428 77.4601 54.2714 73.4872C57.4 62.2129 53.7335 51.3028 44.444 44.4067C35.9437 38.0955 23.1733 38.0649 14.6142 44.3198C7.53495 49.5012 3.79566 56.4866 3.59132 65.2382C3.45743 70.9646 5.13683 76.3245 7.68293 81.4026C11.5866 89.1889 16.9395 95.8971 23.1169 101.997C24.9521 103.805 26.8311 105.569 28.754 107.286C29.2754 107.756 29.5925 107.827 30.175 107.315C35.4669 102.657 40.3594 97.6375 44.6272 92.0262C44.8175 91.7773 44.9983 91.5213 45.2097 91.2934C45.959 90.4878 46.9619 90.3539 47.7182 90.9599C48.4745 91.5659 48.6014 92.6252 47.939 93.4825C46.5783 95.2425 45.1847 96.976 43.7581 98.6828C42.7364 99.9065 41.6442 101.071 40.5285 102.326C43.0676 103.091 45.4164 103.996 47.4528 105.56C49.9989 107.519 50.8961 110.314 49.7241 112.736C48.9255 114.38 47.5749 115.491 46.0271 116.369C42.8586 118.166 39.3823 118.983 35.8215 119.531C34.9689 119.662 34.067 119.542 33.2708 120H25.3083C24.6319 119.568 23.8474 119.643 23.1051 119.531C19.5819 119.005 16.148 118.171 12.9936 116.437C12.1365 115.966 11.3465 115.383 10.6448 114.702C7.72755 111.883 8.1198 108.108 11.5843 105.485C13.5925 103.965 15.9037 103.089 18.3958 102.337C18.0693 101.952 17.8321 101.654 17.5737 101.372C14.2696 97.833 11.2587 94.0311 8.57077 90.0039C4.73753 84.1578 1.72637 77.9616 0.549619 70.9787C0.39225 70.0509 0.432179 69.0785 0.0023488 68.2024V66.5582C0.389901 65.9334 0.302995 65.3087 0.0023488 64.6792L0 62.5817ZM28.8362 116.466C31.2127 116.506 33.5883 116.342 35.9366 115.975C39.131 115.441 42.2901 114.737 45.0077 112.823C47.3001 111.211 47.2931 109.722 44.9795 108.09C43.0018 106.697 40.7329 106.018 38.4193 105.436C37.7969 105.278 37.4234 105.424 36.9936 105.847C35.077 107.74 33.0594 109.525 30.9619 111.218C29.8603 112.106 29.1275 112.134 28.0517 111.246C26.727 110.152 25.4117 109.046 24.141 107.892C20.8973 104.956 20.909 104.949 16.8057 106.601C15.3494 107.188 13.9542 107.874 12.8855 109.064C11.9789 110.074 12.0047 110.817 12.8855 111.85C13.5932 112.627 14.4525 113.25 15.4105 113.682C19.8591 115.883 24.6624 116.341 28.8362 116.466Z" fill="#F6AE2E"/>
<path id="Vector_2" d="M0 64.6904C0.300646 65.3152 0.387552 65.94 0 66.5695V64.6904Z" fill="#F6AE2E"/>
<path id="Vector_3" d="M87.556 50.997C85.0953 48.3376 82.8321 45.5021 80.7844 42.5131C77.4843 37.6111 74.9946 32.3757 74.1396 26.4661C73.992 25.3831 73.9136 24.2919 73.9047 23.1989C73.8836 22.1044 74.6094 21.3551 75.5771 21.3199C76.5448 21.2846 77.3387 21.9 77.381 23.0415C77.7075 31.8707 82.1021 38.8772 87.415 45.4561C90.0927 48.7703 93.1273 51.7556 96.3193 54.5765C96.7069 54.9218 96.9653 55.0651 97.4421 54.6376C104.052 48.6998 109.982 42.2242 113.743 34.0574C116.162 28.7961 117.25 23.3328 115.601 17.5829C113.036 8.6434 104.326 2.71738 95.0862 3.69448C87.9881 4.44609 82.8161 8.0656 79.4925 14.358C79.2929 14.7385 79.1214 15.1331 78.9006 15.4995C78.3322 16.4391 77.3716 16.7538 76.5119 16.284C75.5489 15.7579 75.4009 14.8748 75.7626 13.9705C76.3892 12.371 77.2393 10.8685 78.2876 9.50776C84.2935 1.80134 92.1949 -1.44939 101.719 0.601108C111.244 2.65161 117.16 8.86654 119.413 18.3369C120.561 23.1637 119.81 27.9482 118.149 32.5918C115.767 39.2436 111.735 44.8502 107.086 50.0645C106.163 51.1003 106.166 51.0839 107.486 51.5912C108.81 52.0602 110.048 52.746 111.147 53.6206C114.02 56.021 113.966 59.3352 111.042 61.6699C109.421 62.9618 107.54 63.7251 105.571 64.2113C99.0651 65.8202 92.5942 65.7874 86.2172 63.5396C84.4673 62.9242 82.8678 62.0434 81.6722 60.573C80.0868 58.6235 80.162 56.2841 81.8413 54.4121C83.0745 53.0381 84.6599 52.2395 86.3487 51.5701C86.7362 51.4174 87.1919 51.408 87.556 50.997ZM97.4209 61.8273C98.7269 61.7075 100.528 61.6464 102.29 61.3575C104.597 60.977 106.868 60.3875 108.791 58.9524C110.039 58.0128 110.041 57.2871 108.881 56.3687C107.471 55.2483 105.811 54.7503 104.124 54.2547C103.875 54.1609 103.602 54.1448 103.343 54.2085C103.084 54.2722 102.851 54.4128 102.673 54.6118C101.362 55.8363 100.027 57.0326 98.6681 58.2007C97.2095 59.4503 96.6482 59.4597 95.2201 58.243C93.792 57.0263 92.4744 55.819 91.1238 54.5812C90.7527 54.243 90.4192 54.0269 89.8883 54.2054C88.7492 54.5906 87.5536 54.8161 86.4896 55.4127C85.5219 55.9553 84.1526 56.3099 84.1643 57.5994C84.176 58.8889 85.4773 59.3188 86.4802 59.8144C89.7662 61.4303 93.3387 61.6817 97.4092 61.8273H97.4209Z" fill="#F6AE2E"/>
<path id="Vector_4" d="M42.2363 65.4985C42.2363 72.4768 36.6133 78.2008 29.6749 78.2807C26.3022 78.3239 23.0479 77.038 20.6156 74.7011C18.1833 72.3642 16.7683 69.1639 16.6767 65.7921C16.663 64.6204 16.806 63.4521 17.1018 62.3182C17.386 61.1697 18.2128 60.5449 19.1828 60.7328C20.2163 60.9301 20.8106 61.8766 20.524 63.0675C19.905 65.4711 20.2595 68.0219 21.5105 70.1656C24.0754 74.7011 30.2199 76.1221 34.6239 73.1767C39.0279 70.2313 40.0519 63.8778 36.7378 59.8074C33.6209 55.9906 28.679 55.152 24.47 57.7216C24.1059 57.9424 23.7395 58.2219 23.3402 58.3159C22.4477 58.5226 21.7195 58.236 21.3132 57.3576C20.874 56.418 21.2427 55.6664 22.0178 55.1309C25.1558 52.9465 28.625 52.1949 32.3526 53.0381C35.1695 53.6852 37.6825 55.2713 39.4787 57.5357C41.2748 59.8002 42.2473 62.6082 42.2363 65.4985Z" fill="#F6AE2E"/>
<path id="Vector_5" d="M96.9038 12.8154C99.6045 12.8265 102.192 13.9025 104.104 15.8097C106.016 17.717 107.099 20.3015 107.116 23.0022C107.138 28.5759 102.564 33.203 96.9649 33.2711C91.403 33.3392 86.6701 28.6135 86.6866 23.0069C86.7081 20.3061 87.7923 17.7225 89.7045 15.8152C91.6167 13.9078 94.2031 12.8302 96.9038 12.8154ZM96.8498 16.3386C95.9702 16.3451 95.1006 16.5249 94.2905 16.8677C93.4805 17.2106 92.746 17.7098 92.1291 18.3367C91.5122 18.9637 91.0249 19.7061 90.6952 20.5216C90.3654 21.3371 90.1997 22.2095 90.2074 23.0891C90.2333 26.7438 93.329 29.7996 96.9602 29.755C98.7346 29.7241 100.425 28.9958 101.667 27.7276C102.908 26.4594 103.6 24.7533 103.593 22.9787C103.588 22.0999 103.409 21.2308 103.067 20.4213C102.724 19.6119 102.226 18.878 101.599 18.2617C100.973 17.6454 100.231 17.1589 99.4155 16.8301C98.6005 16.5013 97.7286 16.3367 96.8498 16.3457V16.3386Z" fill="#F6AE2E"/>
<path id="Vector_6" d="M93.7906 78.5957C94.2694 78.6139 94.7464 78.6633 95.2187 78.7437C95.5876 78.8106 95.92 79.0082 96.1551 79.3002C96.3901 79.5922 96.5122 79.9592 96.4988 80.3338C96.5199 81.1794 96.0901 81.837 95.2164 82.039C94.2632 82.2245 93.2854 82.2459 92.325 82.1025C91.315 81.9897 90.6268 81.2287 90.6996 80.3315C90.7818 79.3544 91.3432 78.7813 92.3273 78.6709C92.7501 78.6239 93.1776 78.6262 93.7906 78.5957Z" fill="#F6AE2E"/>
<path id="Vector_7" d="M102.831 82.2077C102.325 82.1877 101.822 82.1367 101.323 82.055C100.442 81.8648 100.01 81.2588 100.017 80.3709C100.017 79.5301 100.451 78.9358 101.269 78.7573C102.342 78.5269 103.451 78.5269 104.524 78.7573C105.414 78.9476 105.811 79.6452 105.778 80.4978C105.748 81.3011 105.309 81.9071 104.463 82.0621C103.922 82.1381 103.377 82.1867 102.831 82.2077Z" fill="#F6AE2E"/>
<path id="Vector_8" d="M84.1266 82.1819C83.7766 82.149 83.267 82.1396 82.7714 82.0551C81.8577 81.8954 81.4231 81.2377 81.4161 80.3968C81.4091 79.556 81.8506 78.9007 82.7573 78.7221C83.6819 78.5649 84.6251 78.5482 85.5547 78.6728C86.6234 78.7903 87.2411 79.4761 87.1871 80.4415C87.1331 81.4491 86.5529 81.994 85.5688 82.1091C85.1436 82.1584 84.7138 82.1537 84.1266 82.1819Z" fill="#F6AE2E"/>
<path id="Vector_9" d="M74.8443 82.1841C74.3573 82.1706 73.8721 82.1204 73.3927 82.0337C72.519 81.827 72.1079 81.1976 72.1361 80.3121C72.1643 79.4712 72.6059 78.9028 73.428 78.7337C74.3885 78.5628 75.37 78.5462 76.3358 78.6843C77.3481 78.7947 77.8883 79.4266 77.8789 80.4107C77.8695 81.3949 77.3058 81.9962 76.2982 82.1066C75.8778 82.1512 75.4479 82.1535 74.8443 82.1841Z" fill="#F6AE2E"/>
<path id="Vector_10" d="M66.8581 112.19C66.3921 112.173 65.9281 112.12 65.47 112.033C65.1004 111.962 64.7693 111.759 64.5385 111.461C64.3077 111.164 64.193 110.793 64.2157 110.417C64.2157 109.541 64.6667 108.923 65.5452 108.733C66.4689 108.569 67.412 108.546 68.3426 108.665C69.3549 108.761 70.0901 109.536 70.0126 110.424C69.928 111.394 69.3807 111.998 68.3684 112.103C67.9527 112.15 67.5228 112.155 66.8581 112.19Z" fill="#F6AE2E"/>
<path id="Vector_11" d="M76.3762 112.112C75.9064 112.091 75.4367 112.112 74.9669 112.04C74.0767 111.91 73.5811 111.354 73.5247 110.471C73.4684 109.588 73.87 108.953 74.7391 108.714C75.7292 108.482 76.7563 108.455 77.7573 108.634C78.732 108.768 79.2746 109.386 79.2652 110.396C79.2652 111.359 78.6075 111.986 77.5365 112.073C77.1489 112.103 76.7567 112.073 76.3621 112.073L76.3762 112.112Z" fill="#F6AE2E"/>
<path id="Vector_12" d="M73.4885 55.793C73.8578 55.8263 74.2243 55.8851 74.5854 55.9691C75.4592 56.204 75.8608 56.8711 75.7974 57.7284C75.734 58.5857 75.2431 59.1917 74.3388 59.2974C73.5251 59.3971 72.7064 59.4512 71.8867 59.4594C70.8532 59.4594 70.118 58.783 70.0476 57.8646C69.97 56.8523 70.5854 56.1218 71.6917 55.9668C72.2249 55.901 72.7722 55.8611 73.4885 55.793Z" fill="#F6AE2E"/>
<path id="Vector_13" d="M119.505 90.995C119.406 91.9627 119.049 92.5804 118.258 92.8223C117.426 93.076 116.677 92.8599 116.257 92.0801C115.77 91.1992 115.421 90.2485 115.223 89.2615C115.14 88.897 115.189 88.5148 115.361 88.1828C115.533 87.8508 115.817 87.5906 116.163 87.4483C116.898 87.0983 117.657 87.2016 118.169 87.8476C118.934 88.8035 119.106 90.0296 119.505 90.995Z" fill="#F6AE2E"/>
<path id="Vector_14" d="M63.8138 70.4307C63.8138 70.9005 63.889 71.3843 63.7011 71.8259C63.581 72.1601 63.3559 72.4464 63.0595 72.642C62.7631 72.8376 62.4114 72.932 62.0569 72.9111C61.7019 72.9251 61.3525 72.8198 61.0642 72.6121C60.776 72.4044 60.5657 72.1061 60.4668 71.7648C60.1394 70.7181 60.0526 69.6108 60.2131 68.5258C60.3235 67.6803 60.9178 67.2317 61.7375 67.1682C62.6019 67.0978 63.2807 67.4877 63.5061 68.3567C63.6504 69.0412 63.7531 69.7338 63.8138 70.4307Z" fill="#F6AE2E"/>
<path id="Vector_15" d="M115.413 106.133C115.354 106.666 115.211 107.073 114.873 107.368C114.237 107.942 113.57 108.481 112.876 108.982C112.054 109.543 111.22 109.414 110.57 108.677C109.919 107.939 109.95 107.07 110.659 106.38C111.335 105.734 112.062 105.144 112.832 104.613C113.386 104.219 114.018 104.292 114.593 104.649C114.847 104.804 115.056 105.022 115.199 105.283C115.343 105.543 115.417 105.836 115.413 106.133Z" fill="#F6AE2E"/>
<path id="Vector_16" d="M103.745 111.993C102.291 112.031 101.445 111.387 101.396 110.302C101.347 109.217 102.061 108.569 103.472 108.475C104.129 108.394 104.79 108.354 105.452 108.353C106.422 108.407 107.05 108.937 107.139 109.952C107.228 110.967 106.631 111.655 105.6 111.808C104.952 111.904 104.287 111.942 103.745 111.993Z" fill="#F6AE2E"/>
<path id="Vector_17" d="M95.1614 108.514C97.0404 108.514 97.9377 109.087 97.9142 110.288C97.8907 111.488 97.017 112.023 95.1262 112.038C94.7738 112.038 94.4215 112.049 94.0716 112.038C92.8831 111.993 92.1174 111.319 92.1009 110.316C92.0821 109.268 92.8713 108.564 94.1185 108.521C94.4591 108.498 94.8114 108.514 95.1614 108.514Z" fill="#F6AE2E"/>
<path id="Vector_18" d="M67.2751 60.7747C67.2023 61.6884 65.2387 63.8493 64.3391 64.0325C64.0347 64.111 63.7138 64.0968 63.4175 63.9918C63.1213 63.8868 62.8631 63.6956 62.6761 63.443C62.454 63.1915 62.3166 62.8766 62.2833 62.5428C62.25 62.2089 62.3225 61.8731 62.4906 61.5827C63.0193 60.6246 63.7551 59.7965 64.6444 59.1587C64.9148 58.9584 65.2431 58.8516 65.5796 58.8546C65.9162 58.8575 66.2426 58.9701 66.5094 59.1752C66.7765 59.3407 66.9907 59.5794 67.1264 59.8629C67.2621 60.1464 67.3137 60.4628 67.2751 60.7747Z" fill="#F6AE2E"/>
<path id="Vector_19" d="M115.73 99.889C115.929 99.2149 116.134 98.212 116.526 97.2889C116.864 96.495 117.62 96.1615 118.475 96.4057C119.33 96.65 119.817 97.2255 119.753 98.1321C119.672 99.1836 119.396 100.211 118.941 101.162C118.565 101.956 117.806 102.214 116.953 101.968C116.101 101.721 115.704 101.096 115.73 99.889Z" fill="#F6AE2E"/>
<path id="Vector_20" d="M85.696 112.023C85.2265 112.049 84.7558 112.045 84.2867 112.012C83.89 111.981 83.5186 111.805 83.2447 111.516C82.9708 111.228 82.814 110.847 82.8046 110.45C82.7295 109.595 83.1405 108.914 84.0119 108.683C85.0749 108.417 86.1853 108.401 87.2556 108.636C88.174 108.822 88.6484 109.501 88.5662 110.445C88.484 111.389 87.9086 111.92 86.9761 112.021C86.5474 112.045 86.1177 112.045 85.689 112.021L85.696 112.023Z" fill="#F6AE2E"/>
<path id="Vector_21" d="M67.1765 80.3871C66.2487 80.3612 63.9563 78.5738 63.7425 77.7212C63.557 76.9884 63.6979 76.326 64.3368 75.8422C64.9169 75.4029 65.5699 75.269 66.1853 75.6942C66.9876 76.2426 67.7526 76.8437 68.4754 77.4934C69.0649 78.0265 69.0579 78.7406 68.7431 79.4358C68.4284 80.1311 67.8013 80.3284 67.1765 80.3871Z" fill="#F6AE2E"/>
<path id="Vector_22" d="M114.352 83.6503C114.321 84.8599 113.03 85.7172 111.935 85.1582C111.075 84.7022 110.265 84.1583 109.518 83.5352C108.872 83.0161 108.776 82.2739 109.159 81.527C109.542 80.78 110.216 80.3972 111 80.6297C112.188 81.0166 113.248 81.7189 114.068 82.6614C114.183 82.7965 114.268 82.9547 114.317 83.1252C114.366 83.2957 114.378 83.4747 114.352 83.6503Z" fill="#F6AE2E"/>
<path id="Vector_23" d="M57.8326 108.714C58.2601 108.714 58.6923 108.681 59.1198 108.714C60.0593 108.803 60.6206 109.365 60.6888 110.295C60.7569 111.225 60.2918 111.866 59.3593 112.085C58.4019 112.282 57.4166 112.303 56.4515 112.148C55.4697 112.017 54.9342 111.359 54.9107 110.382C54.8872 109.442 55.6153 108.782 56.6606 108.702C57.0481 108.674 57.4404 108.702 57.835 108.702L57.8326 108.714Z" fill="#F6AE2E"/>
</g>
</svg>
