<svg width="111" height="120" viewBox="0 0 111 120" fill="none" xmlns="http://www.w3.org/2000/svg">
<g id="KI3xgh.tif">
<path id="Vector" d="M110.63 59.5301C110.477 59.7439 110.336 59.9671 110.174 60.1739C109.537 60.9867 108.708 61.3485 107.7 61.069C107.218 60.9554 106.787 60.6872 106.472 60.3053C106.157 59.9235 105.976 59.449 105.957 58.9545C105.922 58.5669 105.943 58.1746 105.943 57.7799C105.943 40.4761 105.95 23.1748 105.964 5.87572C105.964 4.95243 105.821 4.64701 104.789 4.64936C76.0081 4.68225 47.227 4.68225 18.4459 4.64936C17.5062 4.64936 17.3276 4.92658 17.3276 5.80524C17.3511 40.4064 17.3605 75.0076 17.3558 109.609C17.3558 111.528 17.33 113.424 16.3785 115.297H101.174C104.481 115.297 105.943 113.831 105.943 110.509C105.943 100.472 105.943 90.4358 105.943 80.3994C105.943 79.2036 106.253 78.2427 107.427 77.7446C108.64 77.2301 109.65 77.6953 110.639 79.2036V113.201C110.249 113.314 110.31 113.699 110.218 113.965C108.922 117.676 105.806 119.988 101.902 119.991C70.8591 120.003 39.8171 120.003 8.77599 119.991C3.81182 119.986 0.0223188 116.182 0.0105721 111.22C-0.00352402 81.7753 -0.00352402 52.3302 0.0105721 22.885C0.0105721 21.0361 0.889228 20.1598 2.73582 20.1527C5.58558 20.1527 8.43768 20.0963 11.2851 20.1762C12.3634 20.2067 12.7158 20.0094 12.6947 18.8277C12.6148 13.6356 12.6947 8.44121 12.6336 3.24915C12.6219 1.79725 13.0048 0.704804 14.3087 0H108.752C109.193 0.140347 109.594 0.384235 109.921 0.711238C110.248 1.03824 110.492 1.43884 110.632 1.87948L110.63 59.5301ZM12.6618 68.6339C12.6618 54.4187 12.6681 40.202 12.6806 25.9838C12.6806 25.1239 12.5467 24.7692 11.5717 24.8091C9.73811 24.9043 7.9008 24.9043 6.06719 24.8091C4.97709 24.7504 4.65758 24.9947 4.65758 26.1623C4.6983 54.2449 4.70849 82.3274 4.68812 110.41C4.68812 110.8 4.67168 111.192 4.69987 111.585C4.75564 112.511 5.13388 113.388 5.76897 114.065C6.40406 114.741 7.25592 115.174 8.17679 115.288C9.09766 115.403 10.0294 115.191 10.8105 114.69C11.5915 114.189 12.1725 113.43 12.4527 112.546C12.6877 111.897 12.6548 111.242 12.6548 110.579C12.6657 96.5974 12.6696 82.6156 12.6665 68.6339H12.6618Z" fill="#F6AE2E"/>
<path id="Vector_2" d="M110.63 70.076C110.48 70.2921 110.336 70.513 110.176 70.7221C109.989 70.9837 109.749 71.2037 109.473 71.3682C109.196 71.5327 108.889 71.6381 108.569 71.6778C108.25 71.7175 107.926 71.6906 107.617 71.5988C107.309 71.507 107.023 71.3524 106.777 71.1445C106.531 70.9367 106.331 70.6803 106.189 70.3913C106.048 70.1024 105.967 69.7872 105.953 69.4656C105.939 69.1441 105.992 68.8232 106.109 68.5231C106.225 68.223 106.402 67.9502 106.629 67.722C106.856 67.4935 107.128 67.3143 107.428 67.1956C107.728 67.0768 108.049 67.021 108.371 67.0315C108.693 67.0421 109.01 67.1189 109.301 67.2571C109.592 67.3952 109.852 67.5919 110.064 67.8347C110.249 68.0344 110.254 68.415 110.63 68.4362V70.076Z" fill="#F6AE2E"/>
<path id="Vector_3" d="M67.2727 69.4188C67.2727 76.6438 67.2727 83.8673 67.2727 91.0892C67.2727 93.4385 66.5257 94.2068 64.2186 94.2091H26.2719C23.9625 94.2091 23.2178 93.4456 23.2178 91.0939C23.2178 76.6078 23.2178 62.1202 23.2178 47.631C23.2178 45.244 23.9555 44.5181 26.3847 44.5181H64.0988C66.5703 44.5181 67.2727 45.2229 67.2727 47.7437V69.4188ZM27.9024 67.1916C29.6949 65.385 31.2737 63.7757 32.8759 62.1875C34.2033 60.8695 35.4109 60.8648 36.7289 62.1617C38.0469 63.4585 39.4212 64.7694 40.6922 66.1438C41.2608 66.7617 41.545 66.703 42.1018 66.1321C45.3909 62.7913 48.7129 59.4952 52.0255 56.1849C53.6559 54.5568 54.7343 54.5639 56.3882 56.2178C58.3922 58.2195 60.3821 60.2305 62.5835 62.4342C62.5835 57.9986 62.5835 53.8426 62.5835 49.6843C62.5835 49.0946 62.1911 49.2144 61.8669 49.2144C60.4221 49.2144 58.9772 49.2144 57.5347 49.2144C48.0104 49.2144 38.4862 49.2144 28.9619 49.2144C28.4921 49.2144 27.8695 48.9137 27.8765 49.8981C27.9212 55.5577 27.9024 61.2125 27.9024 67.1916ZM57.5042 89.5339L51.363 83.4021C46.0926 78.1349 40.823 72.8676 35.5542 67.6004C35.2135 67.2598 34.9598 66.6607 34.2996 67.3467C32.3215 69.3953 30.2893 71.3899 28.2665 73.3939C28.1405 73.5115 28.042 73.6554 27.9778 73.8154C27.9137 73.9753 27.8855 74.1475 27.8953 74.3195C27.9047 79.1561 27.9047 83.9934 27.8953 88.8315C27.8953 89.4047 28.0739 89.5363 28.6236 89.5363C38.1338 89.5104 47.651 89.5222 57.4971 89.5222L57.5042 89.5339ZM62.4965 87.9246C62.5397 87.7706 62.5711 87.6135 62.5905 87.4548C62.5905 81.525 62.5905 75.5952 62.6069 69.6655C62.6075 69.4366 62.5577 69.2104 62.4611 69.0029C62.3645 68.7955 62.2234 68.6118 62.0478 68.465C59.6397 66.0733 57.2269 63.6864 54.8517 61.2619C54.3819 60.7756 54.1211 60.6792 53.5878 61.2243C50.8626 64.0153 48.1052 66.7742 45.3157 69.501C44.7942 70.0108 44.8153 70.2599 45.3157 70.765C51.0176 76.4222 56.6913 82.1123 62.4895 87.9129L62.4965 87.9246Z" fill="#F6AE2E"/>
<path id="Vector_4" d="M61.563 107.342H26.4214C26.0297 107.36 25.6372 107.35 25.2468 107.313C24.6669 107.254 24.1304 106.979 23.743 106.543C23.3556 106.108 23.1453 105.543 23.1536 104.96C23.1618 104.377 23.388 103.818 23.7876 103.394C24.1872 102.969 24.7312 102.71 25.3126 102.666C25.6251 102.64 25.9389 102.633 26.2523 102.645H96.9912C97.3036 102.645 97.6184 102.629 97.9309 102.659C98.5208 102.695 99.0753 102.953 99.4826 103.381C99.8899 103.809 100.12 104.376 100.126 104.967C100.132 105.558 99.9133 106.129 99.5148 106.565C99.1162 107.002 98.567 107.271 97.9779 107.318C97.5872 107.35 97.1949 107.358 96.8032 107.342H61.563Z" fill="#F6AE2E"/>
<path id="Vector_5" d="M70.2757 24.6679C69.3853 27.5459 68.6006 30.1137 67.7924 32.6745C67.3014 34.2298 66.2747 35.0239 64.9215 34.9111C63.6294 34.8124 62.6896 33.8962 62.3936 32.3926C61.4147 27.3806 60.4421 22.3687 59.4757 17.3568C59.1773 15.8062 59.9174 14.5963 61.2894 14.3308C62.5792 14.0818 63.7092 14.9134 64.0264 16.417C64.5315 18.804 64.992 21.1979 65.6569 23.6319C66.1079 22.2035 66.5637 20.7774 67.0077 19.349C67.3413 18.2707 67.6467 17.1829 67.9898 16.1093C68.368 14.9346 69.2044 14.2697 70.2945 14.3073C71.4386 14.3472 72.1904 14.9628 72.531 16.0435C73.311 18.5596 74.091 21.0993 75.0542 23.6507L76.1749 18.0898C76.297 17.4789 76.391 16.861 76.5484 16.2596C76.9008 14.9181 78.0238 14.1311 79.2126 14.3519C80.5259 14.5869 81.3435 15.6723 81.1038 17.1171C80.6974 19.5769 80.1641 22.0179 79.6942 24.4659C79.1727 27.1042 78.6534 29.7449 78.1107 32.3785C77.7748 34.023 76.8797 34.8664 75.51 34.9158C74.1403 34.9651 73.1748 34.1616 72.6908 32.5852C71.9132 30.0714 71.1496 27.5388 70.2757 24.6679Z" fill="#F6AE2E"/>
<path id="Vector_6" d="M27.9087 24.2173C27.9087 27.1258 27.9087 29.7218 27.9087 32.3202C27.9087 33.4949 27.4388 34.3618 26.3158 34.78C25.9753 34.9085 25.6088 34.9532 25.2474 34.9104C24.8859 34.8676 24.5401 34.7385 24.239 34.5339C23.9379 34.3294 23.6905 34.0554 23.5175 33.7351C23.3446 33.4149 23.2512 33.0577 23.2452 32.6937C23.1912 27.3043 23.203 21.9149 23.2452 16.5255C23.2452 15.4472 23.9289 14.7189 24.9791 14.4111C26.1138 14.094 26.9643 14.5732 27.5962 15.4824C29.5791 18.3298 31.5549 21.1835 33.5236 24.0434C33.7421 24.3583 33.97 24.6684 34.4093 25.2792C34.4093 23.6535 34.4093 22.3566 34.4093 21.0504C34.4093 19.5656 34.3811 18.0808 34.4258 16.5866C34.4634 15.2663 35.3655 14.3477 36.5989 14.2749C37.8323 14.202 38.8308 15.0501 39.0517 16.3235C39.0867 16.5567 39.1017 16.7925 39.0963 17.0283C39.0963 21.9102 39.1104 26.7922 39.0963 31.6741C39.0963 33.6899 37.9216 34.8692 36.2066 34.6766C35.2669 34.5709 34.6842 33.9718 34.1815 33.2411C32.3709 30.6067 30.5541 27.9755 28.731 25.3473C28.5172 25.0725 28.301 24.7717 27.9087 24.2173Z" fill="#F6AE2E"/>
<path id="Vector_7" d="M92.8776 34.9348C90.2416 34.8526 87.9158 34.0115 86.0058 32.1532C84.8593 31.0349 84.7348 29.637 85.6651 28.6292C86.5955 27.6213 87.9886 27.6189 89.1891 28.7184C90.1844 29.6719 91.5042 30.2126 92.8823 30.2314C93.3117 30.2434 93.7387 30.1633 94.1345 29.9965C94.7336 29.7404 95.274 29.3575 95.3585 28.6926C95.4502 27.9572 94.8487 27.5626 94.2849 27.3112C92.7226 26.6064 91.1367 25.972 89.5462 25.3471C87.2721 24.4544 86.0222 22.8075 85.9776 20.3735C85.9259 17.8456 87.1992 16.0719 89.4311 15.0053C92.2386 13.6638 96.4627 14.3851 98.7416 16.53C99.6813 17.411 99.8152 18.722 99.0705 19.6993C98.3258 20.6766 97.0688 20.928 95.9412 20.2279C95.1753 19.758 94.4188 19.2881 93.5237 19.0931C92.8765 18.9356 92.1976 18.969 91.569 19.1895C91.0475 19.3798 90.6763 19.6805 90.6622 20.2702C90.6481 20.8599 91.1321 20.9303 91.5103 21.0877C92.88 21.6445 94.259 22.1708 95.6193 22.7464C98.7416 24.0644 100.45 26.6064 100.045 29.3011C99.6085 32.2096 97.1605 34.4485 93.9372 34.8784C93.5801 34.9207 93.2253 34.916 92.8776 34.9348Z" fill="#F6AE2E"/>
<path id="Vector_8" d="M43.7865 24.5339C43.7865 22.0342 43.7747 19.5345 43.7865 17.0348C43.7865 15.1553 44.6416 14.3119 46.4976 14.2978C48.4899 14.2868 50.4821 14.2868 52.4744 14.2978C54.1189 14.3095 55.1174 15.1882 55.1338 16.6048C55.1503 18.0802 54.1424 18.9683 52.4274 18.98C51.3725 18.98 50.313 19.0082 49.2628 18.98C48.6896 18.9589 48.4664 19.081 48.4523 19.7318C48.4006 22.2715 48.3724 22.2715 50.8627 22.2715C51.4101 22.2715 51.9599 22.2409 52.5072 22.2926C53.0951 22.3392 53.6434 22.6069 54.0417 23.0417C54.44 23.4766 54.6587 24.0462 54.6536 24.6359C54.6485 25.2256 54.4201 25.7914 54.0144 26.2193C53.6087 26.6473 53.0559 26.9055 52.4673 26.942C51.3772 27.0007 50.2801 26.9866 49.1782 26.942C48.6214 26.9208 48.4734 27.0923 48.4523 27.6468C48.3583 30.2311 48.3372 30.2311 50.9379 30.2311C51.6028 30.2311 52.2676 30.1982 52.9301 30.2475C53.2343 30.257 53.5335 30.3274 53.8101 30.4543C54.0867 30.5812 54.3351 30.7622 54.5406 30.9866C54.7462 31.211 54.9048 31.4743 55.0071 31.7609C55.1094 32.0475 55.1532 32.3517 55.1362 32.6556C55.138 32.9499 55.0818 33.2417 54.9707 33.5142C54.8595 33.7867 54.6957 34.0346 54.4886 34.2437C54.2815 34.4528 54.0351 34.6189 53.7636 34.7326C53.4922 34.8463 53.2009 34.9053 52.9066 34.9063C50.6419 34.9532 48.3747 34.9509 46.11 34.9063C44.7004 34.8804 43.817 33.9501 43.8006 32.4982C43.7677 29.8434 43.8006 27.1863 43.8006 24.5315L43.7865 24.5339Z" fill="#F6AE2E"/>
<path id="Vector_9" d="M87.146 49.2091C83.7912 49.2091 80.4363 49.2091 77.0814 49.2091C75.3969 49.2091 74.3162 48.2858 74.3115 46.8762C74.3068 45.4666 75.3664 44.5269 77.0579 44.5269C83.8084 44.5269 90.5573 44.5269 97.3046 44.5269C99.0102 44.5269 100.07 45.4337 100.077 46.8551C100.084 48.2764 99.0173 49.2044 97.3281 49.2044C93.9356 49.2162 90.5408 49.2091 87.146 49.2091Z" fill="#F6AE2E"/>
<path id="Vector_10" d="M87.1879 55.7711C90.5428 55.7711 93.8976 55.7711 97.2525 55.7711C99.0239 55.7711 100.112 56.7108 100.072 58.1651C100.036 59.5888 98.9863 60.4533 97.2525 60.4557C90.5412 60.4557 83.8307 60.4557 77.1209 60.4557C75.3636 60.4557 74.2641 59.516 74.3017 58.057C74.3346 56.6474 75.3848 55.7735 77.1209 55.7711C80.4774 55.7664 83.833 55.7664 87.1879 55.7711Z" fill="#F6AE2E"/>
<path id="Vector_11" d="M87.1484 71.7092C83.7935 71.7092 80.4387 71.7092 77.0838 71.7092C75.3993 71.7092 74.3186 70.7859 74.3116 69.3786C74.3045 67.9714 75.3641 67.0293 77.0556 67.0293C83.8061 67.0293 90.5549 67.0293 97.3023 67.0293C99.0079 67.0293 100.067 67.9338 100.077 69.3528C100.086 70.7718 99.0173 71.7022 97.3305 71.7022C93.938 71.7162 90.5432 71.7092 87.1484 71.7092Z" fill="#F6AE2E"/>
<path id="Vector_12" d="M87.247 78.2709C90.6019 78.2709 93.9568 78.2709 97.3116 78.2709C99.0126 78.2709 100.074 79.1848 100.077 80.6062C100.079 82.0275 99.0149 82.9555 97.321 82.9555C90.5737 82.9555 83.8248 82.9555 77.0744 82.9555C75.3946 82.9555 74.3139 82.0158 74.3115 80.6062C74.3092 79.1966 75.3687 78.2686 77.065 78.2568C80.4598 78.2639 83.8546 78.2709 87.247 78.2709Z" fill="#F6AE2E"/>
<path id="Vector_13" d="M87.1857 89.5098C90.5405 89.5098 93.8954 89.5098 97.2503 89.5098C99.0217 89.5098 100.109 90.4495 100.069 91.9014C100.037 93.311 98.9841 94.1944 97.2503 94.1944C90.5405 94.1944 83.8308 94.1944 77.1211 94.1944C75.3614 94.1944 74.2619 93.2546 74.3018 91.798C74.3324 90.3884 75.3825 89.5145 77.1211 89.5098C80.4759 89.5098 83.8308 89.5098 87.1857 89.5098Z" fill="#F6AE2E"/>
</g>
</svg>
