<svg width="24" height="24" viewBox="0 0 24 24" fill="none" xmlns="http://www.w3.org/2000/svg">
<path id="Vector" d="M22.9072 17.4136C21.9118 16.3909 19.0822 14.475 17.2277 14.475C16.7981 14.475 16.4231 14.5705 16.1163 14.7682C15.2095 15.3477 14.4868 15.7977 14.1391 15.7977C13.9481 15.7977 13.7436 15.6273 13.2936 15.2386L13.2186 15.1705C11.9709 14.0864 11.705 13.8068 11.2209 13.3023L11.0981 13.1727C11.0095 13.0841 10.9345 13.0023 10.8595 12.9273C10.4368 12.4909 10.13 12.1773 9.04587 10.95L8.99814 10.8955C8.47996 10.3091 8.13905 9.92727 8.1186 9.64773C8.09814 9.375 8.33678 8.93182 8.9436 8.10682C9.67996 7.11136 9.70723 5.88409 9.03223 4.45909C8.4936 3.33409 7.61405 2.25682 6.83678 1.30909L6.7686 1.22727C6.10041 0.409091 5.32314 0 4.45723 0C3.49587 0 2.69814 0.518182 2.27541 0.790909C2.24132 0.811364 2.20723 0.838636 2.17314 0.859091C1.22541 1.45909 0.536778 2.28409 0.277687 3.12273C-0.110949 4.38409 -0.37004 6.02046 1.49132 9.42273C3.10041 12.3682 4.55951 14.3455 6.87769 16.725C9.05951 18.9614 10.0277 19.6841 12.1959 21.2523C14.6095 22.9977 16.9277 24 18.5504 24C20.0572 24 21.2436 24 22.9345 21.9614C24.7072 19.8205 23.9709 18.5114 22.9072 17.4136ZM22.1231 21.225C20.7595 22.875 19.9754 22.875 18.5572 22.875C17.1731 22.875 15.0254 21.9205 12.8163 20.3318C10.7027 18.8045 9.76178 18.1023 7.64132 15.9273C5.39814 13.6295 3.98678 11.7136 2.43223 8.87046C0.789051 5.86364 0.973142 4.54773 1.30723 3.46364C1.48451 2.88409 2.01632 2.26364 2.73905 1.81364C2.77314 1.79318 2.80723 1.76591 2.84814 1.74545C3.20951 1.51364 3.80951 1.125 4.46405 1.125C5.00951 1.125 5.4936 1.39773 5.95723 1.96364L6.02541 2.04545C7.76405 4.17273 9.12087 6.05455 8.09814 7.44546C7.37541 8.42046 6.9936 9.08182 7.05496 9.76364C7.10951 10.425 7.55269 10.9227 8.22087 11.6727L8.2686 11.7273C9.36632 12.9682 9.67996 13.2955 10.1163 13.7386C10.1913 13.8136 10.2663 13.8955 10.355 13.9841L10.4777 14.1136C10.9822 14.6386 11.2618 14.925 12.5436 16.05L12.6186 16.1182C13.1641 16.5955 13.5663 16.9432 14.1527 16.9432C14.7595 16.9432 15.4277 16.5614 16.6959 15.75C16.8254 15.6682 17.0095 15.6205 17.2413 15.6205C18.7209 15.6205 21.2709 17.3114 22.1641 18.2318C22.9822 19.0636 23.3913 19.6909 22.1231 21.225Z" fill="#3A3A3C"/>
</svg>
