<svg width="512" height="512" viewBox="0 0 512 512" fill="none" xmlns="http://www.w3.org/2000/svg">
<g clip-path="url(#clip0_1313_1555)">
<path d="M55.8018 63.4919C57.6019 63.4873 59.402 63.4809 61.202 63.473C66.1271 63.4563 71.0519 63.4645 75.977 63.4769C81.2968 63.486 86.6165 63.472 91.9363 63.461C102.349 63.4432 112.762 63.447 123.175 63.4587C131.639 63.4677 140.103 63.4689 148.567 63.4646C149.773 63.4639 150.978 63.4633 152.22 63.4627C154.669 63.4614 157.118 63.4601 159.567 63.4588C182.521 63.4474 205.475 63.4605 228.429 63.482C248.118 63.4999 267.807 63.4968 287.496 63.4783C310.369 63.4569 333.242 63.4485 356.115 63.4608C358.555 63.4621 360.994 63.4633 363.434 63.4646C364.634 63.4652 365.835 63.4658 367.072 63.4664C375.524 63.4699 383.976 63.4641 392.429 63.4546C402.731 63.4434 413.034 63.4465 423.337 63.4678C428.592 63.4783 433.847 63.4824 439.102 63.4692C443.916 63.4572 448.729 63.4638 453.543 63.4851C455.281 63.4895 457.019 63.4873 458.757 63.4776C474.055 63.3985 487.222 66.5046 498.751 77.2498C508.722 87.9483 512.619 100.581 512.509 114.941C512.515 116.201 512.521 117.46 512.528 118.758C512.544 122.223 512.536 125.689 512.524 129.155C512.515 132.904 512.529 136.653 512.54 140.402C512.557 147.735 512.554 155.068 512.542 162.401C512.533 168.363 512.532 174.325 512.536 180.287C512.537 181.137 512.537 181.987 512.538 182.863C512.539 184.591 512.54 186.318 512.542 188.045C512.553 204.224 512.54 220.402 512.519 236.581C512.501 250.448 512.504 264.315 512.522 278.182C512.544 294.305 512.552 310.427 512.54 326.55C512.539 328.271 512.537 329.992 512.536 331.712C512.535 332.559 512.535 333.406 512.534 334.278C512.531 340.229 512.537 346.181 512.546 352.133C512.557 359.391 512.554 366.648 512.533 373.906C512.522 377.606 512.518 381.305 512.531 385.005C512.546 389.023 512.529 393.04 512.509 397.058C512.518 398.217 512.527 399.376 512.536 400.57C512.412 413.44 507.569 425.288 498.751 434.75C486.366 446.293 472.455 448.599 456.2 448.508C454.4 448.512 452.6 448.519 450.8 448.527C445.874 448.543 440.95 448.535 436.025 448.523C430.705 448.514 425.385 448.528 420.065 448.539C409.652 448.556 399.239 448.553 388.826 448.541C380.362 448.532 371.898 448.531 363.434 448.535C362.229 448.536 361.023 448.536 359.781 448.537C357.333 448.538 354.884 448.54 352.435 448.541C329.481 448.552 306.526 448.539 283.572 448.518C263.883 448.5 244.195 448.503 224.506 448.521C201.633 448.543 178.76 448.551 155.887 448.539C153.447 448.538 151.007 448.536 148.567 448.535C147.367 448.534 146.167 448.534 144.93 448.533C136.478 448.53 128.025 448.536 119.573 448.545C109.27 448.556 98.9675 448.553 88.6646 448.532C83.4096 448.521 78.1547 448.517 72.8997 448.53C68.0858 448.542 63.2724 448.536 58.4586 448.515C56.7205 448.51 54.9824 448.512 53.2443 448.522C37.9461 448.601 24.7798 445.495 13.2508 434.75C3.27961 424.051 -0.617711 411.418 -0.507142 397.058C-0.513382 395.799 -0.519622 394.539 -0.526051 393.242C-0.542628 389.776 -0.534552 386.311 -0.522107 382.845C-0.51301 379.096 -0.527048 375.347 -0.538025 371.598C-0.555766 364.265 -0.551991 356.932 -0.540375 349.599C-0.531324 343.637 -0.530124 337.675 -0.53447 331.712C-0.535083 330.862 -0.535696 330.012 -0.536328 329.136C-0.537607 327.409 -0.538904 325.682 -0.540219 323.954C-0.551612 307.776 -0.538532 291.597 -0.517018 275.419C-0.499148 261.552 -0.502251 247.684 -0.520691 233.817C-0.542121 217.695 -0.550513 201.572 -0.538243 185.45C-0.536969 183.729 -0.535711 182.008 -0.53447 180.287C-0.533853 179.441 -0.533237 178.594 -0.532601 177.722C-0.529154 171.77 -0.534961 165.819 -0.544388 159.867C-0.555633 152.609 -0.552517 145.351 -0.531266 138.093C-0.520788 134.394 -0.516576 130.694 -0.529862 126.995C-0.544072 122.977 -0.52705 118.959 -0.507142 114.941C-0.516064 113.783 -0.524987 112.624 -0.53418 111.43C-0.410789 98.5594 4.43215 86.7117 13.2508 77.2498C25.6357 65.7068 39.5463 63.4009 55.8018 63.4919Z" fill="#F34336"/>
<path d="M64 149C69.4623 152.642 74.6691 156.166 79.75 160.25C80.9618 161.213 82.174 162.175 83.3867 163.137C83.9892 163.615 84.5917 164.094 85.2124 164.587C87.9762 166.771 90.7673 168.919 93.5625 171.062C94.0946 171.471 94.6266 171.879 95.1748 172.3C96.2467 173.122 97.3188 173.944 98.3911 174.766C101.096 176.841 103.798 178.921 106.5 181C107.583 181.833 108.667 182.667 109.75 183.5C207.25 258.5 207.25 258.5 208.874 259.749C209.961 260.585 211.047 261.421 212.134 262.257C214.793 264.302 217.451 266.348 220.109 268.395C226.337 273.189 232.571 277.974 238.812 282.75C239.506 283.281 240.199 283.812 240.913 284.359C242.263 285.391 243.617 286.418 244.975 287.439C246.382 288.524 247.761 289.646 249.115 290.795C251.025 292.372 252.837 293.793 255 295C259.68 294.468 263.199 290.639 266.75 287.688C268.085 286.599 269.421 285.511 270.758 284.426C271.452 283.862 272.145 283.298 272.86 282.717C276.402 279.875 280.011 277.124 283.625 274.375C284.34 273.83 285.056 273.285 285.793 272.724C287.2 271.653 288.607 270.582 290.015 269.512C292.934 267.289 295.843 265.052 298.75 262.812C299.786 262.015 300.823 261.217 301.891 260.395C302.917 259.604 303.943 258.814 305 258C307.166 256.333 309.333 254.667 311.5 253C312.583 252.167 313.667 251.333 314.75 250.5C347.25 225.5 379.75 200.5 412.25 175.5C412.786 175.087 413.323 174.675 413.875 174.25C414.958 173.417 416.04 172.585 417.123 171.752C419.845 169.659 422.566 167.563 425.285 165.465C430.755 161.244 436.237 157.04 441.75 152.875C442.735 152.13 443.72 151.385 444.734 150.617C447 149 447 149 448 149C448 247.67 448 346.34 448 448C321.28 448 194.56 448 64 448C64 349.33 64 250.66 64 149Z" fill="#EBEEF0"/>
<path d="M65 64C191.06 64 317.12 64 447 64C438.507 72.4926 429.123 79.7241 419.568 86.9663C413.888 91.285 408.336 95.7418 402.814 100.26C396.845 105.142 390.795 109.912 384.718 114.657C381.807 116.932 378.904 119.217 376 121.5C372.513 124.241 369.026 126.98 365.535 129.715C359.499 134.446 353.484 139.202 347.5 144C340.944 149.256 334.349 154.459 327.734 159.641C324.82 161.925 321.91 164.212 319 166.5C315.513 169.24 312.026 171.98 308.535 174.715C302.499 179.446 296.484 184.202 290.5 189C283.925 194.268 277.332 199.51 270.679 204.679C268.978 206.017 267.305 207.384 265.633 208.758C264.568 209.61 263.503 210.461 262.438 211.312C261.508 212.072 260.579 212.831 259.621 213.613C257 215 257 215 254.629 214.605C250.977 212.375 247.77 209.752 244.5 207C243.065 205.812 241.629 204.626 240.191 203.441C239.481 202.855 238.771 202.269 238.04 201.665C235.216 199.361 232.336 197.146 229.438 194.938C224.116 190.877 218.877 186.724 213.658 182.533C207.717 177.765 201.731 173.057 195.734 168.359C192.236 165.617 188.742 162.869 185.248 160.123C182.345 157.841 179.441 155.562 176.535 153.285C169.862 148.055 163.222 142.786 156.608 137.483C150.681 132.735 144.712 128.042 138.734 123.359C135.236 120.617 131.742 117.869 128.248 115.123C125.345 112.841 122.441 110.562 119.535 108.285C112.862 103.055 106.222 97.7865 99.6079 92.4829C95.4011 89.1129 91.1775 85.7656 86.9375 82.4375C86.3733 81.9941 85.8091 81.5508 85.2278 81.094C82.1755 78.698 79.1152 76.3129 76.0469 73.9375C75.4011 73.4355 74.7554 72.9335 74.0901 72.4163C72.8469 71.45 71.6014 70.4868 70.3533 69.5271C66.1125 66.2251 66.1125 66.2251 65 64Z" fill="#ECEEF0"/>
<path d="M448 149C448 247.67 448 346.34 448 448C443.083 444.312 438.195 440.621 433.375 436.812C432.152 435.849 430.93 434.885 429.707 433.922C429.092 433.437 428.476 432.951 427.842 432.451C426.068 431.053 424.29 429.659 422.512 428.266C415.846 423.043 409.215 417.78 402.608 412.483C396.108 407.276 389.557 402.135 383 397C375.17 390.868 367.367 384.704 359.608 378.483C353.681 373.735 347.712 369.042 341.734 364.359C338.236 361.617 334.742 358.869 331.248 356.123C328.345 353.841 325.441 351.562 322.535 349.285C315.862 344.055 309.222 338.786 302.608 333.483C296.683 328.736 290.715 324.045 284.738 319.363C282.98 317.984 281.224 316.602 279.469 315.219C271.689 309.089 263.864 303.022 256 297C260.15 292.611 264.711 288.982 269.5 285.312C270.299 284.696 271.098 284.08 271.921 283.444C274.278 281.626 276.639 279.813 279 278C280.205 277.072 281.409 276.144 282.613 275.215C285.739 272.806 288.869 270.403 292 268C294.167 266.334 296.334 264.667 298.5 263C299.583 262.167 300.667 261.333 301.75 260.5C302.286 260.088 302.822 259.675 303.375 259.25C339.667 231.333 375.958 203.417 412.25 175.5C412.786 175.087 413.323 174.675 413.875 174.25C414.958 173.417 416.04 172.585 417.123 171.752C419.845 169.659 422.566 167.563 425.285 165.465C430.755 161.244 436.237 157.04 441.75 152.875C442.735 152.13 443.72 151.385 444.734 150.617C447 149 447 149 448 149Z" fill="#CFD7DB"/>
</g>
<defs>
<clipPath id="clip0_1313_1555">
<rect width="512" height="512" fill="white"/>
</clipPath>
</defs>
</svg>
