<svg width="512" height="512" viewBox="0 0 512 512" fill="none" xmlns="http://www.w3.org/2000/svg">
<g clip-path="url(#clip0_1312_1540)">
<path d="M255.688 -0.312342C256.655 -0.310519 257.622 -0.308696 258.619 -0.306818C272.952 -0.26139 286.898 0.247498 301 3.00016C302.346 3.24162 302.346 3.24162 303.718 3.48795C363.529 14.3105 421.043 48.3683 458 97.0002C458.417 97.5404 458.834 98.0807 459.263 98.6374C466.946 108.632 473.689 119.092 480 130C480.394 130.677 480.789 131.355 481.195 132.052C494.377 154.971 502.983 180.546 508.313 206.375C508.46 207.086 508.608 207.797 508.759 208.529C511.745 224.171 512.375 239.807 512.313 255.688C512.31 257.139 512.31 257.139 512.307 258.619C512.262 272.952 511.753 286.898 509 301C508.839 301.897 508.678 302.794 508.512 303.718C497.69 363.529 463.632 421.043 415 458C414.46 458.417 413.92 458.834 413.363 459.263C403.368 466.946 392.908 473.689 382 480C381.323 480.394 380.646 480.789 379.948 481.195C357.029 494.377 331.454 502.983 305.625 508.313C304.914 508.46 304.204 508.608 303.472 508.759C287.829 511.745 272.193 512.375 256.313 512.313C255.345 512.311 254.378 512.309 253.381 512.307C239.048 512.262 225.102 511.753 211 509C210.103 508.839 209.206 508.678 208.282 508.512C148.472 497.69 90.9577 463.632 54.0002 415C53.5835 414.46 53.1668 413.92 52.7375 413.363C45.0542 403.368 38.3117 392.908 32.0002 382C31.6059 381.323 31.2116 380.646 30.8053 379.948C17.623 357.029 9.01755 331.454 3.68766 305.625C3.54022 304.914 3.39279 304.204 3.24088 303.472C0.25552 287.829 -0.374651 272.193 -0.312342 256.313C-0.310519 255.345 -0.308696 254.378 -0.306818 253.381C-0.26139 239.048 0.247498 225.102 3.00016 211C3.24162 209.655 3.24162 209.655 3.48795 208.282C14.3105 148.472 48.3683 90.9577 97.0002 54.0002C97.5404 53.5835 98.0807 53.1668 98.6374 52.7375C108.632 45.0542 119.092 38.3117 130 32.0002C130.677 31.6059 131.355 31.2116 132.052 30.8053C154.971 17.623 180.546 9.01755 206.375 3.68766C207.086 3.54022 207.797 3.39279 208.529 3.24088C224.171 0.25552 239.807 -0.374651 255.688 -0.312342Z" fill="#3B5998"/>
<path d="M279.637 98.8049C281.011 98.8087 282.385 98.8115 283.76 98.8135C287.339 98.8211 290.917 98.8406 294.496 98.8629C298.163 98.8835 301.831 98.8926 305.498 98.9026C312.666 98.9228 319.833 98.962 327 99.0002C327 118.14 327 137.28 327 157C305.875 157.25 305.875 157.25 299.238 157.298C297.489 157.327 295.741 157.358 293.992 157.391C292.646 157.393 292.646 157.393 291.272 157.394C285.73 157.52 282.318 158.181 278 162C276.295 164.813 275.742 166.948 275.681 170.218C275.661 171.05 275.641 171.882 275.62 172.739C275.609 173.604 275.598 174.469 275.586 175.36C275.568 176.162 275.551 176.964 275.532 177.79C275.47 180.776 275.423 183.763 275.375 186.75C275.251 193.433 275.127 200.115 275 207C291.83 207 308.66 207 326 207C326 213.649 325.982 219.768 325.16 226.274C325.074 227.004 324.987 227.735 324.898 228.487C324.626 230.784 324.345 233.08 324.062 235.375C323.785 237.664 323.51 239.953 323.237 242.242C323.069 243.653 322.898 245.063 322.723 246.473C321.939 252.983 321.505 259.439 321 266C305.82 266 290.64 266 275 266C275 321.44 275 376.88 275 434C251.9 434 228.8 434 205 434C205 378.56 205 323.12 205 266C194.44 266 183.88 266 173 266C173 246.53 173 227.06 173 207C183.56 207 194.12 207 205 207C204.965 204.021 204.93 201.042 204.895 197.973C204.871 195.027 204.853 192.081 204.835 189.135C204.82 187.117 204.8 185.099 204.774 183.082C204.469 159.009 206.907 135.761 224.125 117.313C239.807 102.456 258.764 98.6391 279.637 98.8049Z" fill="#FCFDFD"/>
</g>
<defs>
<clipPath id="clip0_1312_1540">
<rect width="512" height="512" fill="white"/>
</clipPath>
</defs>
</svg>
