<svg width="21" height="24" viewBox="0 0 21 24" fill="none" xmlns="http://www.w3.org/2000/svg">
<path id="Vector" d="M10.4685 0C6.74995 0 3.72112 3.02884 3.72112 6.74741C3.72033 6.8278 3.73248 6.90779 3.7571 6.98432C3.82008 9.35192 4.84568 11.4226 6.05122 13.3419C7.29874 15.3256 8.74269 17.1849 9.66934 19.0832C9.73026 19.2083 9.82479 19.3139 9.94234 19.3883C10.0599 19.4627 10.1958 19.503 10.3349 19.5045C10.4741 19.5061 10.6109 19.4689 10.7301 19.3971C10.8492 19.3254 10.9461 19.2219 11.0098 19.0982C11.9844 17.2014 13.5019 15.3391 14.8124 13.3569C16.1214 11.3746 17.2399 9.23346 17.2399 6.75941C17.2413 6.66415 17.2245 6.56949 17.1905 6.48052C17.045 2.88939 14.0956 0 10.4685 0ZM10.4685 1.49943C13.3774 1.49943 15.7165 3.84003 15.7165 6.74741C15.7157 6.80128 15.7208 6.85507 15.7315 6.90785C15.6865 8.8691 14.7809 10.6864 13.5618 12.5307C12.5302 14.0916 11.3637 15.7035 10.3576 17.3783C9.40244 15.711 8.30186 14.1021 7.32274 12.5457C6.13369 10.6519 5.24453 8.78963 5.24453 6.75791C5.24435 6.71416 5.24033 6.67051 5.23254 6.62746C5.25926 5.25709 5.82287 3.95197 6.80209 2.99293C7.78132 2.03389 9.0979 1.49759 10.4685 1.49943ZM10.4685 4.50127C9.236 4.50127 8.21939 5.51788 8.21939 6.75041C8.21939 7.98294 9.236 8.99955 10.4685 8.99955C11.7026 8.99955 12.7177 7.98294 12.7177 6.75041C12.7177 5.51788 11.7026 4.50127 10.4685 4.50127ZM10.4685 6.0007C10.8914 6.0007 11.2182 6.32757 11.2182 6.75041C11.2182 7.17325 10.8914 7.50013 10.4685 7.50013C10.3697 7.50154 10.2716 7.48311 10.18 7.44594C10.0884 7.40876 10.0052 7.35359 9.93525 7.28369C9.86535 7.21379 9.81018 7.13058 9.77301 7.03898C9.73583 6.94738 9.7174 6.84926 9.71882 6.75041C9.71882 6.32757 10.0457 6.0007 10.4685 6.0007ZM16.6012 13.8382C16.4265 13.8386 16.2574 13.9 16.1232 14.0119C15.989 14.1237 15.898 14.2788 15.866 14.4506C15.834 14.6223 15.863 14.7998 15.9479 14.9525C16.0329 15.1051 16.1685 15.2233 16.3313 15.2866C17.8262 15.8924 18.7873 16.6856 19.2012 17.4158C19.6165 18.146 19.606 18.7773 19.0647 19.554C17.9777 21.1074 14.5125 22.4839 10.557 22.5004C6.60001 22.5154 3.08686 21.1764 1.9383 19.6185C1.36402 18.8388 1.33553 18.2045 1.72088 17.4773C2.10773 16.7516 3.03288 15.9509 4.50382 15.3331C4.59883 15.2981 4.68577 15.2442 4.75938 15.1746C4.83299 15.1051 4.89175 15.0213 4.93211 14.9285C4.97247 14.8356 4.99359 14.7355 4.99421 14.6342C4.99482 14.533 4.97491 14.4326 4.93568 14.3393C4.89645 14.2459 4.83871 14.1614 4.76595 14.091C4.69319 14.0206 4.60691 13.9656 4.51232 13.9294C4.41774 13.8933 4.3168 13.8766 4.21561 13.8805C4.11441 13.8844 4.01506 13.9088 3.92354 13.9522C2.24418 14.6569 1.01915 15.6045 0.39689 16.7756C-0.225372 17.9451 -0.117413 19.3576 0.731262 20.5091C2.42861 22.8093 6.29563 24.0178 10.566 23.9998C14.8349 23.9818 18.6659 22.7448 20.2943 20.4162C21.1085 19.2511 21.1639 17.8327 20.5042 16.6751C19.8474 15.5176 18.5954 14.5849 16.8936 13.8967C16.8011 13.8573 16.7017 13.8369 16.6012 13.8367V13.8382Z" fill="#3A3A3C"/>
</svg>
