<svg width="28" height="20" viewBox="0 0 28 20" fill="none" xmlns="http://www.w3.org/2000/svg">
<path id="Vector" d="M24.6964 0H2.88517C2.12024 0.00087053 1.38689 0.305123 0.846008 0.846008C0.305123 1.38689 0.00087053 2.12024 0 2.88517V17.1148C0.00087053 17.8798 0.305123 18.6131 0.846008 19.154C1.38689 19.6949 2.12024 19.9991 2.88517 20H24.6964C25.4613 19.9991 26.1946 19.6949 26.7355 19.154C27.2764 18.6131 27.5807 17.8798 27.5815 17.1148V2.88517C27.5807 2.12024 27.2765 1.38689 26.7356 0.845995C26.1947 0.305104 25.4613 0.000855316 24.6964 0ZM19.5666 9.99608L26.4275 4.61131V16.6562L19.5666 9.99608ZM2.88517 1.15407H24.6964C25.1553 1.15459 25.5953 1.33714 25.9199 1.66167C26.2444 1.9862 26.4269 2.42621 26.4275 2.88517V3.14426L15.3248 11.8585C14.9188 12.1754 14.4185 12.3474 13.9035 12.3469C13.3885 12.3465 12.8885 12.1738 12.4831 11.8562L1.15407 3.14207V2.88517C1.15459 2.42621 1.33714 1.9862 1.66167 1.66167C1.9862 1.33714 2.42621 1.15459 2.88517 1.15407ZM8.21916 10.0323L1.15407 16.6795V4.59804L8.21916 10.0323ZM24.6964 18.8459H2.88517C2.58964 18.8458 2.29906 18.7699 2.04112 18.6257C1.78317 18.4815 1.56643 18.2736 1.41154 18.0219L9.14576 10.7455L11.776 12.7686C12.3843 13.2438 13.134 13.5018 13.9059 13.5016C14.6778 13.5014 15.4274 13.243 16.0354 12.7675L18.6505 10.7155L26.173 18.0173C26.0184 18.2703 25.8014 18.4793 25.5429 18.6244C25.2843 18.7695 24.9929 18.8458 24.6964 18.8459Z" fill="#3A3A3C"/>
</svg>
