<svg width="512" height="512" viewBox="0 0 512 512" fill="none" xmlns="http://www.w3.org/2000/svg">
<g clip-path="url(#clip0_1312_1543)">
<path d="M255.625 -0.31261C256.643 -0.310455 257.661 -0.3083 258.709 -0.306079C273.319 -0.256409 287.651 -0.00551176 302 2.99989C302.975 3.19857 303.95 3.39724 304.954 3.60194C353.336 13.7226 397.324 35.6391 433 69.9999C433.989 70.9481 433.989 70.9481 434.998 71.9154C444.486 81.0599 453.226 90.3572 461 101C461.858 102.151 462.716 103.302 463.574 104.453C469.612 112.644 474.971 121.158 480 130C480.364 130.632 480.729 131.263 481.104 131.914C502.71 169.663 512.477 212.429 512.312 255.625C512.31 256.643 512.308 257.661 512.306 258.709C512.256 273.319 512.005 287.651 509 302C508.702 303.462 508.702 303.462 508.398 304.954C498.277 353.336 476.361 397.324 442 433C441.368 433.659 440.736 434.319 440.084 434.998C430.94 444.486 421.643 453.226 411 461C409.849 461.858 408.698 462.716 407.547 463.574C399.357 469.612 390.854 474.994 382 480C381.293 480.402 380.585 480.804 379.857 481.219C356.721 494.244 331.55 502.993 305.562 508.312C304.843 508.46 304.125 508.607 303.384 508.759C288.708 511.548 274.183 512.349 259.273 512.316C256.333 512.312 253.394 512.336 250.455 512.361C237.082 512.406 224.186 511.2 211 509C209.294 508.718 209.294 508.718 207.554 508.43C164.287 500.658 123.237 480.671 89.9999 452C89.2548 451.366 88.5097 450.731 87.7421 450.078C74.2371 438.267 61.5657 425.516 50.9999 411C50.1434 409.85 49.2866 408.7 48.4296 407.551C42.3895 399.361 37.0062 390.856 31.9999 382C31.5977 381.293 31.1955 380.585 30.7811 379.857C17.7557 356.721 9.00688 331.55 3.68739 305.562C3.54003 304.843 3.39268 304.125 3.24086 303.384C0.266999 287.738 -0.373114 272.264 -0.31261 256.375C-0.310455 255.357 -0.3083 254.339 -0.306079 253.29C-0.256409 238.681 -0.00551176 224.349 2.99989 210C3.19857 209.025 3.39724 208.05 3.60194 207.046C13.7226 158.664 35.6391 114.676 69.9999 78.9999C70.632 78.3405 71.2641 77.6812 71.9154 77.0018C81.0599 67.5136 90.3572 58.7737 101 50.9999C102.151 50.1418 103.302 49.2838 104.453 48.4257C112.643 42.3881 121.145 37.0053 130 31.9999C130.707 31.5977 131.414 31.1955 132.143 30.7811C155.278 17.7557 180.45 9.00688 206.437 3.68739C207.156 3.54003 207.875 3.39268 208.616 3.24086C224.262 0.266999 239.736 -0.373114 255.625 -0.31261Z" fill="black"/>
<path d="M109 105C120.3 104.652 131.599 104.386 142.903 104.223C148.153 104.145 153.4 104.039 158.648 103.869C163.719 103.705 168.786 103.616 173.859 103.577C175.789 103.55 177.718 103.496 179.645 103.414C194.35 102.819 194.35 102.819 198.777 106.463C201.894 110.019 204.082 113.959 206.111 118.209C207.326 120.657 208.845 122.84 210.434 125.059C210.931 125.786 211.429 126.512 211.942 127.261C212.435 127.979 212.929 128.698 213.438 129.438C213.983 130.233 214.528 131.028 215.089 131.847C216.725 134.232 218.362 136.617 220 139C220.486 139.709 220.973 140.417 221.474 141.147C224.2 145.115 226.928 149.082 229.657 153.049C231.939 156.365 234.219 159.683 236.5 163C237.417 164.334 238.333 165.667 239.25 167C241.083 169.667 242.917 172.334 244.75 175C245.204 175.661 245.658 176.321 246.126 177.001C247.04 178.331 247.954 179.661 248.868 180.992C251.195 184.376 253.523 187.76 255.855 191.141C261.307 199.049 266.703 206.987 272 215C279.768 207.315 286.925 199.183 293.785 190.684C296.665 187.195 299.707 183.87 302.754 180.528C305.062 177.931 307.256 175.266 309.438 172.563C313.297 167.79 317.372 163.269 321.527 158.754C324.747 155.168 327.759 151.433 330.785 147.684C333.665 144.195 336.707 140.87 339.754 137.528C342.062 134.931 344.256 132.266 346.438 129.563C350.29 124.794 354.35 120.272 358.543 115.801C360.962 113.243 360.962 113.243 362.165 110.906C363.601 108.469 364.798 106.79 367 105C371.494 104.014 375.802 104.243 380.375 104.5C382.195 104.554 382.195 104.554 384.051 104.61C387.037 104.704 390.017 104.835 393 105C391.737 107.716 390.396 109.901 388.418 112.145C387.648 113.025 387.648 113.025 386.863 113.922C386.034 114.858 386.034 114.858 385.188 115.813C384.005 117.162 382.823 118.511 381.641 119.86C381.035 120.547 380.43 121.235 379.807 121.944C377.002 125.137 374.219 128.35 371.438 131.563C370.9 132.183 370.363 132.802 369.81 133.441C364.18 139.938 358.588 146.468 353 153C346.311 160.82 339.603 168.621 332.858 176.392C327.708 182.329 322.593 188.295 317.484 194.266C314.495 197.759 311.503 201.248 308.511 204.737C305.947 207.728 303.385 210.719 300.824 213.711C295.582 219.836 290.333 225.954 285 232C286.756 235.835 289.088 239.263 291.438 242.75C291.878 243.407 292.318 244.064 292.772 244.741C297.331 251.525 301.965 258.258 306.609 264.984C308.91 268.32 311.205 271.66 313.5 275C314.419 276.338 315.339 277.675 316.258 279.012C316.712 279.672 317.166 280.333 317.634 281.013C318.982 282.974 320.331 284.935 321.68 286.895C327.185 294.897 332.676 302.909 338.159 310.927C342.98 317.975 347.816 325.014 352.657 332.049C354.939 335.365 357.219 338.683 359.5 342C360.417 343.334 361.333 344.667 362.25 346C367.75 354 373.25 362 378.75 370C379.204 370.661 379.658 371.322 380.126 372.002C381.038 373.329 381.95 374.656 382.862 375.983C385.223 379.419 387.588 382.853 389.961 386.282C390.449 386.988 390.937 387.694 391.439 388.422C392.361 389.757 393.284 391.09 394.209 392.422C396.435 395.648 398.587 398.904 400.657 402.233C401.098 402.942 401.54 403.651 401.994 404.381C402.326 404.915 402.658 405.45 403 406C391.735 406.396 380.471 406.697 369.2 406.881C363.965 406.97 358.735 407.089 353.503 407.283C348.445 407.469 343.392 407.569 338.331 407.613C336.408 407.644 334.486 407.705 332.566 407.798C317.945 408.472 317.945 408.472 313.026 404.344C309.409 400.292 306.684 395.806 304.119 391.036C302.606 388.283 300.828 385.75 299.004 383.196C297.855 381.506 296.708 379.816 295.562 378.125C294.288 376.25 293.013 374.375 291.738 372.5C291.114 371.581 290.49 370.662 289.846 369.715C286.989 365.513 284.12 361.319 281.25 357.125C280.718 356.348 280.186 355.57 279.637 354.769C274.882 347.823 270.114 340.886 265.343 333.952C262.606 329.974 259.871 325.994 257.135 322.015C254.784 318.593 252.43 315.173 250.074 311.754C249.112 310.357 248.15 308.96 247.188 307.563C246.727 306.896 246.267 306.228 245.793 305.541C242.833 301.24 239.934 296.904 237.121 292.504C236.057 290.841 236.057 290.841 234 290C233.764 290.556 233.528 291.111 233.285 291.684C231.687 294.564 229.695 296.664 227.438 299.063C223.966 302.796 220.641 306.592 217.438 310.563C214.552 314.139 211.596 317.604 208.5 321C205.385 324.418 202.408 327.906 199.5 331.5C195.889 335.964 192.113 340.23 188.246 344.473C185.938 347.07 183.744 349.734 181.562 352.438C177.703 357.21 173.628 361.731 169.473 366.246C166.253 369.832 163.241 373.567 160.215 377.317C157.342 380.798 154.307 384.116 151.266 387.45C148.097 391.017 145.116 394.727 142.141 398.457C141.434 399.297 140.728 400.136 140 401C139.352 401.926 138.703 402.851 138.035 403.805C133.142 407.344 128.051 406.526 122.188 406.313C121.018 406.29 119.848 406.268 118.643 406.244C115.76 406.186 112.881 406.103 110 406C111.618 402.592 113.478 400.205 116.062 397.438C119.33 393.877 122.465 390.261 125.5 386.5C129.111 382.036 132.887 377.77 136.754 373.528C139.062 370.931 141.256 368.266 143.438 365.563C147.297 360.79 151.372 356.269 155.527 351.754C158.747 348.168 161.759 344.433 164.785 340.684C167.665 337.195 170.707 333.87 173.754 330.528C176.062 327.931 178.256 325.266 180.438 322.563C184.297 317.79 188.372 313.269 192.527 308.754C195.747 305.168 198.759 301.433 201.785 297.684C203.956 295.053 206.202 292.521 208.5 290C210.002 288.336 211.502 286.669 213 285C213.859 284.045 214.717 283.09 215.602 282.106C216.434 281.143 217.267 280.18 218.125 279.188C218.891 278.315 219.656 277.442 220.445 276.543C222.234 274.135 222.234 274.135 221.938 271.453C220.896 268.727 219.67 266.867 217.875 264.563C213.634 258.929 209.646 253.149 205.688 247.313C204.374 245.379 203.06 243.446 201.746 241.512C201.109 240.574 200.472 239.636 199.816 238.67C197.306 234.98 194.781 231.301 192.25 227.625C191.811 226.987 191.371 226.348 190.918 225.69C190.046 224.424 189.174 223.157 188.302 221.89C181.465 211.963 174.645 202.024 167.841 192.074C163.02 185.025 158.184 177.987 153.343 170.952C151.061 167.635 148.781 164.318 146.5 161C145.583 159.667 144.667 158.334 143.75 157C138.25 149 138.25 149 136.875 147C135.959 145.668 135.043 144.336 134.127 143.005C131.819 139.649 129.514 136.292 127.215 132.93C126.289 131.578 125.363 130.227 124.438 128.875C123.989 128.22 123.541 127.565 123.079 126.89C120.784 123.551 118.461 120.236 116.086 116.953C115.62 116.309 115.154 115.665 114.674 115.001C113.786 113.777 112.893 112.557 111.996 111.34C109 107.218 109 107.218 109 105Z" fill="#FBFBFB"/>
<path d="M144 125C149.531 124.702 155.058 124.485 160.595 124.341C162.475 124.281 164.354 124.199 166.231 124.095C181.743 123.255 181.743 123.255 187.023 127.338C189.367 130.441 191.185 133.565 193 137C194.271 138.851 195.566 140.685 196.887 142.5C198.156 144.332 199.423 146.165 200.688 148C202.084 150.017 203.482 152.034 204.879 154.051C205.57 155.049 206.261 156.048 206.973 157.077C210.01 161.457 213.066 165.823 216.125 170.188C216.694 171 217.264 171.813 217.85 172.65C218.994 174.283 220.138 175.916 221.282 177.548C224.775 182.533 228.265 187.521 231.755 192.507C234.645 196.637 237.537 200.766 240.43 204.895C247.317 214.725 254.183 224.57 261.034 234.426C267.098 243.147 273.187 251.85 279.282 260.548C282.19 264.698 285.095 268.849 288 273C289.167 274.667 290.333 276.333 291.5 278C293.833 281.333 296.167 284.667 298.5 288C299.077 288.825 299.655 289.65 300.25 290.499C301.418 292.168 302.586 293.838 303.754 295.507C306.645 299.637 309.537 303.766 312.43 307.895C319.317 317.725 326.183 327.57 333.034 337.426C337.388 343.687 341.751 349.941 346.125 356.188C346.685 356.988 347.244 357.788 347.821 358.613C350.862 362.959 353.916 367.295 356.984 371.621C357.635 372.542 358.286 373.463 358.957 374.411C360.212 376.187 361.471 377.961 362.735 379.731C363.294 380.524 363.853 381.316 364.43 382.133C364.927 382.833 365.425 383.533 365.937 384.254C367 386 367 386 367 388C361.611 388.299 356.227 388.515 350.832 388.659C349.001 388.719 347.17 388.801 345.342 388.905C330.231 389.746 330.231 389.746 325.004 385.656C322.662 382.554 320.827 379.427 319 376C317.752 374.185 316.481 372.386 315.184 370.606C313.933 368.801 312.684 366.995 311.438 365.188C310.043 363.175 308.648 361.162 307.254 359.149C306.198 357.622 306.198 357.622 305.122 356.066C301.714 351.142 298.295 346.227 294.875 341.313C294.212 340.359 293.549 339.406 292.865 338.423C286.834 329.754 280.779 321.101 274.718 312.452C271.81 308.302 268.905 304.151 266 300C264.833 298.333 263.667 296.667 262.5 295C255.5 285 248.5 275 241.5 265C240.923 264.175 240.345 263.351 239.75 262.501C238.582 260.832 237.414 259.163 236.246 257.493C233.355 253.363 230.463 249.234 227.57 245.106C220.683 235.275 213.817 225.43 206.966 215.574C200.902 206.853 194.813 198.15 188.718 189.452C185.81 185.302 182.905 181.151 180 177C178.833 175.333 177.667 173.667 176.5 172C174.167 168.667 171.833 165.333 169.5 162C168.921 161.174 168.343 160.347 167.747 159.496C166.591 157.844 165.434 156.192 164.279 154.54C161.204 150.146 158.126 145.755 155.043 141.367C154.398 140.448 153.753 139.529 153.088 138.582C151.844 136.811 150.599 135.04 149.354 133.27C148.797 132.477 148.241 131.684 147.668 130.867C146.93 129.817 146.93 129.817 146.177 128.746C145 127 145 127 144 125Z" fill="#020202"/>
</g>
<defs>
<clipPath id="clip0_1312_1543">
<rect width="512" height="512" fill="white"/>
</clipPath>
</defs>
</svg>
