<svg width="512" height="512" viewBox="0 0 512 512" fill="none" xmlns="http://www.w3.org/2000/svg">
<g clip-path="url(#clip0_1346_951)">
<path d="M255.625 -0.31261C256.643 -0.310455 257.661 -0.3083 258.71 -0.306079C273.319 -0.256409 287.651 -0.00551176 302 2.99989C302.975 3.19857 303.95 3.39724 304.954 3.60194C353.336 13.7226 397.324 35.6391 433 69.9999C433.989 70.9481 433.989 70.9481 434.998 71.9154C444.486 81.0599 453.226 90.3572 461 101C461.858 102.151 462.716 103.302 463.574 104.453C469.612 112.644 474.971 121.158 480 130C480.364 130.632 480.729 131.263 481.104 131.914C502.71 169.663 512.477 212.429 512.312 255.625C512.31 256.643 512.308 257.661 512.306 258.709C512.256 273.319 512.005 287.651 509 302C508.702 303.462 508.702 303.462 508.398 304.954C498.277 353.336 476.361 397.324 442 433C441.368 433.659 440.736 434.319 440.084 434.998C430.94 444.486 421.643 453.226 411 461C409.849 461.858 408.698 462.716 407.547 463.574C399.357 469.612 390.855 474.994 382 480C381.293 480.402 380.586 480.804 379.857 481.219C356.722 494.244 331.55 502.993 305.562 508.312C304.844 508.46 304.125 508.607 303.384 508.759C288.708 511.548 274.183 512.349 259.273 512.316C256.333 512.312 253.395 512.336 250.455 512.361C237.082 512.406 224.186 511.2 211 509C209.294 508.718 209.294 508.718 207.554 508.43C164.287 500.658 123.237 480.671 90 452C89.2549 451.366 88.5098 450.731 87.7422 450.078C74.2372 438.267 61.5658 425.516 51 411C50.1435 409.85 49.2867 408.7 48.4297 407.551C42.3897 399.361 37.0063 390.856 32 382C31.5978 381.293 31.1956 380.585 30.7812 379.857C17.7558 356.721 9.00698 331.55 3.6875 305.562C3.54014 304.843 3.39278 304.125 3.24096 303.384C0.267106 287.738 -0.373007 272.264 -0.312503 256.375C-0.310348 255.357 -0.308193 254.339 -0.305972 253.29C-0.256302 238.681 -0.00540495 224.349 3 210C3.19867 209.025 3.39735 208.05 3.60205 207.046C13.7227 158.664 35.6392 114.676 70 78.9999C70.6321 78.3405 71.2642 77.6812 71.9155 77.0018C81.06 67.5136 90.3573 58.7737 101 50.9999C102.151 50.1418 103.302 49.2838 104.453 48.4257C112.643 42.3881 121.145 37.0053 130 31.9999C130.707 31.5977 131.414 31.1955 132.143 30.7811C155.278 17.7557 180.45 9.00688 206.438 3.68739C207.156 3.54003 207.875 3.39268 208.616 3.24086C224.262 0.266999 239.736 -0.373114 255.625 -0.31261Z" fill="#FF0000"/>
<path d="M169.488 159.866C170.246 159.864 171.003 159.862 171.783 159.86C174.323 159.853 176.862 159.854 179.401 159.855C181.221 159.852 183.042 159.848 184.862 159.845C189.808 159.836 194.755 159.834 199.701 159.833C203.831 159.832 207.961 159.828 212.091 159.825C221.837 159.817 231.584 159.814 241.33 159.815C251.38 159.815 261.429 159.805 271.479 159.789C280.109 159.776 288.74 159.771 297.37 159.771C302.523 159.772 307.677 159.769 312.83 159.758C317.679 159.748 322.528 159.748 327.378 159.756C329.155 159.757 330.931 159.754 332.708 159.748C335.14 159.741 337.572 159.745 340.004 159.753C340.701 159.748 341.399 159.743 342.118 159.737C354.457 159.823 367.387 165.518 376.266 174.074C386.95 185.938 391.142 199.136 391.161 214.854C391.166 215.831 391.171 216.807 391.176 217.813C391.191 221.034 391.198 224.255 391.203 227.477C391.209 229.726 391.215 231.976 391.22 234.225C391.231 238.941 391.237 243.657 391.24 248.373C391.246 254.391 391.27 260.41 391.298 266.428C391.317 271.076 391.322 275.724 391.324 280.373C391.327 282.59 391.335 284.807 391.348 287.025C391.453 306.115 390.195 323.343 376.258 337.969C369.15 344.364 361.096 348.258 352 351C351.444 351.177 350.889 351.354 350.316 351.536C347.06 352.188 343.838 352.148 340.532 352.147C339.777 352.151 339.021 352.155 338.243 352.158C335.711 352.169 333.179 352.173 330.646 352.177C328.831 352.183 327.016 352.19 325.201 352.197C319.237 352.218 313.273 352.228 307.309 352.238C305.253 352.242 303.198 352.247 301.143 352.251C291.485 352.27 281.826 352.284 272.168 352.292C261.031 352.302 249.894 352.328 238.758 352.369C230.143 352.399 221.528 352.414 212.912 352.417C207.771 352.419 202.629 352.428 197.487 352.454C192.645 352.477 187.804 352.481 182.962 352.471C181.191 352.47 179.42 352.477 177.649 352.49C161.419 352.61 147.939 348.926 135.652 337.738C124.777 326.298 120.858 312.555 120.839 297.146C120.831 295.681 120.831 295.681 120.824 294.187C120.809 290.966 120.802 287.745 120.797 284.524C120.791 282.274 120.785 280.024 120.78 277.775C120.769 273.059 120.763 268.343 120.76 263.628C120.754 257.609 120.73 251.591 120.702 245.572C120.683 240.924 120.678 236.276 120.676 231.628C120.673 229.41 120.665 227.193 120.652 224.975C120.55 206.479 121.538 189.068 135.031 174.805C144.765 165.882 156.208 159.837 169.488 159.866Z" fill="#FFFEFE"/>
<path d="M220 215C223.453 216.381 226.381 217.676 229.57 219.477C230.453 219.974 231.336 220.472 232.246 220.985C233.196 221.526 234.146 222.068 235.125 222.625C236.125 223.192 237.124 223.759 238.155 224.343C247.297 229.551 256.342 234.916 265.381 240.301C273.846 245.339 282.373 250.244 291 255C291 255.66 291 256.32 291 257C290.167 257.465 290.167 257.465 289.317 257.939C277.542 264.525 265.845 271.228 254.25 278.125C252.556 279.132 252.556 279.132 250.827 280.16C249.715 280.821 248.603 281.483 247.457 282.164C241.629 285.629 235.793 289.081 229.938 292.5C228.759 293.194 228.759 293.194 227.558 293.903C222.232 297 222.232 297 220 297C220 269.94 220 242.88 220 215Z" fill="#FF0505"/>
</g>
<defs>
<clipPath id="clip0_1346_951">
<rect width="512" height="512" fill="white"/>
</clipPath>
</defs>
</svg>
